<?xml version="1.0" encoding="UTF-8"?>
<svg xmlns="http://www.w3.org/2000/svg" width="2048" height="941" viewBox="0 0 2048 941">
  <path d="M 961 571 L 958 574 L 957 574 L 954 577 L 953 577 L 943 587 L 942 587 L 942 588 L 933 597 L 933 598 L 929 602 L 929 603 L 927 605 L 927 606 L 925 608 L 925 609 L 921 614 L 921 615 L 920 616 L 919 619 L 917 621 L 917 622 L 916 623 L 916 624 L 915 625 L 914 628 L 912 630 L 912 632 L 911 633 L 911 634 L 909 637 L 909 639 L 906 644 L 906 647 L 904 649 L 904 652 L 902 655 L 902 658 L 901 659 L 901 662 L 899 665 L 899 669 L 898 670 L 898 672 L 897 673 L 897 677 L 896 678 L 896 683 L 895 684 L 895 687 L 894 688 L 894 694 L 893 695 L 893 703 L 892 704 L 892 711 L 891 712 L 891 771 L 892 772 L 892 778 L 893 779 L 893 786 L 894 787 L 894 794 L 895 795 L 895 798 L 896 799 L 896 803 L 897 804 L 897 808 L 898 809 L 898 811 L 899 812 L 899 815 L 900 816 L 900 818 L 901 819 L 901 822 L 902 823 L 902 825 L 904 828 L 904 831 L 906 833 L 906 836 L 909 841 L 909 843 L 912 848 L 912 850 L 914 852 L 914 853 L 915 854 L 915 855 L 916 856 L 917 859 L 919 861 L 920 864 L 924 869 L 925 872 L 927 874 L 927 875 L 929 877 L 929 878 L 935 884 L 935 885 L 948 898 L 949 898 L 954 903 L 955 903 L 958 906 L 959 906 L 961 908 L 962 908 L 962 571 Z M 566 571 L 565 572 L 564 572 L 562 574 L 561 574 L 556 579 L 555 579 L 539 595 L 539 596 L 535 600 L 535 601 L 534 602 L 533 602 L 533 603 L 531 605 L 531 606 L 527 611 L 526 614 L 524 616 L 523 619 L 521 621 L 521 622 L 520 623 L 520 624 L 519 625 L 519 626 L 518 627 L 518 628 L 515 633 L 515 635 L 513 637 L 513 639 L 512 640 L 512 642 L 510 645 L 510 647 L 509 648 L 509 649 L 508 650 L 508 652 L 507 653 L 507 656 L 505 659 L 505 662 L 504 663 L 504 666 L 503 667 L 503 669 L 502 670 L 502 674 L 501 675 L 501 677 L 500 678 L 500 683 L 499 684 L 499 691 L 498 692 L 498 695 L 497 696 L 497 705 L 496 706 L 496 714 L 495 715 L 495 769 L 496 770 L 496 777 L 497 778 L 497 786 L 498 787 L 498 790 L 499 791 L 499 797 L 500 798 L 500 803 L 501 804 L 501 806 L 502 807 L 502 811 L 503 812 L 503 814 L 504 815 L 504 817 L 505 818 L 505 821 L 506 822 L 506 824 L 507 825 L 507 827 L 508 828 L 508 830 L 510 833 L 510 835 L 512 838 L 512 840 L 515 845 L 515 847 L 517 849 L 517 851 L 518 852 L 518 853 L 520 855 L 520 857 L 522 859 L 523 862 L 525 864 L 526 867 L 528 869 L 528 870 L 530 872 L 530 873 L 532 875 L 532 876 L 535 879 L 535 880 L 540 885 L 540 886 L 552 898 L 553 898 L 556 901 L 557 901 L 558 902 L 558 903 L 559 903 L 562 906 L 563 906 L 565 908 L 566 908 Z M 1916 539 L 1840 539 L 1839 540 L 1839 543 L 1837 546 L 1837 549 L 1834 555 L 1834 558 L 1832 561 L 1832 564 L 1831 565 L 1831 567 L 1830 568 L 1830 570 L 1829 571 L 1829 573 L 1828 574 L 1828 576 L 1826 580 L 1826 583 L 1823 589 L 1823 592 L 1821 595 L 1821 598 L 1819 601 L 1819 604 L 1818 605 L 1818 607 L 1817 608 L 1817 610 L 1816 611 L 1816 613 L 1815 614 L 1815 616 L 1814 617 L 1814 619 L 1813 620 L 1813 622 L 1812 623 L 1812 625 L 1811 626 L 1811 628 L 1810 629 L 1810 631 L 1808 635 L 1808 638 L 1806 641 L 1806 644 L 1803 650 L 1803 653 L 1801 656 L 1800 663 L 1798 666 L 1798 668 L 1797 669 L 1797 671 L 1795 675 L 1795 678 L 1793 681 L 1793 684 L 1790 690 L 1790 693 L 1788 696 L 1788 699 L 1787 700 L 1787 702 L 1786 703 L 1786 705 L 1785 706 L 1785 708 L 1784 709 L 1784 711 L 1782 715 L 1782 718 L 1780 721 L 1780 724 L 1778 727 L 1777 733 L 1775 736 L 1775 739 L 1774 740 L 1772 748 L 1770 751 L 1769 758 L 1767 761 L 1767 763 L 1766 764 L 1766 766 L 1764 770 L 1764 773 L 1762 776 L 1762 779 L 1760 782 L 1759 788 L 1757 791 L 1757 794 L 1755 798 L 1755 935 L 1831 935 L 1831 797 L 1833 794 L 1833 791 L 1834 790 L 1834 788 L 1835 787 L 1835 785 L 1836 784 L 1836 782 L 1837 781 L 1837 779 L 1839 775 L 1839 772 L 1841 769 L 1841 767 L 1842 766 L 1842 764 L 1844 760 L 1844 757 L 1846 754 L 1846 751 L 1849 745 L 1849 742 L 1851 739 L 1852 732 L 1854 729 L 1854 727 L 1855 726 L 1855 724 L 1857 720 L 1857 717 L 1859 714 L 1859 711 L 1861 708 L 1862 702 L 1864 699 L 1864 696 L 1865 695 L 1865 693 L 1866 692 L 1866 690 L 1867 689 L 1867 687 L 1868 686 L 1868 684 L 1870 680 L 1870 677 L 1872 674 L 1872 671 L 1874 668 L 1875 662 L 1877 659 L 1877 656 L 1878 655 L 1880 647 L 1882 644 L 1883 637 L 1885 634 L 1885 632 L 1886 631 L 1886 629 L 1888 625 L 1888 622 L 1890 619 L 1890 616 L 1892 613 L 1893 607 L 1895 604 L 1895 601 L 1896 600 L 1896 598 L 1898 594 L 1898 591 L 1900 588 L 1901 582 L 1903 579 L 1903 576 L 1905 573 L 1905 570 L 1908 564 L 1908 561 L 1910 558 L 1910 555 L 1911 554 L 1911 552 L 1912 551 L 1912 549 L 1913 548 L 1913 546 L 1914 545 L 1914 543 Z M 1644 539 L 1651 561 L 1656 572 L 1656 575 L 1661 586 L 1661 589 L 1663 592 L 1669 611 L 1674 622 L 1674 625 L 1679 636 L 1680 642 L 1687 658 L 1687 661 L 1692 672 L 1693 678 L 1697 686 L 1698 692 L 1702 700 L 1703 706 L 1710 722 L 1711 728 L 1715 736 L 1716 742 L 1720 750 L 1721 756 L 1723 759 L 1729 778 L 1733 786 L 1734 792 L 1737 798 L 1737 935 L 1746 935 L 1746 797 L 1748 794 L 1749 788 L 1753 779 L 1753 776 L 1759 760 L 1759 757 L 1761 754 L 1761 751 L 1766 739 L 1767 732 L 1769 729 L 1772 720 L 1772 717 L 1776 708 L 1776 705 L 1780 695 L 1780 692 L 1782 689 L 1782 686 L 1784 683 L 1785 677 L 1789 668 L 1789 665 L 1795 649 L 1795 646 L 1797 643 L 1797 640 L 1802 628 L 1803 621 L 1805 618 L 1805 615 L 1810 603 L 1810 600 L 1816 584 L 1816 581 L 1818 578 L 1818 575 L 1821 569 L 1821 566 L 1823 563 L 1823 560 L 1830 539 L 1821 539 L 1821 541 L 1819 544 L 1819 547 L 1816 553 L 1813 566 L 1811 569 L 1811 572 L 1806 584 L 1805 591 L 1803 594 L 1800 603 L 1800 606 L 1798 609 L 1798 612 L 1793 624 L 1790 637 L 1788 640 L 1787 646 L 1785 649 L 1785 652 L 1783 655 L 1783 658 L 1777 674 L 1777 677 L 1775 680 L 1775 683 L 1772 689 L 1772 692 L 1770 695 L 1770 698 L 1764 714 L 1764 717 L 1762 720 L 1759 729 L 1759 732 L 1757 735 L 1757 738 L 1751 754 L 1751 757 L 1749 760 L 1749 763 L 1747 766 L 1746 772 L 1741 784 L 1735 767 L 1733 764 L 1733 761 L 1731 758 L 1730 753 L 1728 750 L 1728 747 L 1723 736 L 1720 725 L 1715 714 L 1715 711 L 1710 700 L 1710 697 L 1702 678 L 1702 675 L 1697 664 L 1697 661 L 1692 650 L 1684 625 L 1679 614 L 1679 611 L 1674 600 L 1674 597 L 1672 594 L 1666 575 L 1661 564 L 1661 561 L 1656 550 L 1655 544 L 1653 541 L 1653 539 Z M 1597 539 L 1483 539 L 1483 935 L 1491 935 L 1491 548 L 1492 547 L 1597 547 Z M 1398 539 L 1398 935 L 1474 935 L 1474 539 Z M 1286 539 L 1286 548 L 1380 548 L 1381 549 L 1381 935 L 1390 935 L 1390 539 Z M 1033 541 L 1032 542 L 1024 543 L 1023 544 L 1019 544 L 1015 546 L 1012 546 L 1011 547 L 1003 549 L 981 559 L 979 561 L 970 566 L 970 914 L 976 917 L 981 921 L 985 922 L 987 924 L 991 926 L 993 926 L 998 929 L 1000 929 L 1006 932 L 1009 932 L 1013 934 L 1021 935 L 1024 937 L 1029 937 L 1034 939 L 1042 939 L 1043 940 L 1098 940 L 1099 939 L 1106 939 L 1107 938 L 1111 938 L 1112 937 L 1116 937 L 1117 936 L 1128 934 L 1129 933 L 1137 931 L 1140 929 L 1142 929 L 1145 927 L 1147 927 L 1166 917 L 1169 914 L 1173 912 L 1182 904 L 1183 904 L 1200 886 L 1212 868 L 1213 865 L 1215 863 L 1216 859 L 1218 857 L 1218 855 L 1221 850 L 1221 848 L 1225 840 L 1225 838 L 1228 831 L 1228 828 L 1230 825 L 1231 817 L 1233 813 L 1233 809 L 1235 804 L 1236 791 L 1237 790 L 1237 786 L 1238 785 L 1238 774 L 1239 773 L 1239 754 L 1240 753 L 1240 733 L 1239 732 L 1239 712 L 1238 711 L 1238 699 L 1237 698 L 1237 694 L 1236 693 L 1235 680 L 1234 679 L 1233 670 L 1231 666 L 1230 658 L 1228 654 L 1228 651 L 1226 648 L 1225 642 L 1223 639 L 1223 636 L 1212 613 L 1203 599 L 1200 596 L 1198 592 L 1192 586 L 1192 585 L 1172 567 L 1169 566 L 1166 563 L 1156 558 L 1154 556 L 1152 556 L 1150 554 L 1148 554 L 1143 551 L 1141 551 L 1135 548 L 1132 548 L 1129 546 L 1126 546 L 1125 545 L 1118 544 L 1117 543 L 1113 543 L 1108 541 L 1101 541 L 1100 540 L 1093 540 L 1092 539 L 1049 539 L 1048 540 Z M 1064 546 L 1077 546 L 1078 547 L 1099 548 L 1100 549 L 1104 549 L 1105 550 L 1116 551 L 1117 552 L 1123 553 L 1130 556 L 1133 556 L 1143 561 L 1145 561 L 1147 563 L 1149 563 L 1153 566 L 1160 569 L 1163 572 L 1171 577 L 1172 579 L 1173 579 L 1178 584 L 1179 584 L 1180 586 L 1181 586 L 1190 596 L 1190 597 L 1200 609 L 1201 612 L 1206 619 L 1206 621 L 1208 623 L 1211 629 L 1211 631 L 1215 638 L 1215 640 L 1218 646 L 1218 649 L 1221 656 L 1221 659 L 1223 663 L 1224 672 L 1226 676 L 1226 682 L 1228 686 L 1228 694 L 1229 695 L 1230 712 L 1231 713 L 1231 771 L 1230 772 L 1230 778 L 1229 779 L 1228 795 L 1226 800 L 1226 805 L 1224 809 L 1223 818 L 1221 822 L 1221 825 L 1218 831 L 1218 834 L 1216 837 L 1215 842 L 1211 849 L 1211 851 L 1208 855 L 1208 857 L 1206 859 L 1203 866 L 1198 872 L 1197 875 L 1189 884 L 1189 885 L 1173 901 L 1154 914 L 1142 920 L 1140 920 L 1132 924 L 1126 925 L 1122 927 L 1119 927 L 1114 929 L 1110 929 L 1109 930 L 1099 931 L 1098 932 L 1087 932 L 1086 933 L 1055 933 L 1054 932 L 1042 932 L 1037 930 L 1031 930 L 1030 929 L 1027 929 L 1022 927 L 1018 927 L 1017 926 L 1003 922 L 998 919 L 996 919 L 986 914 L 979 909 L 979 571 L 985 567 L 988 566 L 990 564 L 994 563 L 996 561 L 998 561 L 1003 558 L 1005 558 L 1011 555 L 1014 555 L 1015 554 L 1021 553 L 1025 551 L 1036 550 L 1041 548 L 1063 547 Z M 637 541 L 633 543 L 623 544 L 619 546 L 616 546 L 613 548 L 607 549 L 585 559 L 583 561 L 574 566 L 574 914 L 580 917 L 582 919 L 589 922 L 591 924 L 593 924 L 595 926 L 597 926 L 602 929 L 604 929 L 617 934 L 625 935 L 629 937 L 634 937 L 639 939 L 646 939 L 647 940 L 703 940 L 704 939 L 711 939 L 716 937 L 721 937 L 725 935 L 732 934 L 733 933 L 739 932 L 742 930 L 747 929 L 767 919 L 780 910 L 784 906 L 785 906 L 805 885 L 818 865 L 819 861 L 821 859 L 824 853 L 826 846 L 829 841 L 829 838 L 831 835 L 832 829 L 833 828 L 834 822 L 837 814 L 837 809 L 839 805 L 839 799 L 841 794 L 842 775 L 843 774 L 843 766 L 844 765 L 844 720 L 843 719 L 842 699 L 841 698 L 841 690 L 840 689 L 840 685 L 839 684 L 839 678 L 837 674 L 836 664 L 835 663 L 834 657 L 831 650 L 831 647 L 829 644 L 829 641 L 827 638 L 827 636 L 823 628 L 823 626 L 819 620 L 818 616 L 816 614 L 815 611 L 811 606 L 806 597 L 798 588 L 798 587 L 797 587 L 796 585 L 785 574 L 784 574 L 772 564 L 762 559 L 760 557 L 756 556 L 754 554 L 750 553 L 747 551 L 745 551 L 742 549 L 736 548 L 733 546 L 730 546 L 726 544 L 717 543 L 712 541 L 705 541 L 704 540 L 697 540 L 696 539 L 654 539 L 653 540 Z M 668 546 L 682 546 L 683 547 L 704 548 L 709 550 L 715 550 L 716 551 L 720 551 L 724 553 L 727 553 L 731 555 L 734 555 L 740 558 L 742 558 L 747 561 L 749 561 L 755 564 L 757 566 L 759 566 L 774 576 L 780 582 L 781 582 L 790 591 L 790 592 L 796 598 L 796 599 L 802 606 L 808 615 L 817 633 L 817 635 L 819 638 L 819 640 L 821 643 L 821 645 L 824 652 L 824 655 L 826 658 L 827 666 L 829 670 L 829 675 L 830 676 L 830 680 L 831 681 L 831 685 L 832 686 L 832 693 L 833 694 L 833 698 L 834 699 L 834 711 L 835 712 L 835 771 L 834 772 L 834 783 L 833 784 L 833 788 L 832 789 L 832 796 L 830 801 L 829 811 L 827 815 L 827 818 L 826 819 L 826 822 L 824 826 L 824 829 L 821 835 L 821 838 L 819 840 L 817 847 L 807 866 L 801 875 L 798 878 L 796 882 L 776 902 L 760 913 L 751 917 L 749 919 L 744 920 L 741 922 L 739 922 L 733 925 L 730 925 L 727 927 L 723 927 L 722 928 L 719 928 L 714 930 L 708 930 L 707 931 L 703 931 L 702 932 L 691 932 L 690 933 L 659 933 L 658 932 L 647 932 L 646 931 L 642 931 L 641 930 L 635 930 L 634 929 L 631 929 L 626 927 L 622 927 L 619 925 L 616 925 L 615 924 L 607 922 L 602 919 L 600 919 L 598 917 L 596 917 L 592 914 L 590 914 L 583 909 L 583 572 L 586 569 L 589 568 L 594 564 L 598 563 L 600 561 L 602 561 L 612 556 L 615 556 L 616 555 L 618 555 L 622 553 L 625 553 L 629 551 L 640 550 L 645 548 L 656 548 L 657 547 L 667 547 Z M 448 539 L 334 539 L 334 935 L 342 935 L 342 548 L 343 547 L 448 547 Z M 249 539 L 249 935 L 325 935 L 325 539 Z M 138 539 L 137 540 L 137 547 L 138 548 L 231 548 L 232 549 L 232 935 L 241 935 L 241 539 Z M 168 180 L 167 181 L 167 393 L 171 393 L 172 392 L 173 392 L 174 391 L 176 391 L 177 390 L 179 390 L 180 389 L 181 389 L 182 388 L 184 388 L 186 386 L 188 386 L 189 385 L 190 385 L 191 384 L 192 384 L 193 383 L 194 383 L 196 381 L 197 381 L 198 380 L 199 380 L 200 379 L 201 379 L 202 378 L 203 378 L 205 376 L 206 376 L 209 373 L 210 373 L 212 371 L 213 371 L 217 367 L 218 367 L 233 352 L 233 351 L 237 347 L 237 346 L 239 344 L 239 343 L 242 340 L 242 339 L 243 338 L 243 337 L 244 336 L 244 335 L 246 333 L 246 332 L 247 331 L 247 329 L 249 327 L 249 325 L 250 324 L 250 323 L 251 322 L 251 320 L 252 319 L 252 316 L 253 315 L 253 314 L 254 313 L 254 309 L 255 308 L 255 304 L 256 303 L 256 295 L 257 294 L 257 284 L 256 283 L 256 275 L 255 274 L 255 270 L 254 269 L 254 265 L 253 264 L 253 262 L 252 261 L 252 259 L 251 258 L 251 256 L 250 255 L 250 254 L 249 253 L 249 251 L 248 250 L 248 249 L 247 248 L 247 246 L 246 245 L 246 244 L 244 242 L 244 241 L 243 240 L 243 239 L 242 238 L 242 237 L 241 236 L 241 235 L 239 233 L 239 232 L 236 229 L 236 228 L 233 225 L 233 224 L 229 220 L 229 219 L 228 218 L 227 218 L 226 217 L 226 216 L 218 208 L 217 208 L 213 204 L 212 204 L 208 200 L 207 200 L 205 198 L 204 198 L 202 196 L 201 196 L 200 195 L 199 195 L 197 193 L 196 193 L 195 192 L 194 192 L 192 190 L 190 190 L 188 188 L 186 188 L 184 186 L 182 186 L 181 185 L 179 185 L 177 183 L 175 183 L 174 182 L 171 182 L 170 181 L 169 181 Z M 1093 33 L 1092 34 L 1091 34 L 1087 38 L 1086 38 L 1083 41 L 1082 41 L 1082 42 L 1081 43 L 1080 43 L 1069 54 L 1069 55 L 1063 61 L 1063 62 L 1059 66 L 1058 69 L 1056 71 L 1056 72 L 1052 77 L 1051 80 L 1049 82 L 1049 83 L 1048 84 L 1048 85 L 1047 86 L 1047 87 L 1046 88 L 1046 89 L 1045 90 L 1045 91 L 1044 92 L 1044 93 L 1041 98 L 1041 100 L 1038 105 L 1038 107 L 1036 110 L 1036 112 L 1035 113 L 1035 116 L 1033 119 L 1033 122 L 1032 123 L 1032 125 L 1031 126 L 1031 129 L 1030 130 L 1030 134 L 1029 135 L 1029 137 L 1028 138 L 1028 142 L 1027 143 L 1027 149 L 1026 150 L 1026 153 L 1025 154 L 1025 162 L 1024 163 L 1024 168 L 1023 169 L 1023 183 L 1022 184 L 1022 225 L 1023 226 L 1023 239 L 1024 240 L 1024 245 L 1025 246 L 1025 253 L 1026 254 L 1026 257 L 1027 258 L 1027 263 L 1028 264 L 1028 269 L 1029 270 L 1029 272 L 1030 273 L 1030 276 L 1031 277 L 1031 280 L 1032 281 L 1032 283 L 1033 284 L 1033 287 L 1035 290 L 1035 292 L 1036 293 L 1036 295 L 1038 298 L 1038 300 L 1040 303 L 1040 305 L 1043 310 L 1043 312 L 1045 314 L 1045 315 L 1046 316 L 1046 318 L 1048 320 L 1049 323 L 1051 325 L 1051 327 L 1053 329 L 1053 330 L 1055 332 L 1055 333 L 1057 335 L 1057 336 L 1059 338 L 1059 339 L 1061 341 L 1061 342 L 1062 342 L 1063 343 L 1063 344 L 1066 347 L 1066 348 L 1080 362 L 1081 362 L 1086 367 L 1087 367 L 1090 370 L 1091 370 L 1093 372 L 1094 372 L 1094 33 Z M 697 33 L 695 35 L 694 35 L 691 38 L 690 38 L 684 44 L 683 44 L 683 45 L 682 46 L 681 46 L 677 50 L 677 51 L 676 52 L 675 52 L 675 53 L 669 59 L 669 60 L 668 61 L 667 61 L 667 62 L 664 65 L 664 66 L 660 71 L 659 74 L 657 76 L 656 79 L 652 84 L 652 86 L 651 87 L 651 88 L 649 90 L 649 91 L 647 94 L 647 96 L 644 101 L 644 103 L 641 108 L 641 111 L 639 114 L 639 116 L 638 117 L 638 120 L 636 123 L 636 127 L 634 130 L 634 134 L 633 135 L 633 139 L 632 140 L 632 143 L 631 144 L 631 149 L 630 150 L 630 154 L 629 155 L 629 162 L 628 163 L 628 174 L 627 175 L 627 183 L 626 184 L 626 225 L 627 226 L 627 234 L 628 235 L 628 245 L 629 246 L 629 252 L 630 253 L 630 257 L 631 258 L 631 263 L 632 264 L 632 266 L 633 267 L 633 272 L 634 273 L 634 276 L 635 277 L 635 279 L 636 280 L 636 283 L 638 286 L 638 289 L 639 290 L 639 292 L 641 295 L 641 297 L 642 298 L 642 300 L 644 303 L 644 305 L 646 307 L 646 309 L 647 310 L 647 311 L 648 312 L 648 313 L 649 314 L 649 315 L 650 316 L 652 321 L 654 323 L 656 328 L 658 330 L 658 331 L 660 333 L 660 334 L 662 336 L 662 337 L 664 339 L 664 340 L 667 343 L 667 344 L 672 349 L 672 350 L 673 350 L 674 351 L 674 352 L 680 358 L 681 358 L 682 359 L 682 360 L 684 362 L 685 362 L 688 365 L 689 365 L 693 369 L 694 369 L 697 372 L 698 372 L 698 33 Z M 107 4 L 106 5 L 102 5 L 101 6 L 99 6 L 98 7 L 94 7 L 93 8 L 91 8 L 90 9 L 89 9 L 88 10 L 86 10 L 85 11 L 84 11 L 83 12 L 81 12 L 80 13 L 79 13 L 78 14 L 77 14 L 76 15 L 75 15 L 74 16 L 73 16 L 72 17 L 71 17 L 70 18 L 69 18 L 67 20 L 66 20 L 65 21 L 64 21 L 62 23 L 61 23 L 61 24 L 60 25 L 59 25 L 57 27 L 56 27 L 50 33 L 49 33 L 49 34 L 41 42 L 41 43 L 38 46 L 38 47 L 36 49 L 36 50 L 35 51 L 35 52 L 33 54 L 33 55 L 32 56 L 32 57 L 31 58 L 31 59 L 30 60 L 30 62 L 29 63 L 29 64 L 28 65 L 28 67 L 27 68 L 27 69 L 26 70 L 26 73 L 25 74 L 25 78 L 24 79 L 24 82 L 23 83 L 23 106 L 24 107 L 24 110 L 25 111 L 25 115 L 26 116 L 26 119 L 27 120 L 27 121 L 28 122 L 28 124 L 29 125 L 29 126 L 30 127 L 30 129 L 31 130 L 31 131 L 33 133 L 33 135 L 35 137 L 35 138 L 36 139 L 36 140 L 39 143 L 39 144 L 41 146 L 41 147 L 56 162 L 57 162 L 60 165 L 61 165 L 63 167 L 64 167 L 66 169 L 67 169 L 69 171 L 70 171 L 71 172 L 72 172 L 74 174 L 76 174 L 77 175 L 78 175 L 79 176 L 80 176 L 81 177 L 82 177 L 83 178 L 84 178 L 85 179 L 87 179 L 88 180 L 90 180 L 91 181 L 92 181 L 93 182 L 96 182 L 97 183 L 99 183 L 100 184 L 104 184 L 105 185 L 107 185 Z M 2047 0 L 1972 0 L 1971 1 L 1970 7 L 1968 10 L 1968 13 L 1966 16 L 1966 19 L 1963 25 L 1963 28 L 1962 29 L 1962 31 L 1961 32 L 1961 34 L 1960 35 L 1960 37 L 1959 38 L 1959 40 L 1957 44 L 1957 47 L 1955 50 L 1955 53 L 1953 56 L 1952 62 L 1950 65 L 1950 68 L 1949 69 L 1949 71 L 1947 75 L 1947 78 L 1945 81 L 1945 83 L 1944 84 L 1944 86 L 1942 90 L 1942 93 L 1940 96 L 1940 99 L 1939 100 L 1939 102 L 1938 103 L 1938 105 L 1937 106 L 1937 108 L 1936 109 L 1936 111 L 1934 115 L 1934 118 L 1932 121 L 1932 124 L 1930 127 L 1929 133 L 1927 136 L 1927 139 L 1926 140 L 1926 142 L 1925 143 L 1925 145 L 1924 146 L 1924 148 L 1923 149 L 1923 151 L 1921 155 L 1921 158 L 1919 161 L 1919 164 L 1917 167 L 1916 173 L 1914 176 L 1914 179 L 1913 180 L 1913 182 L 1912 183 L 1912 185 L 1911 186 L 1911 188 L 1910 189 L 1910 191 L 1908 195 L 1908 198 L 1906 201 L 1906 204 L 1904 207 L 1904 210 L 1901 216 L 1901 219 L 1900 220 L 1900 222 L 1899 223 L 1899 225 L 1898 226 L 1898 228 L 1897 229 L 1897 231 L 1896 232 L 1896 234 L 1895 235 L 1895 237 L 1893 241 L 1893 244 L 1891 247 L 1891 250 L 1890 251 L 1890 253 L 1889 254 L 1889 256 L 1887 260 L 1887 399 L 1962 399 L 1962 262 L 1964 259 L 1964 256 L 1967 250 L 1968 243 L 1970 240 L 1970 238 L 1971 237 L 1971 235 L 1973 231 L 1973 228 L 1975 225 L 1975 222 L 1977 219 L 1977 216 L 1978 215 L 1978 213 L 1979 212 L 1979 210 L 1980 209 L 1980 207 L 1981 206 L 1981 204 L 1983 200 L 1983 197 L 1985 194 L 1986 188 L 1988 185 L 1988 182 L 1990 179 L 1990 176 L 1993 170 L 1993 167 L 1994 166 L 1994 164 L 1996 160 L 1996 157 L 1998 154 L 1998 151 L 2001 145 L 2001 142 L 2003 139 L 2004 132 L 2006 129 L 2006 127 L 2007 126 L 2007 124 L 2009 120 L 2009 117 L 2011 114 L 2011 111 L 2013 108 L 2014 102 L 2016 99 L 2016 96 L 2017 95 L 2017 93 L 2019 89 L 2019 86 L 2021 83 L 2022 77 L 2024 74 L 2024 71 L 2026 68 L 2026 65 L 2029 59 L 2029 56 L 2030 55 L 2030 53 L 2031 52 L 2031 50 L 2032 49 L 2032 47 L 2033 46 L 2033 44 L 2035 40 L 2035 37 L 2037 34 L 2037 31 L 2039 28 L 2039 25 L 2040 24 L 2040 22 L 2041 21 L 2041 19 L 2042 18 L 2042 16 L 2043 15 L 2043 13 L 2045 9 L 2045 6 L 2047 3 Z M 1776 0 L 1775 2 L 1782 18 L 1783 24 L 1787 32 L 1788 38 L 1793 49 L 1793 52 L 1798 63 L 1798 66 L 1800 68 L 1803 80 L 1808 91 L 1816 116 L 1821 127 L 1821 130 L 1823 133 L 1827 147 L 1831 155 L 1832 161 L 1836 169 L 1837 175 L 1841 183 L 1842 189 L 1847 200 L 1847 203 L 1852 214 L 1852 217 L 1854 220 L 1855 225 L 1857 228 L 1860 239 L 1862 242 L 1865 253 L 1869 262 L 1869 399 L 1878 399 L 1878 260 L 1883 247 L 1883 244 L 1888 231 L 1888 228 L 1890 225 L 1890 222 L 1893 216 L 1893 213 L 1895 210 L 1898 197 L 1900 194 L 1901 188 L 1905 179 L 1908 166 L 1913 154 L 1913 151 L 1919 135 L 1919 132 L 1923 123 L 1923 120 L 1929 104 L 1929 101 L 1931 98 L 1931 95 L 1937 79 L 1937 76 L 1939 73 L 1939 70 L 1944 58 L 1947 45 L 1949 42 L 1949 39 L 1952 33 L 1955 20 L 1957 17 L 1957 14 L 1959 11 L 1962 0 L 1953 0 L 1952 2 L 1952 5 L 1948 14 L 1948 17 L 1942 33 L 1942 36 L 1937 48 L 1934 61 L 1932 64 L 1932 67 L 1927 79 L 1927 82 L 1921 98 L 1921 101 L 1917 110 L 1917 113 L 1911 129 L 1911 132 L 1909 135 L 1908 141 L 1906 144 L 1903 157 L 1901 160 L 1901 163 L 1899 166 L 1898 172 L 1896 175 L 1896 178 L 1891 191 L 1891 194 L 1888 200 L 1888 203 L 1886 206 L 1886 209 L 1880 225 L 1880 228 L 1878 231 L 1878 234 L 1873 247 L 1870 242 L 1869 236 L 1865 228 L 1864 222 L 1859 211 L 1859 208 L 1854 197 L 1854 194 L 1849 183 L 1849 180 L 1847 177 L 1836 144 L 1831 133 L 1831 130 L 1829 127 L 1825 113 L 1821 105 L 1820 99 L 1816 91 L 1815 85 L 1810 74 L 1810 71 L 1803 55 L 1803 52 L 1800 46 L 1789 13 L 1787 10 L 1787 7 L 1784 0 Z M 1728 0 L 1614 0 L 1614 399 L 1623 399 L 1623 10 L 1624 9 L 1729 9 L 1729 1 Z M 1530 0 L 1530 399 L 1606 399 L 1606 1 L 1605 0 Z M 1418 1 L 1418 10 L 1511 10 L 1512 11 L 1512 399 L 1521 399 L 1521 0 L 1466 0 L 1465 1 Z M 1170 2 L 1169 3 L 1164 3 L 1163 4 L 1154 5 L 1150 7 L 1146 7 L 1145 8 L 1137 10 L 1134 12 L 1131 12 L 1126 15 L 1124 15 L 1118 18 L 1116 20 L 1112 21 L 1102 28 L 1102 378 L 1113 384 L 1115 386 L 1117 386 L 1119 388 L 1121 388 L 1130 393 L 1132 393 L 1139 396 L 1142 396 L 1145 398 L 1153 399 L 1157 401 L 1162 401 L 1163 402 L 1167 402 L 1168 403 L 1175 403 L 1176 404 L 1191 404 L 1192 405 L 1212 405 L 1213 404 L 1228 404 L 1229 403 L 1236 403 L 1237 402 L 1247 401 L 1251 399 L 1255 399 L 1256 398 L 1259 398 L 1262 396 L 1265 396 L 1268 394 L 1278 391 L 1300 379 L 1312 369 L 1313 369 L 1327 355 L 1327 354 L 1337 342 L 1341 336 L 1344 329 L 1346 327 L 1347 323 L 1349 321 L 1351 317 L 1351 315 L 1354 310 L 1354 308 L 1356 305 L 1356 303 L 1360 293 L 1360 290 L 1364 279 L 1365 269 L 1367 265 L 1367 258 L 1368 257 L 1368 253 L 1369 252 L 1369 244 L 1370 243 L 1370 229 L 1371 228 L 1371 213 L 1372 212 L 1372 200 L 1371 199 L 1370 167 L 1369 166 L 1369 158 L 1368 157 L 1368 152 L 1367 151 L 1367 144 L 1365 140 L 1364 129 L 1360 118 L 1359 111 L 1357 108 L 1357 105 L 1355 102 L 1352 92 L 1344 76 L 1342 74 L 1340 69 L 1334 60 L 1327 52 L 1327 51 L 1310 34 L 1302 28 L 1296 25 L 1291 21 L 1275 13 L 1270 12 L 1267 10 L 1265 10 L 1261 8 L 1258 8 L 1257 7 L 1254 7 L 1250 5 L 1246 5 L 1241 3 L 1224 2 L 1223 1 L 1215 1 L 1214 0 L 1190 0 L 1189 1 L 1181 1 L 1180 2 Z M 1171 10 L 1180 10 L 1181 9 L 1223 9 L 1224 10 L 1233 10 L 1238 12 L 1243 12 L 1244 13 L 1255 15 L 1256 16 L 1270 20 L 1275 23 L 1277 23 L 1279 25 L 1281 25 L 1283 27 L 1291 31 L 1304 41 L 1305 41 L 1306 43 L 1307 43 L 1319 55 L 1319 56 L 1321 57 L 1321 58 L 1327 65 L 1337 80 L 1337 82 L 1339 84 L 1342 90 L 1342 92 L 1344 94 L 1344 96 L 1347 102 L 1347 104 L 1349 107 L 1350 113 L 1352 116 L 1353 123 L 1355 127 L 1355 131 L 1357 135 L 1357 140 L 1358 141 L 1358 147 L 1359 148 L 1359 152 L 1360 153 L 1360 161 L 1361 162 L 1361 167 L 1362 168 L 1362 183 L 1363 184 L 1363 226 L 1362 227 L 1362 241 L 1361 242 L 1361 246 L 1360 247 L 1360 255 L 1358 260 L 1357 271 L 1355 275 L 1355 279 L 1353 283 L 1352 290 L 1350 293 L 1350 296 L 1347 302 L 1347 304 L 1344 309 L 1344 311 L 1336 327 L 1326 342 L 1321 347 L 1321 348 L 1304 365 L 1303 365 L 1290 375 L 1268 386 L 1266 386 L 1259 389 L 1256 389 L 1253 391 L 1249 391 L 1248 392 L 1245 392 L 1240 394 L 1233 394 L 1228 396 L 1214 396 L 1213 397 L 1191 397 L 1190 396 L 1176 396 L 1175 395 L 1171 395 L 1170 394 L 1164 394 L 1159 392 L 1150 391 L 1147 389 L 1144 389 L 1138 386 L 1136 386 L 1133 384 L 1128 383 L 1126 381 L 1124 381 L 1122 379 L 1115 376 L 1110 372 L 1110 34 L 1113 31 L 1116 30 L 1118 28 L 1134 20 L 1139 19 L 1142 17 L 1145 17 L 1148 15 L 1152 15 L 1153 14 L 1156 14 L 1161 12 L 1166 12 Z M 768 3 L 763 5 L 758 5 L 754 7 L 747 8 L 746 9 L 741 10 L 738 12 L 733 13 L 730 15 L 728 15 L 722 18 L 720 20 L 718 20 L 706 28 L 706 377 L 714 383 L 721 386 L 723 388 L 725 388 L 735 393 L 740 394 L 743 396 L 746 396 L 749 398 L 757 399 L 761 401 L 771 402 L 772 403 L 779 403 L 780 404 L 795 404 L 796 405 L 817 405 L 818 404 L 832 404 L 833 403 L 840 403 L 841 402 L 845 402 L 846 401 L 851 401 L 855 399 L 863 398 L 864 397 L 869 396 L 872 394 L 875 394 L 880 391 L 882 391 L 898 383 L 916 370 L 937 348 L 947 333 L 957 313 L 958 308 L 963 297 L 963 294 L 965 291 L 965 288 L 966 287 L 966 284 L 968 279 L 968 275 L 970 271 L 971 259 L 972 258 L 972 254 L 973 253 L 973 244 L 974 243 L 974 237 L 975 236 L 975 214 L 976 213 L 976 199 L 975 198 L 975 174 L 974 173 L 974 167 L 973 166 L 973 156 L 971 151 L 970 138 L 968 133 L 968 129 L 967 128 L 965 117 L 963 114 L 963 111 L 962 110 L 960 102 L 958 99 L 957 94 L 953 87 L 953 85 L 950 81 L 950 79 L 945 72 L 943 67 L 940 64 L 939 61 L 927 47 L 927 46 L 926 46 L 924 43 L 922 42 L 922 41 L 921 41 L 909 30 L 900 25 L 897 22 L 892 20 L 890 18 L 888 18 L 879 13 L 874 12 L 871 10 L 869 10 L 865 8 L 862 8 L 861 7 L 858 7 L 854 5 L 850 5 L 845 3 L 828 2 L 827 1 L 819 1 L 818 0 L 794 0 L 793 1 L 785 1 L 784 2 Z M 775 10 L 784 10 L 785 9 L 827 9 L 828 10 L 837 10 L 842 12 L 848 12 L 852 14 L 860 15 L 863 17 L 866 17 L 869 19 L 871 19 L 879 23 L 881 23 L 883 25 L 885 25 L 887 27 L 897 32 L 900 35 L 903 36 L 904 38 L 908 40 L 925 57 L 925 58 L 929 62 L 940 78 L 953 106 L 953 109 L 955 112 L 956 119 L 958 122 L 958 126 L 959 127 L 960 134 L 961 135 L 961 140 L 963 145 L 964 159 L 965 160 L 965 167 L 966 168 L 966 183 L 967 184 L 967 226 L 966 227 L 966 241 L 965 242 L 965 248 L 964 249 L 963 262 L 962 263 L 961 271 L 960 272 L 960 277 L 958 280 L 958 284 L 956 287 L 955 294 L 951 302 L 950 307 L 945 316 L 945 318 L 943 320 L 937 332 L 927 345 L 927 346 L 920 353 L 920 354 L 917 356 L 916 358 L 915 358 L 914 360 L 913 360 L 903 369 L 894 375 L 891 376 L 889 378 L 872 386 L 870 386 L 864 389 L 861 389 L 857 391 L 849 392 L 844 394 L 838 394 L 837 395 L 833 395 L 832 396 L 818 396 L 817 397 L 795 397 L 794 396 L 781 396 L 780 395 L 776 395 L 775 394 L 768 394 L 767 393 L 759 392 L 758 391 L 755 391 L 751 389 L 748 389 L 742 386 L 740 386 L 737 384 L 732 383 L 730 381 L 719 376 L 715 373 L 715 33 L 722 28 L 734 22 L 736 22 L 738 20 L 740 20 L 741 19 L 743 19 L 753 15 L 756 15 L 757 14 L 760 14 L 765 12 L 770 12 Z M 393 0 L 393 399 L 402 399 L 403 24 L 564 398 L 574 399 L 574 0 L 565 0 L 564 370 L 402 0 Z M 309 0 L 309 399 L 385 399 L 385 1 L 384 0 Z M 117 0 L 116 1 L 115 187 L 145 187 L 146 188 L 146 389 L 141 391 L 123 391 L 93 386 L 71 378 L 47 363 L 30 346 L 23 336 L 17 322 L 15 320 L 10 299 L 10 277 L 12 271 L 12 265 L 3 265 L 2 267 L 2 271 L 0 276 L 0 304 L 3 317 L 7 325 L 8 330 L 22 352 L 38 368 L 52 378 L 71 388 L 96 396 L 115 399 L 143 399 L 156 397 L 156 208 L 157 207 L 157 179 L 156 178 L 127 178 L 126 177 L 126 87 L 127 86 L 128 9 L 129 8 L 140 8 L 165 12 L 182 18 L 200 28 L 209 35 L 221 47 L 228 57 L 234 69 L 239 89 L 248 89 L 249 88 L 244 66 L 236 50 L 231 43 L 216 28 L 208 22 L 186 10 L 164 3 L 146 0 Z" fill="#D4964A" fill-rule="evenodd" />
</svg>
