<svg xmlns="http://www.w3.org/2000/svg" xmlns:xlink="http://www.w3.org/1999/xlink" width="870" zoomAndPan="magnify" viewBox="0 0 652.5 166.499995" height="222" preserveAspectRatio="xMidYMid meet" version="1.0"><defs><clipPath id="fb4e1871cc"><path d="M 198 46 L 616.617188 46 L 616.617188 105 L 198 105 Z M 198 46 " clip-rule="nonzero"/></clipPath><clipPath id="e78c6bb6f8"><path d="M 350 137 L 426 137 L 426 157.007812 L 350 157.007812 Z M 350 137 " clip-rule="nonzero"/></clipPath><clipPath id="9345e81b25"><path d="M 615 68 L 616.617188 68 L 616.617188 83 L 615 83 Z M 615 68 " clip-rule="nonzero"/></clipPath><clipPath id="38b64aeaa6"><path d="M 35.613281 71 L 40 71 L 40 76 L 35.613281 76 Z M 35.613281 71 " clip-rule="nonzero"/></clipPath></defs><g clip-path="url(#fb4e1871cc)"><path fill="#2e5fed" d="M 602.5625 48.144531 C 606.242188 49.832031 609.191406 52.289062 611.761719 55.398438 C 614.226562 58.941406 616.292969 62.664062 616.695312 67.023438 C 616.832031 69.390625 616.851562 71.757812 616.847656 74.125 C 616.847656 75.382812 616.867188 76.636719 616.886719 77.890625 C 616.921875 82.863281 616.4375 86.691406 614.183594 91.203125 L 613.550781 92.503906 C 612.335938 94.917969 610.902344 96.691406 608.859375 98.460938 L 607.890625 98.460938 L 607.40625 99.914062 C 606.332031 100.550781 605.234375 101.132812 604.109375 101.667969 L 603.183594 102.125 C 598.296875 104.503906 592.886719 104.140625 587.554688 103.785156 C 584.289062 103.179688 581.722656 101.753906 579.152344 99.675781 C 578.105469 98.71875 577.261719 97.667969 576.421875 96.527344 L 575.492188 95.660156 C 572.738281 92.746094 571.109375 88.289062 570.125 84.429688 C 568.664062 77.800781 568.996094 69.878906 570.941406 63.386719 C 572.671875 58.78125 574.867188 54.988281 578.480469 51.605469 C 581.320312 49.375 584.800781 47.53125 588.375 46.808594 C 593.21875 46.292969 597.96875 46.433594 602.5625 48.144531 M 587.011719 59.269531 C 584.988281 61.09375 584.03125 63.503906 583.199219 66.042969 C 581.742188 72.683594 581.808594 79.363281 583.609375 85.929688 C 584.285156 87.964844 584.941406 89.511719 586.285156 91.203125 C 588.230469 92.6875 589.898438 93.484375 592.277344 94.078125 C 594.410156 94.269531 596.113281 93.699219 598.046875 92.824219 C 599.867188 91.773438 601.023438 90.597656 602.078125 88.785156 C 602.839844 87.042969 603.453125 85.277344 604.015625 83.464844 L 604.5 82.011719 C 604.640625 79.847656 604.636719 77.679688 604.652344 75.511719 L 604.695312 73.71875 C 604.722656 69.742188 604.269531 66.285156 602.5625 62.65625 C 601.167969 60.597656 599.796875 58.878906 597.554688 57.714844 C 593.421875 56.226562 590.726562 56.894531 587.011719 59.269531 M 223.957031 47.660156 C 225.875 47.4375 227.808594 47.503906 229.738281 47.507812 L 231.367188 47.484375 L 232.929688 47.484375 L 234.363281 47.476562 C 235.578125 47.660156 235.578125 47.660156 236.417969 48.28125 C 237.058594 49.148438 237.457031 49.929688 237.847656 50.933594 L 238.269531 51.996094 L 238.695312 53.101562 C 239.601562 55.433594 240.542969 57.601562 241.824219 59.757812 C 243.023438 61.9375 243.964844 64.25 244.957031 66.527344 L 245.675781 68.164062 C 246.910156 70.996094 248.105469 73.839844 249.226562 76.71875 C 250.460938 79.878906 251.945312 82.871094 253.484375 85.890625 C 259.8125 98.304688 259.8125 98.304688 260.753906 103.300781 C 258.6875 103.371094 256.621094 103.414062 254.550781 103.453125 L 252.769531 103.511719 L 251.0625 103.539062 L 249.484375 103.574219 L 248.167969 103.300781 C 247.3125 102.203125 247.3125 102.203125 246.714844 100.882812 L 246.238281 99.867188 L 245.832031 98.878906 L 245.382812 97.792969 L 244.929688 96.679688 L 244.457031 95.546875 C 243.324219 92.78125 243.324219 92.78125 243.324219 91.6875 L 216.695312 91.6875 L 211.855469 103.300781 L 199.265625 103.300781 L 198.78125 102.332031 C 199.261719 101.117188 199.785156 99.917969 200.34375 98.738281 L 200.851562 97.644531 C 201.386719 96.484375 201.929688 95.324219 202.472656 94.167969 C 203.179688 92.65625 203.878906 91.148438 204.582031 89.636719 L 205.101562 88.511719 C 206.238281 86.0625 207.296875 83.585938 208.320312 81.085938 C 209.539062 78.191406 210.878906 75.347656 212.195312 72.496094 C 214.78125 66.894531 217.347656 61.285156 219.726562 55.589844 C 222.402344 49.214844 222.402344 49.214844 223.957031 47.660156 M 229.285156 60.238281 L 228.683594 61.695312 L 225.511719 69.40625 L 224.128906 72.761719 L 223.703125 73.796875 L 223.292969 74.792969 L 222.898438 75.753906 C 222.636719 76.378906 222.363281 77 222.082031 77.617188 C 221.34375 79.246094 221.054688 80.183594 221.054688 82.011719 L 238.484375 82.011719 C 238.082031 79.0625 238.082031 79.0625 237.207031 76.398438 L 236.726562 75.203125 L 236.214844 73.96875 L 235.691406 72.679688 C 234.480469 69.726562 233.1875 66.8125 231.816406 63.929688 C 231.246094 62.714844 230.738281 61.488281 230.253906 60.238281 Z M 518.320312 47.175781 L 552.210938 47.660156 C 552.839844 49.539062 552.765625 51.324219 552.757812 53.285156 L 552.761719 54.441406 C 552.757812 55.40625 552.734375 56.371094 552.695312 57.335938 L 552.210938 57.820312 C 551.46875 57.863281 550.722656 57.878906 549.980469 57.875 L 548.539062 57.875 L 546.976562 57.867188 L 545.382812 57.863281 C 543.695312 57.863281 542.007812 57.855469 540.320312 57.851562 C 539.179688 57.847656 538.039062 57.84375 536.898438 57.84375 C 534.09375 57.835938 531.292969 57.828125 528.488281 57.820312 L 528.496094 59.21875 L 528.503906 61.058594 L 528.511719 62.882812 C 528.484375 64.789062 528.304688 66.582031 528.003906 68.464844 L 528.984375 68.429688 C 535.019531 68.316406 541.449219 68.507812 546.886719 71.367188 L 547.9375 71.910156 C 550.828125 73.558594 552.683594 75.703125 554.511719 78.441406 C 555.6875 81.617188 556.222656 84.726562 555.941406 88.109375 C 555.335938 91.503906 554.347656 94.199219 552.21875 96.921875 C 549.488281 99.878906 546.351562 102.003906 542.53125 103.300781 C 535.601562 104.863281 527.597656 104.933594 520.753906 103 C 517.699219 102.011719 514.703125 100.726562 512.027344 98.945312 L 511.542969 97.496094 C 511.890625 96.574219 511.890625 96.574219 512.449219 95.554688 L 513.050781 94.441406 L 513.691406 93.292969 L 514.328125 92.121094 C 514.847656 91.167969 515.371094 90.21875 515.902344 89.269531 C 517.28125 89.566406 518.113281 89.910156 519.382812 90.628906 C 523.179688 92.578125 528.070312 93.675781 532.332031 93.835938 C 535.289062 93.667969 538.085938 92.828125 540.59375 91.265625 C 541.695312 90.09375 542.140625 89.375 542.53125 87.816406 C 542.691406 86.351562 542.792969 85.359375 542.53125 83.945312 C 541.5625 82.34375 540.863281 81.472656 539.253906 80.558594 C 534.304688 78.472656 528.382812 78.976562 523.101562 78.835938 L 520.859375 78.773438 C 519.046875 78.722656 517.230469 78.671875 515.417969 78.625 C 515.703125 73.632812 516.066406 68.648438 516.503906 63.667969 C 516.597656 62.625 516.6875 61.582031 516.777344 60.539062 C 516.835938 59.847656 516.898438 59.160156 516.957031 58.46875 L 517.117188 56.644531 C 517.457031 53.480469 517.902344 50.328125 518.320312 47.175781 " fill-opacity="1" fill-rule="nonzero"/></g><path fill="#2e5fec" d="M 402.816406 60.785156 C 406.640625 62.148438 409.980469 64.050781 412.722656 67.042969 C 415.148438 69.976562 416.695312 73.003906 417.617188 76.6875 L 417.617188 84.914062 L 385.179688 84.914062 C 386.261719 88.929688 386.261719 88.929688 387.660156 90.628906 C 389.535156 92.054688 391.105469 93.046875 393.410156 93.625 C 397.152344 94.078125 400.972656 94.085938 404.515625 92.714844 C 405.765625 92.140625 406.46875 91.699219 407.453125 90.71875 C 408.320312 90.742188 408.320312 90.742188 409.386719 91.203125 C 410.652344 92.347656 410.652344 92.347656 411.960938 93.773438 L 412.644531 94.488281 C 413.285156 95.191406 413.285156 95.191406 414.230469 96.527344 C 414.234375 97.574219 414.234375 97.574219 413.746094 98.460938 C 411.390625 100.921875 408.230469 102.285156 405.03125 103.300781 C 399.683594 104.511719 393.394531 104.386719 388.117188 102.9375 C 385.148438 101.933594 382.480469 100.816406 380.339844 98.460938 L 378.886719 97.496094 L 378.886719 96.527344 L 377.433594 96.042969 C 375.289062 93.132812 373.480469 89.765625 372.746094 86.214844 C 372.3125 81.128906 372.613281 76.453125 374.761719 71.730469 C 376.472656 68.605469 378.320312 66.089844 381.308594 64.109375 C 387.828125 60.363281 395.394531 58.574219 402.816406 60.785156 M 388.085938 71.367188 C 387.460938 72.367188 387.460938 72.367188 387.117188 73.300781 L 386.148438 73.300781 L 384.695312 77.65625 C 386.078125 78.746094 386.078125 78.746094 387.710938 78.742188 L 389.632812 78.734375 L 390.667969 78.734375 C 391.394531 78.734375 392.121094 78.730469 392.84375 78.722656 C 393.941406 78.714844 395.039062 78.714844 396.132812 78.714844 C 399.613281 78.707031 403.035156 78.628906 406.484375 78.140625 C 405.863281 75.921875 405.363281 74.179688 403.851562 72.394531 L 402.609375 71.367188 L 401.640625 70.550781 C 400.175781 69.589844 398.761719 69.023438 397.019531 68.769531 C 393.617188 68.683594 390.863281 69.304688 388.085938 71.367188 " fill-opacity="1" fill-rule="nonzero"/><path fill="#2e5fed" d="M 291.042969 60.058594 L 292.582031 60.058594 C 297.785156 60.132812 302.417969 61.128906 307.230469 63.140625 C 306.921875 65.238281 306.171875 66.949219 305.265625 68.855469 L 304.460938 70.558594 L 303.84375 71.851562 C 302.007812 71.535156 300.277344 71.023438 298.503906 70.464844 C 294.753906 69.289062 291.574219 68.371094 287.65625 69.195312 C 286.519531 69.507812 285.523438 69.859375 284.476562 70.398438 C 283.34375 71.460938 283.34375 71.460938 283.023438 72.820312 C 283.082031 74.148438 283.082031 74.148438 283.992188 75.238281 C 287.121094 76.628906 290.324219 77.257812 293.675781 77.898438 C 297.042969 78.542969 300.1875 79.25 303.359375 80.558594 L 303.359375 81.527344 L 304.175781 81.617188 C 305.800781 82.1875 306.601562 83.140625 307.714844 84.429688 C 308.953125 86.898438 308.882812 89.242188 308.832031 91.957031 C 308.667969 93.792969 308.375 95.082031 307.425781 96.652344 C 305.757812 98.726562 303.78125 100.304688 301.542969 101.726562 C 295.214844 104.160156 288.5 104.511719 281.785156 103.621094 C 277.804688 102.917969 274.046875 101.75 270.4375 99.914062 C 270.765625 96.699219 272.046875 93.875 273.824219 91.203125 C 275.511719 91.492188 276.953125 91.941406 278.515625 92.625 C 282.8125 94.371094 287.105469 95.007812 291.738281 94.589844 C 293.261719 94.253906 294.710938 93.859375 296.097656 93.140625 C 296.761719 91.8125 296.640625 90.734375 296.582031 89.269531 L 296.097656 88.300781 C 294.824219 87.96875 294.824219 87.96875 293.269531 87.746094 L 291.496094 87.449219 C 290.265625 87.253906 289.035156 87.058594 287.804688 86.867188 C 283.507812 86.148438 279.371094 85.367188 275.6875 82.941406 C 272.242188 79.75 272.242188 79.75 271.34375 77.597656 C 270.804688 75.207031 270.644531 73.453125 271.238281 71.058594 C 271.953125 68.796875 272.75 66.890625 274.371094 65.136719 C 277.210938 62.609375 280.523438 61.199219 284.214844 60.429688 C 286.488281 60.078125 288.75 60.054688 291.042969 60.058594 M 357.585938 63.140625 L 358.066406 64.59375 C 357.5625 65.855469 357.007812 67.09375 356.402344 68.3125 L 355.90625 69.339844 C 355.5 70.179688 355.09375 71.015625 354.679688 71.851562 C 352.75 71.503906 350.921875 70.972656 349.050781 70.398438 C 344.042969 68.949219 344.042969 68.949219 338.90625 69.230469 C 337.855469 69.578125 336.816406 69.964844 335.796875 70.398438 L 334.34375 70.882812 L 333.859375 75.238281 C 337.210938 76.4375 340.535156 77.222656 344.027344 77.898438 C 352.648438 79.574219 352.648438 79.574219 355.417969 81.339844 L 356.3125 82.164062 L 357.230469 82.972656 C 358.289062 84.203125 358.90625 85.34375 359.519531 86.851562 C 359.863281 89.496094 359.878906 92.207031 359.21875 94.804688 C 358.269531 96.960938 356.753906 98.621094 354.941406 100.105469 C 351.253906 102.433594 346.835938 103.621094 342.5 103.835938 C 335 104.035156 328.097656 103.324219 321.273438 99.914062 C 321.585938 97.816406 322.332031 96.105469 323.238281 94.199219 L 324.042969 92.496094 L 324.660156 91.203125 L 326.113281 91.203125 L 326.113281 92.171875 L 327.292969 92.324219 C 328.667969 92.589844 329.828125 92.917969 331.136719 93.382812 C 333.160156 94.074219 335.113281 94.464844 337.25 94.589844 L 338.523438 94.667969 C 341.574219 94.765625 344.132812 94.394531 346.933594 93.140625 L 347.417969 92.65625 C 347.453125 91.921875 347.457031 91.183594 347.449219 90.449219 L 347.417969 88.300781 C 344.8125 87.773438 342.203125 87.265625 339.589844 86.777344 L 336.464844 86.183594 L 334.878906 85.898438 C 331.355469 85.21875 328.460938 84.304688 325.53125 82.21875 C 323.953125 80.691406 322.957031 79.324219 322.242188 77.234375 C 321.660156 74.832031 321.585938 72.789062 322.242188 70.398438 C 323.007812 68.238281 323.90625 66.34375 325.511719 64.679688 C 326.480469 63.898438 327.453125 63.269531 328.535156 62.65625 L 329.519531 62.085938 C 337.722656 58.125 349.613281 59.105469 357.585938 63.140625 M 436.015625 51.046875 C 438.023438 51.03125 440.03125 51.023438 442.039062 51.015625 L 443.773438 51.003906 L 445.425781 51 L 446.953125 50.992188 L 448.121094 51.046875 L 448.605469 51.53125 C 448.644531 52.285156 448.65625 53.042969 448.652344 53.800781 L 448.648438 55.183594 L 448.636719 56.640625 L 448.628906 58.101562 C 448.621094 59.296875 448.613281 60.496094 448.605469 61.691406 L 450.058594 61.207031 C 450.738281 61.167969 451.421875 61.152344 452.105469 61.160156 L 453.28125 61.164062 L 454.503906 61.175781 L 455.746094 61.183594 C 456.753906 61.1875 457.761719 61.195312 458.769531 61.207031 C 459.375 63.015625 459.328125 64.707031 459.316406 66.589844 L 459.320312 67.675781 C 459.316406 68.585938 459.292969 69.492188 459.253906 70.398438 L 458.769531 70.882812 C 458.015625 70.921875 457.257812 70.9375 456.5 70.929688 L 455.113281 70.925781 L 453.65625 70.914062 L 452.195312 70.90625 C 450.996094 70.902344 449.800781 70.894531 448.605469 70.882812 C 448.636719 73.8125 448.679688 76.738281 448.730469 79.664062 C 448.746094 80.660156 448.761719 81.65625 448.773438 82.652344 C 448.789062 84.085938 448.8125 85.515625 448.839844 86.949219 L 448.851562 88.296875 C 448.898438 90.707031 448.898438 90.707031 449.738281 92.925781 C 450.5625 93.738281 450.5625 93.738281 451.992188 94.046875 C 454.449219 94.285156 456.867188 93.664062 459.253906 93.140625 C 459.652344 94.136719 460.042969 95.132812 460.4375 96.132812 L 461.097656 97.816406 C 461.585938 99.175781 461.929688 100.433594 462.160156 101.847656 C 458.992188 103.382812 456.113281 103.972656 452.628906 103.964844 L 451.601562 103.96875 C 448.113281 103.894531 444.847656 103.175781 441.828125 101.363281 C 439.730469 99.578125 438.195312 97.539062 436.984375 95.074219 C 436.070312 91.921875 435.878906 88.796875 435.921875 85.53125 L 435.925781 84.25 C 435.929688 82.917969 435.941406 81.589844 435.957031 80.257812 C 435.960938 79.347656 435.964844 78.4375 435.96875 77.527344 C 435.980469 75.3125 435.996094 73.097656 436.015625 70.882812 L 434.78125 70.933594 L 433.171875 70.972656 L 431.570312 71.023438 L 430.207031 70.882812 C 429.238281 69.433594 429.238281 69.433594 429.109375 67.734375 C 429.105469 67.082031 429.109375 66.425781 429.117188 65.773438 L 429.105469 64.769531 C 429.109375 63.902344 429.171875 63.039062 429.238281 62.175781 L 430.207031 61.207031 C 432.148438 61.070312 434.066406 61.164062 436.015625 61.207031 Z M 471.84375 47.175781 L 495.082031 47.660156 L 495.082031 103.300781 L 482.496094 103.300781 C 482.484375 97.585938 482.476562 91.867188 482.46875 86.152344 C 482.46875 83.5 482.464844 80.847656 482.457031 78.191406 C 482.453125 75.632812 482.449219 73.070312 482.449219 70.511719 C 482.449219 69.535156 482.445312 68.558594 482.445312 67.578125 C 482.441406 66.210938 482.4375 64.84375 482.441406 63.476562 L 482.433594 62.246094 C 482.4375 60.644531 482.46875 59.347656 482.980469 57.820312 L 481.964844 57.828125 C 480.457031 57.835938 478.949219 57.84375 477.441406 57.847656 L 475.84375 57.863281 L 474.328125 57.867188 L 472.921875 57.875 L 471.84375 57.820312 L 471.359375 57.335938 C 471.316406 56.621094 471.292969 55.90625 471.296875 55.1875 L 471.292969 53.878906 L 471.300781 52.496094 L 471.292969 51.117188 L 471.296875 49.804688 L 471.296875 48.59375 L 471.359375 47.660156 Z M 471.84375 47.175781 " fill-opacity="1" fill-rule="nonzero"/><path fill="#2e5fec" d="M 157.144531 9.917969 C 159.234375 10.78125 160.6875 11.972656 162.199219 13.640625 C 163.21875 15.796875 163.523438 17.703125 163.441406 20.078125 C 162.984375 21.894531 162.984375 21.894531 161.988281 23.464844 C 160.351562 24.96875 158.773438 26.148438 156.660156 26.855469 C 155.085938 27.007812 153.769531 27.023438 152.257812 26.503906 C 150.652344 25.761719 149.507812 25.027344 148.25 23.769531 C 147.183594 22.046875 146.546875 20.628906 146.445312 18.578125 C 146.519531 16.914062 146.769531 15.632812 147.558594 14.152344 C 148.644531 12.601562 149.699219 11.503906 151.246094 10.402344 C 153.292969 9.761719 155.019531 9.539062 157.144531 9.917969 " fill-opacity="1" fill-rule="nonzero"/><path fill="#2f5fec" d="M 167.785156 27.265625 C 169.671875 27.40625 170.90625 28.117188 172.457031 29.152344 C 173.808594 30.429688 174.421875 31.394531 175.058594 33.144531 C 175.351562 35.128906 175.183594 36.660156 174.515625 38.558594 C 173.261719 40.4375 171.78125 41.796875 169.734375 42.820312 C 168.101562 43 166.523438 43 164.890625 42.820312 C 163.21875 41.984375 162.195312 41.097656 160.898438 39.765625 C 159.847656 38.152344 159.371094 36.992188 159.082031 35.078125 C 159.300781 33.472656 159.746094 32.140625 160.535156 30.722656 C 162.726562 28.308594 164.472656 27.210938 167.785156 27.265625 " fill-opacity="1" fill-rule="nonzero"/><path fill="#2e5fed" d="M 176.996094 47.175781 C 178.707031 48.152344 179.777344 49.40625 180.871094 51.046875 C 181.015625 52.371094 181.015625 52.371094 181.019531 53.886719 L 181.042969 55.394531 C 180.871094 56.851562 180.871094 56.851562 180.242188 58.175781 C 179.175781 59.589844 178.226562 60.136719 176.632812 60.847656 C 175.128906 61.34375 173.820312 61.53125 172.238281 61.457031 C 171.003906 61.164062 170.300781 60.726562 169.308594 59.9375 C 167.921875 58.5625 166.992188 57.265625 166.34375 55.398438 C 166.101562 53.765625 166.101562 53.765625 166.34375 52.011719 C 166.957031 50.539062 167.707031 49.339844 168.765625 48.144531 C 171.421875 46.421875 174 46.355469 176.996094 47.175781 " fill-opacity="1" fill-rule="nonzero"/><path fill="#2f5fec" d="M 177.964844 67.496094 C 179.601562 68.675781 180.933594 70.039062 181.835938 71.851562 C 181.976562 73.683594 181.917969 75.011719 181.292969 76.75 C 180.449219 78.042969 179.648438 79.167969 178.417969 80.113281 C 176.785156 80.894531 175.246094 80.910156 173.460938 80.828125 C 172.058594 80.539062 171.300781 80.171875 170.1875 79.289062 C 169.222656 78.300781 168.6875 77.507812 168.039062 76.265625 C 167.730469 74.347656 167.707031 72.75 168.28125 70.882812 C 169.160156 69.34375 170.269531 68.261719 171.761719 67.285156 C 173.914062 66.855469 175.847656 66.863281 177.964844 67.496094 " fill-opacity="1" fill-rule="nonzero"/><path fill="#2e5fed" d="M 478.136719 137.652344 L 480.074219 137.652344 L 480.074219 139.105469 L 481.496094 138.378906 C 483.296875 137.613281 484.871094 137.449219 486.816406 137.503906 C 488.175781 137.707031 489.097656 138.375 490.242188 139.105469 C 491.953125 138.984375 492.664062 138.621094 494.113281 137.652344 C 495.746094 137.410156 497.320312 137.441406 498.957031 137.652344 C 500.824219 138.621094 501.667969 139.296875 502.828125 141.039062 C 503.519531 144.472656 503.5 148.199219 503.3125 151.683594 L 502.828125 152.652344 L 500.890625 152.652344 L 500.871094 151.800781 C 500.832031 150.523438 500.789062 149.246094 500.742188 147.964844 L 500.707031 146.628906 C 500.632812 144.726562 500.523438 143.253906 499.777344 141.484375 C 499.035156 140.515625 499.035156 140.515625 498.050781 140.164062 C 496.3125 140 495.304688 139.980469 493.660156 140.675781 L 492.660156 141.523438 C 492.222656 142.84375 492.089844 143.761719 492.023438 145.128906 L 491.964844 146.371094 L 491.90625 147.664062 L 491.84375 148.972656 C 491.789062 150.039062 491.742188 151.101562 491.695312 152.167969 L 489.273438 152.652344 L 489.242188 151.75 C 489.199219 150.398438 489.144531 149.046875 489.089844 147.691406 C 489.078125 147.226562 489.0625 146.757812 489.046875 146.273438 L 488.988281 144.902344 L 488.941406 143.644531 C 488.777344 142.410156 488.480469 141.605469 487.820312 140.554688 C 486.789062 139.964844 486.789062 139.964844 485.21875 139.953125 C 483.5 139.945312 483.5 139.945312 482.3125 140.707031 C 481.410156 141.527344 481.410156 141.527344 481.042969 142.976562 C 480.972656 143.691406 480.921875 144.410156 480.890625 145.128906 L 480.828125 146.371094 L 480.769531 147.664062 L 480.707031 148.972656 C 480.65625 150.039062 480.605469 151.101562 480.558594 152.167969 L 478.136719 152.652344 C 478.058594 150.59375 477.980469 148.535156 477.902344 146.476562 C 477.878906 145.777344 477.851562 145.074219 477.824219 144.375 C 477.785156 143.371094 477.746094 142.363281 477.710938 141.359375 L 477.644531 139.523438 L 477.652344 138.136719 Z M 169.550781 86.546875 C 171.320312 86.875 172.578125 87.332031 174.089844 88.300781 L 174.574219 89.753906 L 176.027344 90.238281 C 176.65625 91.492188 176.699219 92.636719 176.671875 94.027344 C 176.496094 95.183594 176.203125 95.945312 175.605469 96.949219 C 174.941406 97.777344 174.941406 97.777344 174.089844 98.460938 C 172.035156 99.25 170.117188 99.554688 167.933594 99.238281 C 166.828125 98.945312 166.828125 98.945312 166.070312 98.371094 L 165.375 97.496094 L 164.285156 96.222656 C 163.480469 94.671875 163.273438 94.113281 163.320312 92.445312 C 163.546875 91.066406 163.859375 90.324219 164.707031 89.203125 C 166.285156 87.6875 167.367188 86.925781 169.550781 86.546875 " fill-opacity="1" fill-rule="nonzero"/><path fill="#2e5fee" d="M 304.8125 132.816406 C 305.992188 132.84375 305.992188 132.84375 307.230469 133.296875 C 308.683594 135.382812 309.695312 137.75 310.773438 140.042969 L 311.351562 141.265625 C 315.945312 151.066406 315.945312 151.066406 315.945312 152.652344 C 314.859375 152.621094 314.859375 152.621094 313.527344 152.167969 C 312.675781 151.089844 312.1875 150.039062 311.589844 148.78125 L 311.589844 147.8125 C 306.25 147.332031 306.25 147.332031 300.9375 147.8125 C 299.605469 148.808594 299.605469 148.808594 298.972656 150.234375 L 298.53125 151.59375 L 298.035156 152.652344 C 296.765625 152.804688 296.765625 152.804688 295.613281 152.652344 C 296.488281 149.777344 297.707031 147.058594 298.910156 144.304688 L 299.535156 142.859375 C 303.21875 134.40625 303.21875 134.40625 304.8125 132.816406 M 305.296875 136.203125 C 304.738281 137.371094 304.183594 138.539062 303.632812 139.710938 L 303.152344 140.710938 L 302.695312 141.683594 L 302.273438 142.574219 C 301.886719 143.511719 301.605469 144.398438 301.421875 145.394531 L 301.90625 145.878906 C 303.210938 145.914062 304.503906 145.921875 305.808594 145.910156 L 306.921875 145.902344 C 307.832031 145.894531 308.742188 145.886719 309.652344 145.878906 L 310.136719 144.425781 C 309.894531 143.476562 309.894531 143.476562 309.441406 142.484375 L 308.976562 141.375 L 308.472656 140.222656 L 307.976562 139.054688 C 307.570312 138.101562 307.160156 137.152344 306.75 136.203125 Z M 305.296875 136.203125 " fill-opacity="1" fill-rule="nonzero"/><path fill="#2f5fec" d="M 161.503906 104.882812 C 162.679688 105.3125 163.28125 105.835938 164.136719 106.746094 C 165.082031 108.011719 165.433594 108.820312 165.890625 110.375 C 165.859375 112.007812 165.859375 112.007812 165.285156 113.308594 L 164.40625 114.429688 L 163.683594 115.546875 C 162.472656 116.363281 162.472656 116.363281 161.246094 116.570312 C 159.820312 116.636719 158.554688 116.609375 157.144531 116.363281 C 155.585938 115.1875 154.832031 114.109375 153.757812 112.492188 C 153.589844 111.035156 153.496094 110.035156 153.757812 108.621094 C 154.425781 107.359375 155.097656 106.730469 156.175781 105.71875 C 157.898438 104.652344 159.496094 104.558594 161.503906 104.882812 " fill-opacity="1" fill-rule="nonzero"/><path fill="#2e5fed" d="M 400.066406 132.695312 L 401.847656 132.65625 C 403.710938 132.828125 404.875 133.332031 406.484375 134.265625 L 406.484375 135.71875 C 405.796875 135.648438 405.109375 135.578125 404.425781 135.507812 L 403.269531 135.386719 C 402.125 135.234375 402.125 135.234375 401.140625 134.933594 C 400.171875 134.679688 400.171875 134.679688 399.167969 135.003906 L 398.160156 135.414062 L 397.140625 135.820312 C 396.320312 136.144531 396.320312 136.144531 395.832031 136.6875 C 395.96875 137.816406 396.132812 138.945312 396.316406 140.074219 L 398.136719 140.625 L 400.523438 141.371094 C 400.917969 141.492188 401.3125 141.609375 401.71875 141.730469 C 403.628906 142.339844 404.925781 142.890625 406.503906 144.164062 C 407.453125 145.394531 407.453125 145.394531 407.757812 146.394531 C 407.695312 148.148438 407.546875 149.105469 406.632812 150.65625 C 405.4375 151.753906 404.628906 152.148438 403.09375 152.652344 C 400.660156 152.945312 398.285156 152.976562 395.9375 152.21875 C 394.90625 151.757812 393.910156 151.273438 392.925781 150.71875 L 392.925781 148.78125 L 393.710938 149.097656 C 396.546875 150.160156 399.101562 150.613281 402.125 150.234375 C 403.652344 149.804688 403.652344 149.804688 404.546875 148.78125 C 404.75 147.269531 404.75 147.269531 404.546875 145.878906 L 403.535156 145.523438 C 395.132812 142.527344 395.132812 142.527344 393.410156 140.554688 C 392.925781 139.589844 392.925781 139.589844 392.898438 138.609375 C 392.988281 137.441406 393.109375 136.367188 393.410156 135.234375 C 395.542969 133.046875 397.082031 132.730469 400.066406 132.695312 M 467.003906 137.652344 C 468.945312 138.328125 470.222656 139.394531 471.570312 140.949219 C 472.328125 142.492188 472.328125 142.492188 472.328125 145.878906 L 460.222656 145.878906 L 461.191406 149.75 C 465.625 150.320312 465.625 150.320312 469.90625 149.265625 L 470.875 149.75 C 470.753906 150.65625 470.753906 150.65625 470.390625 151.683594 C 469.304688 152.390625 468.496094 152.648438 467.203125 152.796875 C 465.125 152.808594 463.441406 152.761719 461.464844 152.078125 C 459.710938 150.839844 458.675781 149.523438 457.683594 147.632812 C 457.199219 145.941406 457.109375 144.734375 457.320312 142.976562 C 457.945312 141.519531 458.710938 140.308594 459.738281 139.105469 C 461.996094 137.464844 464.296875 137.234375 467.003906 137.652344 M 461.433594 140.648438 L 460.222656 142.007812 L 460.222656 144.425781 L 469.421875 144.425781 L 469.90625 142.492188 C 469.042969 141.210938 468.394531 140.285156 467.003906 139.589844 C 464.75 139.363281 463.277344 139.246094 461.433594 140.648438 " fill-opacity="1" fill-rule="nonzero"/><path fill="#2f5fec" d="M 146.011719 119.265625 C 147.609375 120.324219 148.636719 121.214844 149.613281 122.867188 C 149.964844 124.472656 149.882812 125.429688 149.398438 127.007812 C 148.402344 128.613281 148.402344 128.613281 146.980469 129.910156 C 145.644531 130.4375 144.527344 130.546875 143.105469 130.394531 C 141.699219 130.015625 140.746094 129.492188 139.714844 128.460938 C 138.847656 127.042969 138.390625 125.769531 138.265625 124.105469 C 138.632812 122.722656 139.246094 121.777344 140.199219 120.71875 C 142.070312 119.15625 143.613281 118.929688 146.011719 119.265625 " fill-opacity="1" fill-rule="nonzero"/><g clip-path="url(#e78c6bb6f8)"><path fill="#2e5fed" d="M 360.003906 137.652344 C 361.699219 138.378906 361.699219 138.378906 362.910156 139.105469 L 362.910156 140.074219 L 363.839844 140.417969 L 364.847656 141.039062 C 365.265625 142.070312 365.265625 142.070312 365.480469 143.246094 L 365.71875 144.429688 L 365.816406 145.394531 L 365.332031 145.878906 C 364.46875 145.921875 363.605469 145.929688 362.742188 145.925781 L 361.15625 145.921875 L 359.492188 145.910156 L 357.816406 145.902344 C 356.449219 145.898438 355.078125 145.890625 353.710938 145.878906 L 354.679688 149.75 C 355.605469 149.855469 356.535156 149.957031 357.464844 150.050781 L 359.027344 150.222656 C 360.464844 150.332031 360.464844 150.332031 361.578125 149.75 L 362.425781 149.265625 C 363.515625 149.445312 363.515625 149.445312 364.363281 149.75 C 364.273438 150.65625 364.273438 150.65625 363.878906 151.683594 C 361.644531 152.804688 359.574219 152.9375 357.109375 152.902344 C 355.648438 152.652344 355.648438 152.652344 354.441406 151.980469 C 353.046875 150.804688 352.003906 149.636719 351.046875 148.085938 C 350.710938 146.355469 350.585938 144.71875 350.804688 142.976562 C 351.457031 141.191406 352.074219 140.246094 353.46875 138.953125 C 355.542969 137.554688 357.558594 137.375 360.003906 137.652344 M 355.648438 140.074219 C 354.507812 140.929688 354.507812 140.929688 353.710938 142.007812 C 353.285156 143.015625 353.285156 143.015625 353.226562 143.941406 L 353.710938 144.425781 C 354.398438 144.464844 355.082031 144.480469 355.769531 144.472656 L 357.023438 144.46875 L 358.339844 144.457031 L 359.664062 144.449219 C 360.746094 144.445312 361.828125 144.4375 362.910156 144.425781 L 363.394531 142.976562 C 362.878906 141.710938 362.878906 141.710938 361.941406 140.554688 C 360.75 139.664062 360.75 139.664062 359.519531 139.105469 C 358.078125 139.105469 356.984375 139.539062 355.648438 140.074219 M 410.355469 137.652344 L 412.777344 137.652344 C 414.511719 140.960938 416.042969 144.21875 417.203125 147.773438 L 417.617188 148.78125 L 418.585938 149.265625 L 418.890625 147.964844 C 419.90625 144.367188 421.742188 140.980469 423.429688 137.652344 L 425.847656 137.652344 C 424.921875 140.59375 423.824219 143.464844 422.550781 146.273438 L 422.042969 147.40625 C 418.167969 155.972656 418.167969 155.972656 417.132812 157.007812 C 415.996094 157.042969 414.855469 157.046875 413.714844 157.039062 L 411.824219 157.023438 L 410.355469 157.007812 L 410.355469 156.039062 L 411.382812 155.984375 L 412.714844 155.886719 L 414.042969 155.804688 L 415.199219 155.554688 L 416.167969 154.105469 C 416.136719 150.433594 414.5625 147.5 412.988281 144.246094 C 412.492188 143.203125 411.996094 142.164062 411.503906 141.121094 L 410.835938 139.734375 C 410.355469 138.621094 410.355469 138.621094 410.355469 137.652344 " fill-opacity="1" fill-rule="nonzero"/></g><path fill="#04f3f5" d="M 77.792969 92.355469 C 78.714844 92.65625 78.714844 92.65625 80.164062 93.625 C 81.132812 95.074219 81.132812 95.074219 81.296875 96.167969 C 81.34375 99.011719 81.34375 99.011719 80.648438 100.398438 L 79.683594 100.398438 L 79.199219 101.847656 C 77.746094 102.816406 77.746094 102.816406 76.082031 102.96875 C 74.355469 102.816406 74.355469 102.816406 73.175781 102.152344 L 72.417969 101.363281 L 72.417969 100.398438 L 71.453125 100.398438 C 70.808594 99.109375 70.867188 97.929688 70.898438 96.511719 C 70.96875 95.558594 70.96875 95.558594 71.269531 94.441406 C 71.933594 93.625 71.933594 93.625 73.207031 92.746094 C 74.945312 92.136719 76.003906 92.023438 77.792969 92.355469 " fill-opacity="1" fill-rule="nonzero"/><path fill="#2e5fee" d="M 438.980469 138.136719 L 439.890625 138.621094 L 439.40625 140.554688 L 438.59375 140.320312 C 437.363281 140.050781 436.246094 139.992188 434.988281 139.980469 L 433.710938 139.960938 L 432.628906 140.074219 L 431.660156 141.039062 L 431.660156 142.976562 L 433.304688 143.453125 L 435.441406 144.09375 L 436.523438 144.40625 L 437.570312 144.722656 L 438.53125 145.007812 C 439.570312 145.46875 440.140625 145.964844 440.859375 146.847656 C 441.101562 148.238281 441.101562 148.238281 440.859375 149.75 C 439.804688 150.996094 438.929688 151.921875 437.46875 152.652344 C 432.804688 153.015625 432.804688 153.015625 430.628906 152.328125 C 429.84375 151.925781 429.84375 151.925781 428.753906 151.199219 L 428.753906 149.75 L 430.175781 149.992188 C 431.59375 150.1875 433.015625 150.308594 434.441406 150.355469 L 435.523438 150.390625 L 436.5 150.234375 C 437.355469 149.542969 437.355469 149.542969 437.953125 148.78125 L 437.46875 147.332031 C 435.945312 146.773438 435.945312 146.773438 434.140625 146.363281 C 430.925781 145.570312 430.925781 145.570312 429.777344 144.710938 C 429.238281 143.941406 429.238281 143.941406 428.785156 142.308594 L 428.753906 140.554688 C 429.570312 139.164062 429.570312 139.164062 430.691406 138.136719 C 433.308594 137.253906 436.375 137.304688 438.980469 138.136719 M 341.363281 137.5625 L 342.742188 137.542969 C 344.058594 137.65625 344.839844 137.949219 345.964844 138.621094 L 345.964844 140.074219 L 344.410156 140.039062 C 343.738281 140.027344 343.066406 140.019531 342.394531 140.011719 C 342.054688 140.003906 341.71875 139.996094 341.367188 139.988281 C 340.480469 139.980469 339.589844 140.023438 338.703125 140.074219 L 337.734375 141.039062 L 337.734375 142.976562 L 339.378906 143.453125 L 341.515625 144.09375 L 342.597656 144.40625 L 343.644531 144.722656 L 344.605469 145.007812 C 345.652344 145.472656 346.21875 145.949219 346.933594 146.847656 C 347.175781 148.507812 347.175781 148.507812 346.933594 150.234375 C 345.851562 151.3125 344.898438 151.976562 343.542969 152.652344 C 340.859375 152.863281 338.183594 153.019531 335.675781 151.925781 L 334.34375 151.199219 L 334.828125 149.75 L 336.160156 149.992188 C 338.769531 150.371094 341.398438 150.273438 344.027344 150.234375 L 344.027344 147.332031 C 343.527344 147.21875 343.023438 147.105469 342.507812 146.992188 C 341.84375 146.832031 341.179688 146.671875 340.519531 146.511719 L 339.515625 146.296875 C 338.542969 146.054688 338.542969 146.054688 336.765625 145.394531 C 335.5625 144.226562 335.5625 144.226562 334.828125 142.976562 C 334.859375 141.222656 334.859375 141.222656 335.3125 139.589844 C 335.949219 138.679688 335.949219 138.679688 336.765625 138.136719 C 338.308594 137.648438 339.75 137.574219 341.363281 137.5625 " fill-opacity="1" fill-rule="nonzero"/><path fill="#2f5fec" d="M 125.980469 128.15625 C 127.613281 128.460938 127.613281 128.460938 128.972656 129.308594 C 130.621094 131 130.621094 131 131 132.332031 C 130.972656 133.996094 130.972656 133.996094 130.515625 135.71875 C 129.550781 137.140625 129.550781 137.140625 128.097656 138.136719 C 126.570312 138.476562 125.261719 138.492188 123.738281 138.136719 C 122.40625 137.082031 121.589844 136.265625 120.835938 134.75 C 120.59375 133.179688 120.59375 133.179688 120.835938 131.363281 C 122.234375 129.457031 123.65625 128.558594 125.980469 128.15625 " fill-opacity="1" fill-rule="nonzero"/><path fill="#2e5fee" d="M 519.289062 138.621094 L 519.289062 140.554688 L 518.351562 140.3125 C 517.121094 140.109375 515.878906 139.988281 514.628906 139.953125 L 513.523438 139.914062 C 512.476562 140 512.476562 140 511.652344 140.683594 L 511.058594 141.523438 L 511.058594 143.460938 L 512.105469 143.621094 C 517.582031 144.527344 517.582031 144.527344 519.773438 145.878906 C 520.621094 147.480469 520.621094 147.480469 520.742188 149.265625 C 520.082031 150.5 519.359375 151.175781 518.320312 152.167969 C 516.5625 153.046875 514.554688 152.773438 512.621094 152.765625 C 511.261719 152.667969 510.40625 152.535156 509.214844 151.925781 L 508.15625 151.199219 L 509.125 149.265625 L 510.304688 149.75 C 512.328125 150.316406 514.296875 150.601562 516.386719 150.234375 C 517.257812 149.601562 517.257812 149.601562 517.835938 148.78125 L 517.835938 147.8125 L 516.988281 147.53125 C 516.203125 147.269531 515.417969 147.007812 514.636719 146.742188 C 513.722656 146.441406 512.800781 146.171875 511.875 145.910156 C 510.574219 145.394531 510.574219 145.394531 509.425781 144.578125 C 508.640625 143.460938 508.640625 143.460938 508.398438 141.765625 C 508.640625 140.074219 508.640625 140.074219 509.484375 138.921875 C 512.394531 136.824219 516.113281 137.351562 519.289062 138.621094 M 329.050781 138.136719 L 329.988281 138.621094 L 329.988281 140.554688 L 329.078125 140.3125 C 326.960938 139.976562 324.867188 140.035156 322.726562 140.074219 L 321.757812 142.492188 L 322.726562 143.460938 C 324.304688 143.847656 325.890625 144.140625 327.488281 144.4375 C 329.019531 144.910156 329.019531 144.910156 330.167969 145.824219 C 330.957031 146.847656 330.957031 146.847656 331.257812 148.507812 C 330.957031 150.234375 330.957031 150.234375 329.898438 151.65625 C 328.753906 152.480469 327.972656 152.664062 326.558594 152.851562 C 322.015625 152.972656 322.015625 152.972656 319.910156 151.925781 L 318.851562 151.199219 L 319.335938 149.265625 L 320.726562 149.75 C 322.972656 150.398438 325.246094 150.425781 327.566406 150.234375 L 328.050781 149.75 C 328.070312 148.941406 328.070312 148.136719 328.050781 147.332031 C 326.273438 146.328125 324.789062 146.179688 322.785156 146.046875 C 321.757812 145.878906 321.757812 145.878906 320.304688 144.910156 L 320.304688 143.941406 L 319.335938 143.941406 C 318.941406 142.671875 318.941406 142.671875 318.851562 141.039062 C 319.910156 139.4375 319.910156 139.4375 321.273438 138.136719 C 323.753906 137.28125 326.574219 137.328125 329.050781 138.136719 " fill-opacity="1" fill-rule="nonzero"/><path fill="#04f3f5" d="M 69 82.011719 C 70.484375 82.496094 70.484375 82.496094 72.117188 83.464844 C 73.386719 84.914062 73.386719 84.914062 73.621094 85.992188 C 73.660156 87.160156 73.664062 88.132812 73.386719 89.269531 C 72.707031 90.128906 72.707031 90.128906 71.933594 90.71875 L 70.96875 90.71875 L 70.96875 91.6875 C 70 92.171875 70 92.171875 68.425781 92.414062 L 66.609375 92.171875 C 65.40625 91.199219 64.503906 90.105469 63.703125 88.785156 C 63.332031 87.8125 63.332031 87.8125 63.21875 86.851562 C 64.078125 84.972656 64.734375 83.820312 66.308594 82.496094 C 67.578125 82.011719 67.578125 82.011719 69 82.011719 M 64.855469 70.945312 C 66.609375 71.367188 66.609375 71.367188 68.03125 72.363281 C 69.03125 73.785156 69.03125 73.785156 69.28125 74.722656 C 69.371094 75.808594 69.328125 76.609375 69.03125 77.65625 C 67.757812 79.078125 67.757812 79.078125 66.125 80.078125 C 64.644531 80.558594 64.644531 80.558594 63.21875 80.558594 C 61.890625 79.984375 61.890625 79.984375 60.800781 79.109375 C 59.976562 77.96875 59.832031 77.183594 59.648438 75.78125 C 59.832031 74.269531 59.832031 74.269531 60.710938 72.667969 L 61.769531 71.367188 C 63.21875 70.882812 63.21875 70.882812 64.855469 70.945312 " fill-opacity="1" fill-rule="nonzero"/><path fill="#3160ea" d="M 372.109375 134.265625 L 374.046875 134.265625 L 374.527344 137.652344 L 378.402344 137.652344 L 378.402344 139.589844 L 374.527344 139.589844 C 374.515625 141.089844 374.503906 142.59375 374.5 144.09375 L 374.488281 145.386719 L 374.480469 146.628906 L 374.472656 147.773438 C 374.488281 148.875 374.488281 148.875 375.011719 150.234375 L 376.648438 150.203125 C 378.402344 150.234375 378.402344 150.234375 379.371094 150.71875 L 378.886719 152.652344 C 377.417969 152.765625 375.996094 152.8125 374.527344 152.652344 C 373.078125 151.777344 373.078125 151.777344 372.109375 150.71875 C 371.644531 149.320312 371.566406 148.453125 371.578125 147.007812 L 371.582031 145.699219 L 371.59375 144.335938 L 371.601562 142.957031 C 371.605469 141.835938 371.613281 140.710938 371.625 139.589844 L 369.203125 139.589844 L 369.203125 137.652344 L 371.625 137.652344 L 371.59375 136.230469 L 371.625 134.75 Z M 372.109375 134.265625 " fill-opacity="1" fill-rule="nonzero"/><path fill="#2f5fec" d="M 446.667969 134.265625 L 449.089844 134.75 L 449.089844 137.652344 L 452.960938 137.652344 L 453.445312 139.589844 L 448.605469 139.589844 L 449.089844 150.71875 L 453.929688 150.71875 L 454.414062 152.167969 C 452.613281 152.769531 450.957031 152.984375 449.089844 152.652344 C 447.667969 151.535156 447.667969 151.535156 446.667969 150.234375 C 446.210938 148.867188 446.125 148.042969 446.136719 146.628906 L 446.140625 145.386719 L 446.152344 144.09375 L 446.160156 142.785156 C 446.164062 141.71875 446.171875 140.65625 446.183594 139.589844 L 443.761719 139.105469 L 443.761719 137.652344 L 446.183594 137.652344 Z M 446.667969 134.265625 " fill-opacity="1" fill-rule="nonzero"/><path fill="#305fea" d="M 104.972656 131.617188 C 106.136719 131.574219 107.109375 131.574219 108.246094 131.847656 C 109.105469 132.53125 109.105469 132.53125 109.699219 133.296875 L 109.699219 134.265625 L 110.667969 134.265625 C 110.878906 136.804688 110.878906 136.804688 110.667969 138.136719 C 109.582031 139.25 108.652344 139.871094 107.277344 140.554688 C 105.917969 140.738281 105.917969 140.738281 104.375 140.554688 C 103.011719 139.558594 103.011719 139.558594 101.953125 138.136719 C 101.40625 136.472656 101.40625 136.472656 101.46875 134.75 C 102.441406 132.964844 102.957031 132.046875 104.972656 131.617188 " fill-opacity="1" fill-rule="nonzero"/><path fill="#04f3f5" d="M 63.886719 59.058594 C 65.640625 59.269531 65.640625 59.269531 67.0625 60.238281 C 68.0625 61.691406 68.0625 61.691406 68.242188 62.660156 C 68.273438 63.6875 68.273438 63.6875 68.0625 65.5625 L 67.09375 67.011719 L 65.640625 67.011719 L 65.640625 67.980469 C 64.097656 68.132812 64.097656 68.132812 62.253906 67.980469 C 60.859375 66.921875 60.859375 66.921875 59.832031 65.5625 C 59.347656 64.382812 59.347656 64.382812 59.347656 63.140625 C 59.953125 61.601562 59.953125 61.601562 60.800781 60.238281 C 62.253906 59.269531 62.253906 59.269531 63.886719 59.058594 " fill-opacity="1" fill-rule="nonzero"/><path fill="#456bdb" d="M 489.757812 47.660156 L 495.082031 47.660156 L 495.082031 100.882812 L 494.113281 100.882812 C 494.039062 94.148438 493.96875 87.414062 493.898438 80.679688 C 493.867188 77.554688 493.835938 74.429688 493.800781 71.300781 C 493.765625 68.289062 493.734375 65.273438 493.707031 62.257812 C 493.695312 61.105469 493.683594 59.953125 493.667969 58.800781 C 493.652344 57.191406 493.632812 55.582031 493.621094 53.972656 L 493.601562 52.515625 L 493.589844 51.191406 L 493.578125 50.039062 C 493.628906 49.109375 493.628906 49.109375 494.113281 48.144531 L 489.757812 48.144531 Z M 489.757812 47.660156 " fill-opacity="1" fill-rule="nonzero"/><path fill="#2f5eea" d="M 86.703125 129.15625 C 88.394531 129.429688 88.394531 129.429688 89.820312 130.457031 C 90.816406 131.847656 90.816406 131.847656 91.089844 133.296875 C 90.816406 134.75 90.816406 134.75 90.0625 136.109375 C 88.878906 137.167969 88.878906 137.167969 87.246094 137.714844 C 85.492188 137.652344 85.492188 137.652344 83.828125 136.714844 C 82.585938 135.234375 82.585938 135.234375 82.320312 134.277344 C 82.253906 133.269531 82.253906 133.269531 82.585938 131.363281 C 83.882812 129.789062 84.691406 129.476562 86.703125 129.15625 " fill-opacity="1" fill-rule="nonzero"/><path fill="#04f3f5" d="M 66.609375 47.175781 C 68.054688 47.535156 68.964844 48.09375 70.148438 48.988281 C 70.96875 50.078125 70.96875 50.078125 71.210938 51.5 C 70.96875 52.980469 70.96875 52.980469 70.210938 54.371094 L 69.03125 55.398438 C 67.1875 55.59375 65.941406 55.5 64.1875 54.917969 C 63.339844 53.859375 63.339844 53.859375 62.738281 52.496094 C 62.796875 50.984375 62.796875 50.984375 63.21875 49.59375 C 63.917969 48.664062 64.628906 48.171875 65.582031 47.507812 Z M 71.933594 37.015625 C 73.640625 37.015625 74.769531 37.191406 76.261719 38.011719 C 76.777344 38.949219 76.777344 38.949219 76.988281 40.855469 C 76.945312 41.882812 76.945312 41.882812 76.777344 42.820312 C 75.988281 44.03125 75.988281 44.03125 74.839844 44.753906 C 73.417969 45.027344 73.417969 45.027344 71.933594 44.753906 C 70.542969 43.726562 70.542969 43.726562 69.515625 42.335938 C 69.210938 40.886719 69.210938 40.886719 69.515625 39.433594 C 70.511719 38.011719 70.511719 38.011719 71.933594 37.015625 " fill-opacity="1" fill-rule="nonzero"/><path fill="#2e5fec" d="M 68.03125 120.960938 C 69.515625 121.203125 69.515625 121.203125 70.875 122.019531 C 71.933594 123.136719 71.933594 123.136719 72.449219 124.316406 C 72.417969 125.558594 72.417969 125.558594 71.691406 126.886719 C 70.484375 127.976562 70.484375 127.976562 68.820312 128.519531 L 67.09375 128.460938 C 65.671875 127.460938 65.671875 127.460938 64.671875 126.042969 C 64.402344 124.558594 64.402344 124.558594 64.671875 123.136719 C 65.6875 121.65625 66.253906 121.261719 68.03125 120.960938 " fill-opacity="1" fill-rule="nonzero"/><path fill="#335ad1" d="M 549.792969 47.660156 L 552.210938 47.660156 C 552.839844 49.539062 552.765625 51.324219 552.757812 53.285156 L 552.761719 54.441406 C 552.757812 55.40625 552.734375 56.371094 552.695312 57.335938 L 552.210938 57.820312 C 550.710938 57.863281 549.21875 57.875 547.71875 57.867188 L 546.351562 57.863281 C 544.90625 57.863281 543.460938 57.855469 542.015625 57.851562 C 541.039062 57.847656 540.058594 57.84375 539.082031 57.84375 C 536.679688 57.835938 534.28125 57.828125 531.878906 57.820312 L 531.394531 56.851562 L 532.957031 56.824219 C 534.871094 56.785156 536.789062 56.742188 538.707031 56.699219 C 539.535156 56.679688 540.367188 56.664062 541.195312 56.648438 C 542.386719 56.625 543.582031 56.597656 544.773438 56.566406 L 545.890625 56.550781 C 547.875 56.496094 549.457031 56.28125 551.246094 55.398438 L 549.792969 54.917969 L 549.820312 53.375 C 549.851562 51.605469 549.851562 51.605469 549.519531 50.199219 C 549.308594 49.109375 549.308594 49.109375 549.792969 47.660156 " fill-opacity="1" fill-rule="nonzero"/><path fill="#456bdb" d="M 458.289062 63.140625 L 459.253906 63.140625 C 459.269531 64.339844 459.277344 65.539062 459.285156 66.742188 L 459.296875 67.777344 C 459.300781 68.652344 459.28125 69.527344 459.253906 70.398438 L 458.769531 70.882812 C 458.015625 70.921875 457.257812 70.9375 456.5 70.929688 L 455.253906 70.925781 L 453.65625 70.914062 L 448.605469 70.882812 L 448.605469 90.238281 L 447.636719 90.238281 C 446.804688 83.773438 446.683594 76.851562 447.636719 70.398438 L 448.121094 69.914062 C 448.875 69.875 449.632812 69.859375 450.390625 69.867188 L 451.777344 69.871094 L 453.234375 69.886719 L 454.695312 69.890625 C 455.894531 69.898438 457.089844 69.90625 458.289062 69.914062 Z M 458.289062 63.140625 " fill-opacity="1" fill-rule="nonzero"/><path fill="#04f3f5" d="M 81.617188 28.789062 C 83.375 28.730469 83.375 28.730469 85.007812 29.273438 C 86.007812 30.332031 86.007812 30.332031 86.460938 31.691406 C 86.1875 33.203125 86.1875 33.203125 85.492188 34.59375 C 84.613281 35.53125 84.613281 35.53125 83.554688 36.046875 C 82.316406 35.984375 82.316406 35.984375 81.132812 35.5625 C 80.285156 34.988281 80.285156 34.988281 79.683594 34.109375 C 79.199219 32.71875 79.199219 32.71875 79.199219 31.207031 C 80.164062 29.789062 80.164062 29.789062 81.617188 28.789062 " fill-opacity="1" fill-rule="nonzero"/><path fill="#3160e0" d="M 468.453125 138.136719 C 469.828125 139.019531 470.75 139.910156 471.753906 141.191406 C 472.328125 142.492188 472.328125 142.492188 472.328125 145.878906 L 460.222656 145.878906 L 460.222656 144.425781 L 469.421875 143.941406 L 468.9375 141.523438 C 467.769531 140.3125 466.816406 140.011719 465.1875 139.5 L 463.613281 139.105469 L 463.613281 138.621094 C 465.261719 138.246094 466.769531 137.925781 468.453125 138.136719 " fill-opacity="1" fill-rule="nonzero"/><path fill="#04f3f5" d="M 93.722656 23.464844 C 95.023438 23.769531 95.023438 23.769531 96.144531 24.433594 L 97.109375 25.886719 C 97.019531 27.609375 97.019531 27.609375 96.628906 29.273438 L 95.175781 30.242188 C 93.449219 30.148438 93.449219 30.148438 91.785156 29.757812 L 90.816406 28.304688 C 90.847656 26.613281 90.847656 26.613281 91.300781 24.917969 C 92.390625 23.921875 92.390625 23.921875 93.722656 23.464844 " fill-opacity="1" fill-rule="nonzero"/><path fill="#3160ea" d="M 53.417969 107.804688 L 54.988281 108.140625 L 54.988281 109.105469 L 55.957031 109.105469 C 56.078125 110.4375 56.078125 110.4375 55.957031 112.007812 C 55.171875 113.1875 55.171875 113.1875 54.023438 113.945312 C 52.539062 113.914062 52.539062 113.914062 51.117188 113.460938 C 50.210938 112.886719 50.210938 112.886719 49.664062 112.007812 C 49.453125 110.558594 49.453125 110.558594 49.664062 109.105469 C 50.882812 107.597656 51.46875 107.644531 53.417969 107.804688 " fill-opacity="1" fill-rule="nonzero"/><path fill="#305fe0" d="M 409.386719 64.59375 C 411.191406 65.40625 412.210938 66.339844 413.460938 67.847656 C 415.257812 70.410156 417.109375 73.5625 417.617188 76.6875 C 417.652344 77.777344 417.660156 78.867188 417.648438 79.957031 L 417.636719 81.671875 L 417.617188 82.980469 L 416.167969 82.496094 C 415.664062 80.15625 415.191406 77.871094 415.046875 75.480469 C 414.730469 72.386719 413.230469 69.820312 411.488281 67.296875 C 410.808594 66.382812 410.105469 65.480469 409.386719 64.59375 " fill-opacity="1" fill-rule="nonzero"/><path fill="#04f3f5" d="M 106.066406 22.347656 C 107.277344 22.5 107.277344 22.5 108.1875 23.011719 L 108.730469 23.949219 C 108.640625 25.675781 108.640625 25.675781 108.246094 27.335938 L 107.277344 28.304688 C 106.128906 28.515625 106.128906 28.515625 104.859375 28.304688 C 103.707031 27.246094 103.707031 27.246094 102.921875 25.886719 C 102.953125 24.585938 102.953125 24.585938 103.40625 23.464844 C 104.859375 22.5 104.859375 22.5 106.066406 22.347656 " fill-opacity="1" fill-rule="nonzero"/><path fill="#305fe0" d="M 304.8125 62.65625 L 307.230469 63.140625 C 306.921875 65.238281 306.171875 66.949219 305.265625 68.855469 L 304.460938 70.558594 L 303.84375 71.851562 C 302.003906 71.503906 300.285156 71.015625 298.519531 70.398438 L 298.519531 69.433594 L 300.121094 69.582031 L 301.90625 69.433594 C 303.234375 67.875 303.738281 66.050781 304.328125 64.109375 Z M 304.8125 62.65625 " fill-opacity="1" fill-rule="nonzero"/><path fill="#3261ea" d="M 42.402344 90.539062 C 43.855469 90.71875 43.855469 90.71875 44.792969 91.265625 C 45.308594 92.171875 45.308594 92.171875 45.308594 93.652344 L 44.824219 95.074219 C 43.734375 95.832031 43.734375 95.832031 42.402344 96.042969 C 41.070312 95.527344 41.070312 95.527344 39.980469 94.589844 C 39.496094 93.382812 39.496094 93.382812 39.496094 92.171875 C 40.292969 90.8125 40.835938 90.734375 42.402344 90.539062 " fill-opacity="1" fill-rule="nonzero"/><path fill="#04f3f5" d="M 116.476562 24.433594 C 117.960938 24.222656 117.960938 24.222656 119.382812 24.433594 L 120.351562 25.402344 C 120.5 26.824219 120.5 26.824219 120.351562 28.304688 C 119.777344 29.210938 119.777344 29.210938 118.898438 29.757812 C 117.597656 29.847656 117.597656 29.847656 116.476562 29.757812 L 116.476562 28.789062 L 115.507812 28.789062 C 115.175781 27.972656 115.175781 27.972656 115.023438 26.855469 C 115.539062 25.523438 115.539062 25.523438 116.476562 24.433594 " fill-opacity="1" fill-rule="nonzero"/><g clip-path="url(#9345e81b25)"><path fill="#3160e0" d="M 615.152344 68.949219 L 616.605469 69.914062 C 616.769531 71.136719 616.769531 71.136719 616.746094 72.65625 L 616.730469 74.300781 L 616.695312 76.023438 L 616.675781 77.757812 C 616.65625 79.175781 616.632812 80.59375 616.605469 82.011719 L 615.152344 82.496094 Z M 615.152344 68.949219 " fill-opacity="1" fill-rule="nonzero"/></g><path fill="#446adb" d="M 514.933594 99.914062 C 517.039062 100.21875 518.988281 100.714844 521.015625 101.363281 C 524.402344 102.542969 524.402344 102.542969 527.914062 102.605469 L 528.972656 102.332031 L 528.972656 102.816406 L 531.878906 103.300781 L 531.878906 104.269531 C 528.816406 104.351562 526.109375 104.109375 523.132812 103.421875 L 522.03125 103.191406 C 519.429688 102.605469 517.277344 101.664062 514.933594 100.398438 Z M 514.933594 99.914062 " fill-opacity="1" fill-rule="nonzero"/><path fill="#04f3f5" d="M 128.097656 29.757812 C 129.308594 29.878906 129.308594 29.878906 130.515625 30.242188 L 131.484375 31.207031 C 131.328125 32.472656 131.089844 33.453125 130.515625 34.59375 C 129.398438 34.6875 129.398438 34.6875 128.097656 34.59375 C 127.1875 34.019531 127.1875 34.019531 126.644531 33.144531 C 126.734375 31.902344 126.734375 31.902344 127.128906 30.722656 Z M 128.097656 29.757812 " fill-opacity="1" fill-rule="nonzero"/><path fill="#0437a9" d="M 353.226562 144.425781 L 365.816406 144.425781 L 365.332031 145.878906 L 353.710938 145.878906 Z M 353.226562 144.425781 " fill-opacity="1" fill-rule="nonzero"/><path fill="#456bdb" d="M 515.417969 77.171875 C 517.382812 77.148438 519.34375 77.132812 521.308594 77.121094 C 521.976562 77.113281 522.644531 77.109375 523.3125 77.101562 C 524.273438 77.089844 525.234375 77.082031 526.195312 77.078125 L 527.949219 77.0625 C 529.386719 77.167969 530.1875 77.386719 531.394531 78.140625 L 531.394531 78.625 L 515.417969 78.625 Z M 471.359375 47.660156 L 471.84375 47.660156 L 472.328125 56.367188 L 482.980469 56.851562 L 482.980469 57.820312 C 481.132812 57.832031 479.289062 57.84375 477.441406 57.851562 L 475.84375 57.863281 L 474.328125 57.867188 L 472.921875 57.875 L 471.84375 57.820312 L 471.359375 57.335938 C 471.320312 56.613281 471.304688 55.894531 471.3125 55.171875 L 471.316406 53.851562 L 471.328125 52.46875 L 471.335938 51.074219 C 471.339844 49.9375 471.347656 48.796875 471.359375 47.660156 " fill-opacity="1" fill-rule="nonzero"/><g clip-path="url(#38b64aeaa6)"><path fill="#305fe8" d="M 37.078125 71.367188 C 38.347656 71.667969 38.347656 71.667969 39.496094 72.335938 C 39.953125 73.542969 39.953125 73.542969 39.980469 74.753906 L 39.011719 75.722656 C 37.257812 75.539062 37.257812 75.539062 35.625 75.238281 L 35.625 71.851562 Z M 37.078125 71.367188 " fill-opacity="1" fill-rule="nonzero"/></g><path fill="#456bdb" d="M 271.890625 68.949219 L 272.859375 70.398438 C 272.796875 71.691406 272.796875 71.691406 272.585938 73.179688 C 272.324219 75.699219 272.324219 75.699219 272.917969 78.109375 C 273.878906 79.679688 274.84375 80.820312 276.246094 82.011719 L 277.699219 82.496094 L 278.183594 83.945312 C 276.445312 83.472656 275.300781 82.671875 274.007812 81.46875 C 272.597656 79.988281 271.738281 78.628906 271.128906 76.675781 C 270.652344 74.484375 270.808594 72.566406 271.40625 70.429688 Z M 271.890625 68.949219 " fill-opacity="1" fill-rule="nonzero"/><path fill="#04f3f5" d="M 137.78125 38.464844 C 138.960938 38.796875 138.960938 38.796875 140.199219 39.433594 C 140.65625 40.644531 140.65625 40.644531 140.683594 41.851562 L 139.714844 42.820312 C 138.203125 42.640625 138.203125 42.640625 136.8125 42.335938 C 136.480469 41.488281 136.480469 41.488281 136.328125 40.402344 C 137.023438 39.3125 137.023438 39.3125 137.78125 38.464844 " fill-opacity="1" fill-rule="nonzero"/><path fill="#446adb" d="M 409.871094 99.429688 L 411.324219 99.429688 L 410.839844 100.882812 C 407.328125 102.914062 403.726562 103.699219 399.707031 103.785156 L 399.222656 102.816406 C 400.132812 102.632812 400.132812 102.632812 401.058594 102.445312 L 403.457031 101.941406 L 404.667969 101.695312 C 406.769531 101.25 408.203125 100.84375 409.871094 99.429688 " fill-opacity="1" fill-rule="nonzero"/><path fill="#0437a9" d="M 460.222656 144.425781 L 469.421875 144.425781 L 469.421875 145.878906 L 460.222656 145.878906 Z M 460.222656 144.425781 " fill-opacity="1" fill-rule="nonzero"/><path fill="#456bdb" d="M 549.792969 47.660156 L 552.210938 47.660156 C 552.710938 49.15625 552.683594 49.847656 552.484375 51.378906 L 552.335938 52.5625 L 552.210938 53.464844 L 550.761719 53.464844 C 550.003906 52.195312 550.003906 52.195312 549.308594 50.5625 C 549.460938 48.929688 549.460938 48.929688 549.792969 47.660156 M 373.5625 148.78125 L 374.527344 148.78125 L 375.011719 150.234375 L 376.648438 150.203125 C 378.402344 150.234375 378.402344 150.234375 379.371094 150.71875 L 378.886719 152.652344 C 378.191406 152.679688 377.496094 152.699219 376.800781 152.710938 L 375.625 152.746094 C 374.527344 152.652344 374.527344 152.652344 373.078125 151.683594 Z M 373.5625 148.78125 " fill-opacity="1" fill-rule="nonzero"/><path fill="#305fe0" d="M 296.097656 100.882812 L 300.453125 101.363281 L 299.96875 102.332031 C 298.738281 102.746094 298.738281 102.746094 297.1875 103.117188 L 295.652344 103.5 C 293.582031 103.894531 292.152344 103.910156 290.136719 103.300781 L 288.835938 102.816406 L 288.835938 102.332031 L 296.582031 101.847656 Z M 296.097656 100.882812 " fill-opacity="1" fill-rule="nonzero"/><path fill="#456bdb" d="M 446.667969 51.046875 L 448.605469 51.53125 L 448.605469 61.691406 L 449.574219 62.175781 C 448.636719 62.023438 448.636719 62.023438 447.636719 61.691406 C 447.097656 60.078125 447.085938 58.847656 447.089844 57.152344 L 447.085938 55.511719 C 447.140625 54.164062 447.320312 52.839844 447.636719 51.53125 Z M 446.667969 51.046875 " fill-opacity="1" fill-rule="nonzero"/><path fill="#446adb" d="M 162.472656 106.203125 C 163.742188 106.683594 164.394531 107.15625 165.285156 108.199219 C 165.851562 109.570312 165.941406 110.15625 165.832031 111.585938 L 165.375 113.460938 C 164.378906 114.429688 164.378906 114.429688 163.441406 114.914062 C 163.136719 113.824219 163.136719 113.824219 162.957031 112.492188 L 163.441406 111.554688 L 163.925781 110.558594 C 163.769531 108.691406 163.519531 107.777344 162.472656 106.203125 M 397.769531 67.980469 C 399.25 68.707031 399.25 68.707031 400.1875 69.433594 L 399.222656 69.914062 L 398.253906 69.433594 C 394.75 69.121094 391.8125 69.539062 388.570312 70.882812 L 388.085938 69.914062 C 391.273438 68.582031 394.269531 67.371094 397.769531 67.980469 " fill-opacity="1" fill-rule="nonzero"/><path fill="#2f5fe9" d="M 38.042969 52.011719 C 39.316406 52.46875 39.316406 52.46875 40.464844 52.980469 L 39.980469 55.398438 C 39.105469 55.703125 39.105469 55.703125 38.042969 55.882812 L 36.59375 54.917969 C 36.773438 53.738281 36.773438 53.738281 37.078125 52.496094 Z M 38.042969 52.011719 " fill-opacity="1" fill-rule="nonzero"/><path fill="#04f3f5" d="M 144.074219 49.59375 C 145.011719 49.746094 145.011719 49.746094 146.011719 50.078125 L 146.980469 51.046875 C 146.796875 52.074219 146.796875 52.074219 146.496094 52.980469 C 145.617188 53.285156 145.617188 53.285156 144.558594 53.464844 L 143.105469 52.496094 C 143.25 51.6875 143.414062 50.882812 143.589844 50.078125 Z M 144.074219 49.59375 " fill-opacity="1" fill-rule="nonzero"/><path fill="#456bdb" d="M 535.75 78.625 C 537.238281 78.660156 538.65625 78.773438 540.109375 79.109375 C 541.410156 80.132812 542.222656 81.089844 543.164062 82.433594 C 543.644531 83.917969 543.558594 85.304688 543.496094 86.851562 L 543.011719 86.851562 L 542.710938 85.066406 C 542.289062 83.390625 542.003906 82.933594 540.746094 81.617188 C 539.09375 80.527344 537.59375 79.808594 535.75 79.109375 Z M 535.75 78.625 " fill-opacity="1" fill-rule="nonzero"/><path fill="#3261df" d="M 448.121094 136.203125 L 449.089844 136.203125 L 449.089844 137.652344 L 452.960938 137.652344 L 453.445312 139.589844 C 450.882812 139.757812 450.882812 139.757812 449.574219 139.589844 C 448.605469 138.710938 448.605469 138.710938 448.121094 137.652344 Z M 448.121094 136.203125 " fill-opacity="1" fill-rule="nonzero"/><path fill="#456bdb" d="M 171.671875 29.273438 C 172.546875 29.574219 172.546875 29.574219 173.605469 30.242188 C 174.480469 31.546875 175.015625 32.617188 175.148438 34.195312 C 175.148438 35.136719 175.109375 36.074219 175.058594 37.015625 L 174.089844 37.015625 L 174.089844 33.628906 L 172.636719 33.144531 L 173.121094 31.207031 L 172.15625 31.207031 Z M 374.527344 90.238281 C 376.058594 91.253906 376.464844 92.070312 377.3125 93.644531 C 378.386719 95.324219 379.851562 96.632812 381.308594 97.976562 L 380.339844 98.460938 L 378.886719 97.496094 L 378.886719 96.527344 L 377.433594 96.042969 C 376.65625 94.972656 376.65625 94.972656 375.890625 93.652344 L 375.113281 92.339844 C 374.527344 91.203125 374.527344 91.203125 374.527344 90.238281 " fill-opacity="1" fill-rule="nonzero"/><path fill="#305fe0" d="M 417.617188 83.464844 L 417.617188 84.914062 L 409.386719 84.914062 L 408.902344 83.945312 C 410.085938 83.867188 411.265625 83.785156 412.445312 83.703125 L 413.457031 83.636719 C 414.847656 83.539062 416.222656 83.464844 417.617188 83.464844 " fill-opacity="1" fill-rule="nonzero"/><path fill="#456bdb" d="M 285.929688 85.398438 C 289.289062 85.558594 292.121094 85.761719 295.128906 87.332031 C 293.492188 87.878906 292.460938 87.667969 290.796875 87.34375 L 289.710938 87.121094 L 288.613281 86.90625 C 287.71875 86.726562 286.824219 86.546875 285.929688 86.367188 Z M 285.929688 85.398438 " fill-opacity="1" fill-rule="nonzero"/><path fill="#446adb" d="M 357.585938 95.074219 L 358.550781 95.074219 C 358.308594 96.074219 358.308594 96.074219 357.585938 97.496094 C 356.359375 98.703125 355.050781 99.800781 353.710938 100.882812 L 352.742188 99.914062 L 353.554688 99.222656 L 354.617188 98.3125 L 355.675781 97.410156 C 356.707031 96.507812 356.707031 96.507812 357.585938 95.074219 " fill-opacity="1" fill-rule="nonzero"/><path fill="#3160e0" d="M 302.390625 145.878906 L 309.167969 145.878906 L 307.714844 147.332031 C 306.65625 147.523438 306.65625 147.523438 305.507812 147.511719 L 304.355469 147.523438 L 303.359375 147.332031 Z M 302.390625 145.878906 " fill-opacity="1" fill-rule="nonzero"/><path fill="#04f3f5" d="M 146.980469 62.175781 L 149.398438 62.65625 L 148.914062 65.078125 L 146.496094 64.59375 Z M 146.980469 62.175781 " fill-opacity="1" fill-rule="nonzero"/><path fill="#456bdb" d="M 283.023438 69.914062 L 283.992188 69.914062 L 283.417969 71.699219 C 283.121094 72.746094 283.121094 72.746094 283.023438 73.785156 C 283.609375 75.21875 283.609375 75.21875 284.476562 76.207031 C 283.28125 75.648438 282.515625 75.214844 281.574219 74.269531 C 281.421875 73.121094 281.421875 73.121094 281.574219 71.851562 C 282.238281 70.730469 282.238281 70.730469 283.023438 69.914062 " fill-opacity="1" fill-rule="nonzero"/><path fill="#446adb" d="M 89.847656 134.265625 L 90.816406 134.75 C 90.0625 135.929688 90.0625 135.929688 88.878906 137.167969 C 87.125 137.59375 87.125 137.59375 85.492188 137.652344 L 84.523438 137.167969 L 85.007812 136.203125 L 86.339844 136.324219 L 87.914062 136.203125 C 89.0625 135.292969 89.0625 135.292969 89.847656 134.265625 " fill-opacity="1" fill-rule="nonzero"/><path fill="#456bdb" d="M 400.671875 69.433594 C 401.761719 69.523438 401.761719 69.523438 403.09375 69.914062 C 404.242188 71.066406 404.242188 71.066406 405.03125 72.335938 L 404.546875 73.785156 L 404.546875 72.820312 L 403.699219 72.425781 C 402.582031 71.835938 401.632812 71.21875 400.671875 70.398438 Z M 400.671875 69.433594 " fill-opacity="1" fill-rule="nonzero"/><path fill="#3160e0" d="M 147.460938 21.046875 L 148.492188 22.105469 C 149.847656 23.464844 151.296875 24.675781 152.789062 25.886719 L 151.820312 26.371094 C 148.519531 24.316406 148.519531 24.316406 147.460938 22.5 Z M 147.460938 21.046875 " fill-opacity="1" fill-rule="nonzero"/><path fill="#335ad1" d="M 438.4375 97.011719 C 440.28125 98.5625 442.089844 100.109375 443.761719 101.847656 C 442.945312 101.757812 442.945312 101.757812 441.828125 101.363281 C 440.300781 100.023438 439.289062 98.839844 438.4375 97.011719 " fill-opacity="1" fill-rule="nonzero"/><path fill="#456bdb" d="M 39.980469 93.625 L 41.101562 94.109375 C 42.398438 94.675781 42.398438 94.675781 43.855469 94.589844 L 43.855469 93.625 L 44.824219 93.625 L 44.339844 95.558594 C 43.523438 95.890625 43.523438 95.890625 42.402344 96.042969 C 41.070312 95.40625 41.070312 95.40625 39.980469 94.589844 Z M 39.980469 93.625 " fill-opacity="1" fill-rule="nonzero"/><path fill="#4269dc" d="M 461.191406 100.398438 L 462.160156 100.398438 L 462.160156 101.847656 L 457.804688 103.300781 L 457.320312 102.332031 C 458.726562 101.726562 459.640625 101.363281 461.191406 101.363281 Z M 461.191406 100.398438 " fill-opacity="1" fill-rule="nonzero"/><path fill="#456bdb" d="M 384.695312 74.753906 L 385.664062 74.753906 L 385.363281 76.113281 L 385.179688 77.65625 L 386.148438 79.109375 L 384.210938 78.625 C 383.910156 77.777344 383.910156 77.777344 383.726562 76.6875 C 384.183594 75.601562 384.183594 75.601562 384.695312 74.753906 M 148.429688 126.042969 L 149.398438 126.042969 C 149.035156 127.160156 149.035156 127.160156 148.429688 128.460938 C 147.402344 129.335938 147.402344 129.335938 146.496094 129.910156 L 146.011719 128.945312 C 146.792969 127.957031 147.601562 126.988281 148.429688 126.042969 M 179.417969 78.140625 L 178.933594 79.59375 L 177.480469 80.558594 C 176.179688 80.378906 176.179688 80.378906 175.058594 80.078125 C 177.964844 78.140625 177.964844 78.140625 179.417969 78.140625 " fill-opacity="1" fill-rule="nonzero"/><path fill="#04f3f5" d="M 146.980469 74.269531 L 148.429688 74.753906 L 148.429688 76.6875 L 146.011719 76.207031 Z M 146.980469 74.269531 " fill-opacity="1" fill-rule="nonzero"/><path fill="#456bdb" d="M 179.902344 70.398438 L 181.351562 70.882812 C 182.070312 72.3125 181.867188 73.660156 181.835938 75.238281 L 180.871094 74.753906 C 180.5625 73.753906 180.5625 73.753906 180.324219 72.546875 L 180.078125 71.335938 Z M 179.902344 70.398438 " fill-opacity="1" fill-rule="nonzero"/><path fill="#3361df" d="M 443.761719 137.652344 L 446.183594 137.652344 L 445.699219 139.105469 L 446.667969 139.105469 L 446.183594 140.074219 L 443.761719 139.105469 Z M 443.761719 137.652344 " fill-opacity="1" fill-rule="nonzero"/><path fill="#456bdb" d="M 583.683594 65.078125 L 583.199219 68.464844 L 581.746094 68.464844 L 581.746094 65.5625 C 582.714844 65.078125 582.714844 65.078125 583.683594 65.078125 M 43.855469 34.109375 L 46.273438 34.109375 L 46.273438 36.046875 L 43.855469 35.5625 Z M 43.855469 34.109375 " fill-opacity="1" fill-rule="nonzero"/><path fill="#04f3f5" d="M 142.621094 86.367188 L 144.074219 86.367188 L 144.074219 87.816406 L 142.621094 87.816406 Z M 142.621094 86.367188 " fill-opacity="1" fill-rule="nonzero"/><path fill="#335ad1" d="M 56.925781 17.660156 L 58.378906 18.144531 L 58.378906 19.113281 L 56.441406 18.628906 Z M 56.925781 17.660156 " fill-opacity="1" fill-rule="nonzero"/><path fill="#04f3f5" d="M 135.359375 96.527344 L 136.328125 96.527344 L 136.328125 97.976562 L 135.359375 97.976562 Z M 135.359375 96.527344 " fill-opacity="1" fill-rule="nonzero"/></svg>