<svg xmlns="http://www.w3.org/2000/svg" xmlns:xlink="http://www.w3.org/1999/xlink" width="300" zoomAndPan="magnify" viewBox="0 0 224.87999 225" height="300" preserveAspectRatio="xMidYMid meet" version="1.0"><path fill="#7cb15a" d="M 179.59375 30.972656 C 179.984375 31.191406 180.335938 31.410156 180.648438 31.632812 C 182.03125 30.644531 184.128906 28.890625 182.628906 28.273438 C 181.886719 27.972656 181.570312 29.464844 179.59375 30.972656 Z M 179.59375 30.972656 " fill-opacity="1" fill-rule="nonzero"/><path fill="#7cb15a" d="M 182.777344 33.613281 C 184.945312 32.785156 185.339844 31.933594 185.035156 31.460938 C 184.570312 30.742188 184.171875 31.738281 181.765625 32.535156 C 182.425781 33.148438 182.664062 33.445312 182.777344 33.613281 Z M 182.777344 33.613281 " fill-opacity="1" fill-rule="nonzero"/><path fill="#7cb15a" d="M 180.824219 31.761719 C 181.136719 31.996094 181.414062 32.222656 181.652344 32.433594 C 182.40625 32.09375 183.386719 31.605469 183.832031 31.171875 C 184.78125 30.25 183.863281 29.128906 183.015625 30.0625 C 182.308594 30.839844 181.492188 31.398438 180.824219 31.761719 Z M 180.824219 31.761719 " fill-opacity="1" fill-rule="nonzero"/><path fill="#7cb15a" d="M 179.441406 30.890625 C 181.457031 28.632812 182.355469 27.113281 181.378906 26.3125 C 180.390625 25.503906 180.03125 28.210938 178.046875 30.226562 C 178.558594 30.433594 179.027344 30.660156 179.441406 30.890625 Z M 179.441406 30.890625 " fill-opacity="1" fill-rule="nonzero"/><path fill="#7cb15a" d="M 191.496094 34.078125 C 193.5 33.945312 196.171875 33.589844 195.839844 32.648438 C 195.511719 31.738281 191.855469 32.679688 189.945312 33.238281 C 192.101562 32.546875 196.113281 31.28125 195.277344 30.039062 C 194.625 29.070312 191.785156 30.742188 190.097656 31.800781 C 193.714844 29.292969 195.109375 28.125 194.117188 27.515625 C 193.074219 26.875 191.894531 28.59375 190.050781 30.230469 C 191.070312 29.003906 191.800781 27.953125 192.152344 27.15625 C 192.628906 26.058594 192.152344 25.089844 191.246094 26.078125 C 190.347656 27.0625 189.035156 29.636719 188.046875 30.984375 C 187.535156 31.679688 186.867188 32.140625 186.328125 32.414062 C 184.695312 33.0625 182.402344 34.089844 182.402344 34.089844 C 178.480469 29.78125 172.480469 28.863281 172.480469 28.863281 C 172.695312 28.882812 172.890625 28.921875 173.105469 28.945312 C 173.066406 28.355469 172.558594 20.527344 170.609375 18.550781 C 169.078125 17 167.046875 17.132812 167.40625 18.519531 C 167.539062 19.023438 170.152344 23.042969 170.691406 27.070312 C 171.230469 31.105469 171.414062 31.949219 174.027344 33.289062 C 176.640625 34.625 177.289062 34.949219 176.992188 35.53125 C 176.703125 36.121094 174.976562 36.1875 173.976562 37.171875 C 172.976562 38.15625 173.398438 39.421875 173.398438 39.421875 L 172.652344 40.488281 C 172.652344 40.488281 173.683594 39.832031 174.417969 39.753906 C 175.152344 39.679688 179.292969 40.671875 181.929688 39.027344 C 184.574219 37.382812 185.289062 35.773438 187.148438 35.085938 C 189.105469 34.367188 194.476562 35.890625 195.453125 35.695312 C 196.417969 35.507812 195.488281 34.128906 191.496094 34.078125 Z M 176.074219 38.386719 C 175.867188 38.71875 175.429688 38.820312 175.109375 38.613281 C 174.773438 38.40625 174.679688 37.972656 174.882812 37.640625 C 175.089844 37.316406 175.527344 37.214844 175.855469 37.421875 C 176.1875 37.621094 176.28125 38.0625 176.074219 38.386719 Z M 176.074219 38.386719 " fill-opacity="1" fill-rule="nonzero"/><path fill="#7cb15a" d="M 173.109375 28.953125 C 173.738281 29.027344 174.324219 29.128906 174.875 29.246094 C 175.144531 27.667969 175.847656 22.828125 174.679688 20.867188 C 173.59375 19.035156 172.191406 19.785156 172.675781 22.699219 C 173.136719 25.546875 173.191406 28.242188 173.109375 28.953125 Z M 173.109375 28.953125 " fill-opacity="1" fill-rule="nonzero"/><path fill="#7cb15a" d="M 176.308594 29.597656 C 176.664062 28.726562 177.582031 26.328125 177.890625 24.183594 C 178.269531 21.5 176.195312 21.128906 175.875 22.992188 C 175.566406 24.742188 175.886719 26.769531 174.964844 29.257812 C 175.433594 29.367188 175.886719 29.472656 176.308594 29.597656 Z M 176.308594 29.597656 " fill-opacity="1" fill-rule="nonzero"/><path fill="#7cb15a" d="M 177.902344 30.164062 C 180.03125 27.152344 180.082031 25.789062 180.082031 25.34375 C 180.082031 24.039062 178.8125 23.644531 178.445312 24.71875 C 178.097656 25.714844 177.464844 28.21875 176.410156 29.628906 C 176.949219 29.785156 177.4375 29.96875 177.902344 30.164062 Z M 177.902344 30.164062 " fill-opacity="1" fill-rule="nonzero"/><path fill="#7cb15a" d="M 184.425781 41.160156 C 184.460938 41.128906 185.46875 40.175781 187.527344 39.78125 C 188.839844 39.53125 188.222656 38.128906 187.144531 38.289062 C 186.378906 38.398438 184.3125 40.28125 184.3125 40.28125 C 184.3125 40.28125 184.59375 39.480469 187.214844 37.734375 C 187.703125 37.414062 186.980469 36.046875 185.523438 37.394531 C 185.160156 37.734375 184.632812 38.351562 183.953125 38.957031 C 184.117188 39.441406 184.324219 40.230469 184.425781 41.160156 Z M 184.425781 41.160156 " fill-opacity="1" fill-rule="nonzero"/><path fill="#7cb15a" d="M 184.425781 41.167969 C 184.523438 42.078125 184.519531 43.117188 184.25 44.152344 C 184.316406 44.128906 185.699219 43.574219 188.207031 44.160156 C 189.914062 44.554688 189.789062 42.699219 187.683594 42.207031 C 186.339844 41.902344 185.609375 42.289062 184.550781 42.445312 C 184.550781 42.445312 185.304688 41.742188 187.582031 41.792969 C 189.550781 41.839844 189.230469 40.105469 187.714844 40.214844 C 186.214844 40.3125 184.460938 41.148438 184.425781 41.167969 Z M 184.425781 41.167969 " fill-opacity="1" fill-rule="nonzero"/><path fill="#7cb15a" d="M 187.21875 46.65625 C 185.191406 45.519531 183.675781 45.628906 183.675781 45.628906 C 183.675781 45.628906 185.242188 45.007812 188.207031 46.800781 C 189.261719 47.433594 190.164062 46.296875 188.402344 45.007812 C 187.308594 44.210938 185.957031 43.972656 184.253906 44.152344 C 184.023438 45.039062 183.601562 45.914062 182.878906 46.679688 C 182.878906 46.679688 185.75 47.332031 188.222656 49.511719 C 189.613281 50.738281 189.714844 48.054688 187.21875 46.65625 Z M 187.21875 46.65625 " fill-opacity="1" fill-rule="nonzero"/><path fill="#7cb15a" d="M 183.261719 39.535156 C 182.3125 40.230469 181.125 40.765625 179.707031 40.601562 C 179.535156 40.582031 180.773438 41.503906 180.566406 43.15625 C 180.371094 44.730469 179.378906 46.480469 181.597656 47.601562 C 183.890625 48.765625 185.625 50.113281 186.753906 52.410156 C 188.449219 55.816406 189.117188 52.609375 188.546875 51.265625 C 188.320312 50.738281 187.402344 48.605469 182.878906 46.679688 C 182.871094 46.679688 184.792969 43.085938 183.261719 39.535156 Z M 183.261719 39.535156 " fill-opacity="1" fill-rule="nonzero"/><path fill="#7cb15a" d="M 134.609375 92.949219 C 135.945312 91.773438 136.097656 88.507812 136.519531 86.53125 C 136.644531 85.925781 137.257812 84.875 137.058594 84.269531 C 136.570312 82.855469 134.777344 85.011719 134.5 85.144531 C 134.15625 85.304688 133.628906 85.3125 133.496094 85.382812 C 132.945312 85.644531 132.078125 86.515625 131.71875 87.050781 C 130.800781 88.417969 129.882812 90.640625 130.15625 92.804688 C 130.21875 93.296875 130.570312 93.8125 130.511719 94.371094 C 130.46875 94.785156 130.078125 94.929688 129.917969 95.332031 C 129.621094 96.035156 129.664062 96.761719 129.664062 97.847656 C 130.25 97.464844 130.519531 96.761719 130.882812 96.210938 C 131.273438 95.632812 131.769531 95.066406 132 94.382812 C 130.996094 93.519531 132.273438 90.59375 133.09375 90.332031 C 133.226562 92.019531 132.65625 93.058594 132.175781 94.191406 C 133.050781 93.664062 133.9375 93.539062 134.609375 92.949219 Z M 134.609375 92.949219 " fill-opacity="1" fill-rule="nonzero"/><path fill="#51954d" d="M 62.566406 149.679688 C 62.769531 152.425781 64.09375 151.175781 65.1875 150.199219 C 65.683594 149.753906 66.5 149.039062 66.785156 148.628906 C 68.015625 146.8125 67.199219 144 66.363281 142.144531 C 63.867188 142.609375 62.378906 147.148438 62.566406 149.679688 Z M 77.234375 65.269531 C 76.371094 64.722656 74.253906 64.195312 73.503906 64.898438 C 74.300781 69.207031 76.890625 71.53125 80.578125 72.628906 C 80.621094 69.433594 79.246094 66.554688 77.234375 65.269531 Z M 76.097656 66.628906 C 76.167969 66.550781 76.34375 66.5625 76.363281 66.429688 C 76.507812 66.398438 76.527344 66.511719 76.644531 66.511719 C 77.074219 68.125 78.738281 68.375 78.875 70.300781 C 77.523438 69.589844 76.4375 68.15625 76.097656 66.628906 Z M 97.621094 101.234375 C 97.964844 101.226562 99.027344 99.824219 99.199219 99.390625 C 99.472656 98.710938 99.335938 96.75 99.199219 95.765625 C 98.984375 94.238281 98.054688 93.058594 97.433594 92.039062 C 97.210938 91.675781 97.195312 91.195312 96.734375 91.054688 C 96.703125 91.054688 96.671875 91.054688 96.640625 91.054688 C 95.9375 91.542969 96.011719 92.363281 95.929688 93.410156 C 95.894531 93.863281 95.597656 94.289062 95.535156 94.730469 C 95.144531 97.074219 95.273438 98.574219 96.453125 99.980469 C 96.660156 100.25 97.25 101.242188 97.621094 101.234375 Z M 97.589844 95.195312 C 97.765625 95.914062 97.910156 96.675781 97.902344 97.597656 C 97.773438 97.601562 97.652344 97.609375 97.527344 97.613281 C 97.1875 97.238281 96.453125 95.128906 97.589844 95.195312 Z M 42.628906 113.410156 C 40.347656 113.71875 38.941406 114.589844 38.042969 116.253906 C 37.894531 116.515625 37.917969 116.980469 37.722656 117.289062 C 37.492188 117.644531 36.625 117.953125 36.660156 118.359375 C 36.707031 118.855469 37.957031 119.214844 39.03125 119.269531 C 41.65625 119.394531 42.554688 118.53125 43.921875 116.976562 C 44.570312 116.242188 45.832031 115.066406 45.636719 114.1875 C 45.449219 113.335938 43.773438 113.261719 42.628906 113.410156 Z M 40.632812 116.113281 C 40.863281 115.253906 42.492188 114.445312 44 114.734375 C 44.003906 114.859375 44.011719 114.980469 44.019531 115.105469 C 43.226562 115.632812 41.535156 116.566406 40.632812 116.113281 Z M 143.617188 116.84375 C 143.734375 116.191406 143.257812 115.574219 142.820312 115.859375 C 141.128906 116.949219 140.242188 119.910156 140.652344 122.476562 C 140.859375 123.824219 141.644531 124.992188 141.863281 126.316406 C 143.800781 124.332031 146.230469 119.761719 143.617188 116.84375 Z M 142.9375 121.804688 C 142.871094 122.3125 143.160156 123.273438 142.453125 123.222656 C 141.84375 122.0625 142.339844 120.269531 142.328125 118.863281 C 142.511719 118.855469 142.699219 118.84375 142.882812 118.832031 C 143.464844 119.761719 143.082031 120.828125 142.9375 121.804688 Z M 86.46875 60.621094 C 87.125 58.074219 85.828125 56.285156 85.765625 54.058594 C 85.753906 53.5 86.21875 52.714844 85.503906 52.488281 C 85.476562 52.421875 85.414062 52.382812 85.316406 52.410156 C 84.453125 53.003906 84.304688 53.953125 83.503906 55.105469 C 82.839844 56.058594 82.285156 56.875 82.160156 57.867188 C 81.871094 60.132812 82.398438 62.632812 83.570312 63.652344 C 85.027344 62.898438 86.085938 62.101562 86.46875 60.621094 Z M 97.097656 144.207031 C 97.46875 144.226562 97.386719 144.265625 97.753906 144.363281 C 97.777344 144.234375 97.878906 144.183594 97.835938 143.988281 C 97.550781 144.070312 97.550781 143.835938 97.269531 143.925781 C 97.308594 144.101562 97.15625 144.113281 97.097656 144.207031 Z M 77.625 40.0625 C 78.101562 39.378906 78.863281 37.410156 78.628906 36.105469 C 78.324219 34.355469 77.332031 32.125 76.476562 31.9375 C 75.214844 33.507812 72.089844 37.527344 74.082031 39.679688 C 74.203125 42.453125 76.695312 41.398438 77.625 40.0625 Z M 75.710938 35.042969 C 75.890625 35.039062 76.074219 35.023438 76.261719 35.011719 C 76.496094 35.597656 76.722656 36.582031 76.660156 37.410156 C 76.609375 38.15625 76.417969 39.277344 75.632812 39.226562 C 75.277344 37.84375 75.546875 36.261719 75.710938 35.042969 Z M 106.289062 131.285156 C 106.019531 132.019531 105.65625 132.660156 105.46875 133.46875 C 106.113281 133.152344 106.621094 131.90625 106.289062 131.285156 Z M 85.410156 144.246094 C 84.65625 143.988281 83.542969 144.058594 82.714844 144.195312 C 81.941406 144.320312 81.035156 144.535156 80.523438 144.960938 C 81.054688 147.375 82.847656 149.734375 85.144531 150.210938 C 87.0625 150.605469 89.101562 149.878906 88.746094 147.984375 C 88.5 146.621094 86.746094 144.691406 85.410156 144.246094 Z M 83.636719 146.101562 C 83.636719 146.007812 83.632812 145.914062 83.625 145.824219 C 85.558594 145.519531 86.933594 146.652344 87.640625 148.039062 C 86.125 147.976562 84.753906 146.925781 83.636719 146.101562 Z M 98.847656 120.042969 C 98.367188 119.515625 97.996094 118.71875 97.40625 118.996094 C 96.441406 119.453125 96.824219 121.328125 96.835938 122.464844 C 96.847656 123.335938 96.554688 124.050781 96.667969 124.523438 C 97.042969 126.109375 98.558594 126.535156 99.855469 127.050781 C 100.378906 127.261719 100.640625 127.691406 101.089844 127.546875 C 101.660156 127.363281 101.828125 125.53125 101.671875 124.445312 C 101.464844 123.007812 99.769531 121.050781 98.847656 120.042969 Z M 98.859375 123.945312 C 98.558594 123.261719 98.445312 122.515625 98.28125 121.65625 C 98.273438 121.5625 98.269531 121.464844 98.261719 121.371094 C 98.429688 121.277344 98.589844 121.636719 98.636719 121.355469 C 99.335938 122.660156 100.402344 124.089844 100.347656 125.914062 C 99.65625 125.730469 99.191406 124.703125 98.859375 123.945312 Z M 69.898438 160.644531 C 70.167969 160.457031 71.511719 160.613281 71.335938 159.734375 C 70.703125 159.839844 69.558594 159.960938 69.898438 160.644531 Z M 90.171875 117.324219 C 90.140625 117.332031 90.101562 117.324219 90.078125 117.324219 C 85.988281 118.75 83.058594 120.871094 81.722656 124.722656 C 83.550781 125.769531 86.921875 125.445312 88.285156 124.203125 C 89.101562 123.460938 90.132812 120.890625 90.195312 119.640625 C 90.214844 119.238281 90.039062 118.875 90.046875 118.535156 C 90.058594 118.078125 90.535156 117.691406 90.171875 117.324219 Z M 86.519531 122.339844 C 86.085938 122.953125 85.523438 123.742188 84.648438 123.832031 C 84.644531 122.113281 86.1875 121.035156 87.53125 120.242188 C 87.652344 121.003906 86.949219 121.753906 86.519531 122.339844 Z M 132.957031 28.15625 C 132.660156 28.613281 131.632812 30.433594 131.53125 32.03125 C 131.4375 33.367188 132 34.109375 132.320312 34.875 C 132.75 35.910156 133.019531 37.203125 133.546875 38.117188 C 134.03125 39.039062 134.175781 38.261719 134.179688 37.960938 C 134.21875 36.273438 135.46875 35.402344 135.71875 34.234375 C 136.261719 31.800781 134.214844 29.605469 133.722656 27.640625 C 133.535156 26.90625 133.246094 27.699219 132.957031 28.15625 Z M 77.480469 161.9375 C 77.285156 161.917969 77.023438 161.804688 76.921875 161.875 C 74.605469 163.4375 72.800781 166.792969 72.6875 169.984375 C 73.335938 170.1875 74.265625 170.148438 74.910156 169.964844 C 76.175781 169.609375 78.335938 167.71875 78.453125 166.621094 C 78.492188 166.300781 78.261719 165.824219 78.203125 165.335938 C 78.046875 163.835938 77.851562 163.066406 77.480469 161.9375 Z M 76.15625 166.929688 C 76.003906 167.738281 75.875 168.5625 75.042969 168.753906 C 74.6875 168.027344 75.488281 166.492188 76.226562 166.464844 C 76.179688 165.945312 76.53125 165.574219 76.167969 165.253906 C 76.578125 165.472656 76.5 164.902344 76.695312 164.671875 C 76.789062 164.671875 76.871094 164.664062 76.972656 164.660156 C 77.316406 165.667969 76.980469 166.691406 76.15625 166.929688 Z M 123.132812 82.464844 C 122.832031 81.824219 122.710938 80.894531 122.132812 81.027344 C 120.902344 82.921875 118.558594 87.691406 120.582031 90.777344 C 121.222656 91.75 122.289062 92.871094 123.394531 93.234375 C 124.066406 91.109375 124.746094 86.738281 123.855469 83.921875 C 123.722656 83.523438 123.382812 83.003906 123.132812 82.464844 Z M 123.132812 82.464844 " fill-opacity="1" fill-rule="nonzero"/><path fill="#7cb15a" d="M 106.472656 134.992188 C 107.226562 134.105469 107.746094 132.996094 107.792969 131.671875 C 107.824219 130.699219 107.394531 127.515625 106.398438 128.023438 C 104.9375 128.773438 103.023438 130.683594 103.023438 132.847656 C 103.023438 133.5 103.269531 134.265625 103.40625 134.960938 C 103.550781 135.667969 103.476562 136.480469 103.976562 136.980469 C 104.921875 136.8125 105.761719 135.832031 106.472656 134.992188 Z M 106.472656 134.992188 " fill-opacity="1" fill-rule="nonzero"/><path fill="#7cb15a" d="M 39.757812 109.929688 C 39.769531 108.679688 38.34375 108.375 36.804688 108.40625 C 36.851562 108.882812 36.710938 108.957031 36.183594 109.089844 C 36.277344 108.792969 36.183594 108.875 36.160156 108.535156 C 34.199219 109.03125 32.621094 110.023438 31.464844 111.191406 C 31.039062 111.617188 30.417969 112.125 30.34375 112.734375 C 30.679688 113.171875 31.367188 113.222656 31.957031 113.390625 C 32.515625 113.5625 33.132812 113.820312 33.742188 113.863281 C 36.554688 114.070312 39.753906 111.96875 39.757812 109.929688 Z M 39.757812 109.929688 " fill-opacity="1" fill-rule="nonzero"/><path fill="#7cb15a" d="M 137.769531 32.363281 C 138.109375 32.640625 138.535156 30.871094 139.34375 30.519531 C 140.054688 30.113281 138.574219 32.171875 138.75 33.429688 C 138.765625 34.347656 139.308594 33.726562 139.847656 33.476562 C 143.234375 32.164062 144.296875 28.75 143.304688 24.277344 C 143.171875 23.921875 143.335938 23.003906 142.730469 24.121094 C 142.007812 25.054688 140.59375 25.363281 139.589844 26.230469 C 138.390625 27.277344 137.5625 28.746094 137.398438 30.621094 C 137.355469 31.117188 137.050781 32.050781 137.769531 32.363281 Z M 137.769531 32.363281 " fill-opacity="1" fill-rule="nonzero"/><path fill="#7cb15a" d="M 72.066406 157.652344 C 69.460938 156.617188 67.792969 158.355469 66.316406 159.613281 C 65.40625 160.398438 64.28125 161.027344 64.125 162.144531 C 66.894531 163.574219 71.46875 163.367188 73.449219 161.109375 C 74.691406 159.710938 73.65625 158.285156 72.066406 157.652344 Z M 72.066406 157.652344 " fill-opacity="1" fill-rule="nonzero"/><path fill="#7cb15a" d="M 86.910156 80.394531 C 88.726562 78.601562 91.269531 76.453125 90.234375 72.695312 C 90.121094 72.300781 88.652344 69.234375 88.136719 69.734375 C 85.84375 71.976562 84.285156 76.90625 86.910156 80.394531 Z M 88.398438 75.023438 C 88.425781 75.832031 88.667969 77.546875 87.707031 77.753906 C 87.53125 76.824219 87.273438 75.066406 88.398438 75.023438 Z M 88.398438 75.023438 " fill-opacity="1" fill-rule="nonzero"/><path fill="#7cb15a" d="M 83.390625 84.289062 C 82.839844 82.648438 81.722656 81.417969 80.515625 80.625 C 79.957031 80.261719 79.257812 80.257812 78.71875 79.972656 C 78.058594 79.621094 77.699219 78.617188 76.984375 78.667969 C 76.5 79.859375 76.382812 81.804688 77.015625 82.949219 C 77.230469 83.335938 77.882812 83.683594 78.277344 84.089844 C 78.9375 84.761719 79.460938 85.847656 80.15625 86.316406 C 81.074219 86.9375 82.460938 86.945312 83.449219 87.167969 C 84.082031 86.277344 83.664062 85.097656 83.390625 84.289062 Z M 80.609375 84.253906 C 80.132812 83.664062 79.535156 83.097656 79.132812 82.558594 C 78.800781 82.121094 78.480469 81.449219 78.667969 80.71875 C 79.367188 80.960938 80.09375 81.691406 80.402344 82.027344 C 80.714844 81.992188 80.566406 82.265625 80.710938 82.566406 C 81.09375 83.363281 82.351562 84.648438 82.253906 85.550781 C 81.589844 85.734375 81.09375 84.855469 80.609375 84.253906 Z M 80.609375 84.253906 " fill-opacity="1" fill-rule="nonzero"/><path fill="#302f3b" d="M 105.449219 164.496094 C 105.648438 165.441406 104.304688 169.816406 103.890625 170.285156 C 103.726562 170.472656 103.59375 170.71875 103.46875 170.957031 C 103.46875 170.957031 103.542969 170.78125 103.570312 170.71875 C 103.558594 170.75 103.527344 170.820312 103.46875 170.957031 C 103.230469 171.554688 102.117188 171.734375 102.796875 171.183594 C 103.476562 170.632812 103.289062 170.363281 103.640625 170.035156 C 104.285156 169.175781 105.109375 165.035156 105.179688 164.539062 " fill-opacity="1" fill-rule="nonzero"/><path fill="#30303c" d="M 108.0625 49.019531 C 107.476562 48.210938 107.746094 47.339844 107.660156 46.441406 C 107.535156 45.21875 107.3125 43.75 107 42.476562 C 106.660156 41.152344 105.976562 39.832031 106.078125 38.808594 C 106.203125 37.460938 106.285156 36.011719 107.476562 35.390625 C 108.652344 34.875 109.605469 33.933594 110.429688 33.097656 C 111.238281 32.285156 111.296875 32.152344 111.523438 30.816406 C 111.769531 29.390625 111.496094 28.75 111.253906 27.390625 C 111.128906 26.695312 111.207031 25.941406 110.78125 25.363281 C 109.316406 25.933594 108.386719 27.300781 107.507812 28.507812 C 107 29.210938 106.320312 29.863281 106.03125 30.4375 C 105.800781 30.914062 105.160156 32.382812 105.226562 32.898438 C 105.292969 33.355469 105.886719 33.671875 105.945312 34.253906 C 105.988281 34.65625 105.980469 35.21875 105.359375 35.488281 C 104.5625 35.144531 105.140625 34.019531 104.964844 33.28125 C 104.882812 32.949219 104.59375 32.765625 104.457031 32.472656 C 103.800781 31.015625 103.878906 28.570312 104.285156 27.183594 C 105.152344 24.191406 109.105469 23.363281 108.375 20 C 108.210938 19.214844 107.382812 18.160156 106.941406 17.378906 C 106.523438 16.644531 106.027344 15.082031 105.148438 15.144531 C 104.492188 15.1875 103.953125 16.550781 103.578125 17.175781 C 103.042969 18.082031 102.539062 18.871094 102.402344 19.65625 C 101.957031 22.238281 103.832031 23.582031 103.652344 26.003906 C 103.445312 26.523438 103.054688 26.480469 102.972656 27.15625 C 102.855469 28.035156 103.53125 29.335938 102.742188 29.867188 C 102.039062 29.738281 102.289062 27.503906 102.582031 26.902344 C 102.332031 25.753906 101.453125 24.804688 100.855469 23.921875 C 100.265625 23.035156 99.582031 21.851562 98.15625 21.917969 C 97.464844 22.441406 97.664062 23.5 97.632812 24.453125 C 97.527344 27.589844 97.839844 28.945312 99.679688 30.113281 C 100.761719 30.789062 101.472656 31.042969 102.117188 32.316406 C 102.621094 33.304688 103.351562 34.503906 103.5625 35.21875 C 103.707031 35.734375 103.632812 36.335938 103.734375 36.789062 C 103.910156 37.597656 104.316406 38.269531 104.5 39.164062 C 104.664062 39.980469 104.894531 40.871094 105.007812 41.839844 C 105.359375 44.804688 105.9375 47.984375 105.914062 50.527344 C 105.90625 51.292969 105.804688 52.265625 105.097656 52.710938 C 104.386719 52.113281 103.160156 51.007812 103 49.84375 C 102.921875 49.296875 103.222656 48.859375 103.292969 48.335938 C 103.683594 45.425781 102.039062 44.160156 100.96875 42.699219 C 100.511719 42.0625 99.808594 40.53125 99.304688 41.015625 C 98.800781 41.5 97.859375 42.890625 97.789062 44.160156 C 97.753906 44.90625 98.15625 45.953125 98.386719 46.730469 C 98.621094 47.503906 98.890625 48.613281 99.253906 49.101562 C 100 50.132812 101.03125 50.074219 101.929688 50.640625 C 102.984375 51.304688 103.5625 53.179688 104.265625 54.617188 C 104.769531 55.644531 105.523438 56.59375 105.710938 57.515625 C 106.019531 58.996094 105.964844 61.316406 105.976562 62.703125 C 105.980469 63.957031 105.8125 66.851562 105.285156 66.660156 C 104.777344 66.480469 104.746094 65.832031 104.441406 65.820312 C 104.046875 65.800781 103.777344 65.898438 103.902344 66.199219 C 104.023438 66.460938 104.128906 66.929688 104.261719 67.34375 C 104.519531 68.15625 104.988281 69.128906 105.039062 69.90625 C 105.097656 70.726562 104.75 71.738281 104.625 72.714844 C 104.003906 77.640625 103.871094 83.976562 104.726562 89.257812 C 104.882812 90.25 105.542969 91.328125 104.976562 92.40625 C 104.203125 92.039062 103.511719 91.039062 103.375 90.160156 C 103.320312 89.765625 103.507812 89.347656 103.5 88.953125 C 103.480469 86.855469 102.34375 85.167969 101.734375 83.28125 C 101.082031 82.671875 100.574219 82.15625 99.871094 81.328125 C 99.46875 80.851562 98.65625 79.339844 97.921875 79.476562 C 97.3125 79.589844 97.144531 81.046875 97.113281 81.9375 C 97.035156 84.058594 98.25 87.816406 98.933594 88.539062 C 99.40625 89.039062 100.5 89.339844 101.203125 89.445312 C 101.609375 89.949219 102.164062 90.273438 102.570312 90.769531 C 103.507812 92.597656 105.324219 93.59375 106.332031 95.324219 C 107.589844 97.464844 107.320312 100.964844 108.425781 103.675781 C 108.714844 104.371094 109.199219 104.960938 109.457031 105.671875 C 110.324219 108.066406 111.164062 110.269531 111.929688 112.332031 C 111.246094 112.738281 110.605469 112.117188 110.035156 111.6875 C 109.480469 111.257812 108.777344 110.71875 108.578125 110.179688 C 108.382812 109.671875 108.5 109.203125 108.414062 108.792969 C 107.90625 106.625 105.625 104.296875 103.964844 103.441406 C 103.542969 103.230469 102.984375 103.203125 102.546875 102.960938 C 101.753906 102.527344 101.402344 101.742188 100.6875 101.101562 C 99.863281 101.59375 99.789062 102.453125 99.96875 103.460938 C 100.273438 105.128906 101.753906 107.613281 102.824219 108.429688 C 103.675781 109.082031 104.914062 109.152344 105.855469 109.761719 C 106.390625 110.105469 106.710938 110.890625 107.34375 111.636719 C 108.890625 113.457031 111.382812 114.535156 112.953125 116.089844 C 114.207031 117.332031 115.285156 119.109375 115.964844 120.589844 C 116.867188 122.550781 117.546875 125.066406 115.6875 126.179688 C 114.449219 125.335938 114.011719 123.792969 113.277344 122.582031 C 111.75 120.066406 109.976562 117.878906 108.195312 115.683594 C 107.28125 114.566406 106.378906 113.265625 105.429688 112.382812 C 105.066406 112.042969 104.582031 111.90625 104.179688 111.605469 C 103.394531 111.019531 102.601562 110.085938 101.652344 109.226562 C 100.78125 108.441406 99.535156 107.566406 99.117188 106.75 C 98.601562 105.765625 98.550781 104.515625 98.285156 103.261719 C 98.21875 102.929688 98.15625 102.289062 97.765625 102.167969 C 96.835938 102.320312 98.128906 103.957031 97.21875 104.152344 C 95.59375 102.496094 92.859375 100.738281 91.539062 98.304688 C 90.710938 96.773438 89.789062 94.246094 90.671875 92.214844 C 91.9375 92 92.230469 91.191406 92.898438 90.332031 C 93.355469 89.742188 93.851562 89.339844 94.035156 88.875 C 94.894531 86.574219 94.128906 83.632812 92.851562 81.960938 C 90.941406 83.078125 90.183594 84.949219 89.6875 87.328125 C 89.546875 87.984375 89.277344 90.386719 88.53125 90.269531 C 88.34375 90.238281 87.527344 88.777344 87.398438 88.09375 C 87.304688 87.589844 87.527344 87.023438 87.417969 86.605469 C 87.238281 85.890625 86.320312 85.179688 86.183594 84.253906 C 86.125 83.863281 86.375 83.394531 86.308594 82.949219 C 86.1875 82.199219 85.535156 81.460938 85.265625 80.675781 C 84.96875 79.8125 84.886719 78.863281 84.660156 77.917969 C 84.429688 76.929688 83.914062 76.085938 83.769531 75.082031 C 83.71875 74.734375 83.855469 74.257812 83.808594 73.871094 C 83.632812 72.628906 82.914062 71.46875 82.972656 70.289062 C 82.992188 69.855469 83.34375 69.410156 83.367188 68.96875 C 83.457031 67.632812 83.234375 66.324219 82.992188 65.179688 C 82.675781 65.132812 82.75 65.519531 82.074219 65.507812 C 81.226562 63.457031 81.164062 61.410156 80.464844 59.441406 C 80.03125 58.207031 79.226562 57.070312 78.800781 55.800781 C 78.121094 53.839844 77.613281 51.875 77.367188 49.648438 C 77.789062 49.335938 78.117188 49.691406 78.488281 49.59375 C 78.738281 49.523438 78.96875 49.183594 79.289062 49.082031 C 79.636719 48.988281 79.980469 49.082031 80.308594 48.941406 C 81.765625 48.300781 83.027344 45.03125 83.085938 43.320312 C 83.117188 42.246094 82.960938 40.664062 82.386719 40.46875 C 81.964844 40.332031 81.675781 40.984375 80.859375 41.472656 C 80.507812 41.6875 80.089844 41.742188 79.855469 41.902344 C 78.996094 42.476562 77.910156 44.761719 77.71875 45.445312 C 77.550781 46.054688 77.890625 47.113281 76.964844 47.058594 C 76.175781 46.644531 76.820312 44.390625 76.066406 44.039062 C 75.453125 44.347656 75.875 45.144531 75.867188 45.632812 C 75.867188 46.078125 75.734375 46.542969 75.746094 46.9375 C 75.839844 50.117188 77.589844 53.890625 77.78125 56.035156 C 77.78125 55.984375 77.699219 55.933594 77.6875 56.039062 C 77.625 56.039062 77.5625 56.046875 77.507812 56.046875 C 76.644531 54.832031 74.578125 52.566406 73.308594 51.894531 C 72.636719 51.550781 71.6875 51.296875 70.867188 51.28125 C 71.238281 55.46875 72.976562 58.988281 77.117188 59.328125 C 77.542969 59.535156 77.972656 59.753906 78.355469 60.011719 C 78.285156 59.535156 77.910156 58.160156 78.441406 57.960938 C 79.527344 58.613281 78.679688 59.875 78.757812 60.457031 C 78.824219 61.023438 79.390625 61.53125 79.671875 62.082031 C 81.113281 64.875 81.339844 68.726562 81.878906 72.566406 C 81.804688 73.015625 81.15625 72.953125 81.074219 73.167969 C 81.421875 73.953125 82.136719 74.320312 82.46875 75.050781 C 82.921875 76.046875 83.089844 77.515625 83.40625 78.90625 C 84.140625 82.121094 85.21875 85.257812 85.910156 88.167969 C 86.019531 88.59375 85.960938 89.0625 86.070312 89.460938 C 86.183594 89.84375 86.484375 90.179688 86.589844 90.550781 C 86.941406 91.785156 86.941406 92.886719 87.40625 93.851562 C 87.609375 94.277344 87.941406 94.703125 88.21875 95.113281 C 89.371094 96.855469 90.351562 98.585938 91.183594 100.539062 C 91.640625 101.070312 92.105469 101.597656 92.300781 102.433594 C 90.65625 103.40625 89.179688 101.410156 89.027344 100.085938 C 87.625 99.316406 87.1875 97.570312 85.980469 96.617188 C 84.78125 95.671875 83.160156 95.199219 81.34375 94.898438 C 81.664062 98.644531 84.082031 101.242188 87.542969 101.929688 C 88.46875 102.113281 89.371094 102.0625 90.171875 102.453125 C 90.597656 102.660156 91.070312 102.972656 91.507812 103.21875 C 92.996094 104.039062 93.519531 104.859375 94.628906 106.128906 C 95.96875 107.664062 97.042969 109 98.367188 110.3125 C 99.023438 110.957031 99.996094 111.410156 100.242188 112.445312 C 97.941406 112.425781 95.285156 111.925781 92.953125 111.515625 C 92.273438 111.390625 91.054688 110.875 90.742188 111.8125 C 91.21875 112.726562 93.726562 112.238281 93.78125 113.328125 C 93.808594 113.757812 93.253906 113.855469 92.890625 114.113281 C 91.898438 114.839844 90.847656 115.882812 90.710938 116.925781 C 92.117188 116.257812 92.964844 115.253906 94.503906 114.867188 C 95.730469 114.558594 97.371094 114.527344 98.394531 114.761719 C 102.0625 115.601562 104.875 119.601562 106.6875 122.613281 C 107.363281 123.757812 108.394531 125.179688 108.820312 126.316406 C 110.613281 131.160156 112.089844 135.160156 112.09375 141.484375 C 112.09375 143.511719 110.550781 147.695312 108.507812 147.707031 C 107.453125 147.714844 105.636719 146.222656 105.140625 145.367188 C 104.976562 145.074219 104.921875 144.621094 104.714844 144.269531 C 104.4375 143.78125 104.007812 143.429688 103.816406 142.921875 C 103.59375 142.339844 103.683594 141.773438 103.53125 141.078125 C 103.292969 139.960938 102.695312 138.824219 102.519531 137.691406 C 102.332031 136.433594 102.519531 134.890625 102.414062 133.699219 C 102.375 133.265625 102.382812 132.03125 101.585938 132.070312 C 101.21875 133.5625 101.394531 134.960938 101.558594 136.992188 C 100.710938 137.558594 101.175781 138.183594 101.296875 139.144531 C 101.453125 140.457031 101.433594 141.90625 100.628906 142.433594 C 98.015625 140.90625 94.628906 140.066406 91.265625 138.90625 C 87.992188 137.777344 84.429688 136.925781 81.628906 135.582031 C 81.09375 135.324219 80.445312 134.867188 79.71875 134.566406 C 78.996094 134.265625 78.183594 134.050781 77.71875 133.644531 C 76.304688 132.382812 75.734375 130.0625 75.558594 127.621094 C 77.46875 125.746094 77.707031 119.980469 75.539062 118.046875 C 74.886719 118.4375 74.585938 119.125 74.335938 119.878906 C 72.820312 121.304688 71.785156 123.097656 72.109375 125.382812 C 72.355469 127.101562 73.617188 127.484375 74.125 128.625 C 74.496094 129.425781 74.484375 130.375 74.8125 131.097656 C 75.09375 131.71875 75.695312 131.988281 75.535156 132.644531 C 72.871094 131.9375 70.292969 130.292969 68.542969 128.253906 C 67.863281 126.6875 66.394531 125.242188 66.140625 123.078125 C 65.890625 120.941406 66.769531 119.515625 66.148438 117.691406 C 66.066406 117.46875 65.789062 117.082031 65.640625 116.78125 C 64.859375 115.3125 63.914062 114.609375 62.789062 113.675781 C 62.429688 113.375 61.953125 112.828125 61.347656 112.816406 C 60.675781 113.855469 60.734375 115.414062 60.804688 116.65625 C 60.902344 118.582031 61.476562 120.625 62.636719 121.671875 C 63.222656 122.207031 64.320312 122.105469 64.90625 122.582031 C 65.464844 123.027344 65.402344 123.976562 65.664062 124.777344 C 65.910156 125.53125 66.652344 126.289062 66.238281 126.980469 C 65.21875 126.90625 64.425781 125.996094 63.648438 125.34375 C 62.8125 124.648438 62.007812 123.902344 61.222656 123.242188 C 58.835938 121.308594 56.851562 118.648438 54.292969 116.617188 C 52.511719 115.199219 50.28125 113.667969 48.332031 112.457031 C 47.625 112.023438 46.945312 111.367188 46.3125 111.078125 C 45.570312 110.738281 44.527344 110.6875 43.679688 110.460938 C 42.84375 110.238281 41.976562 109.761719 41.160156 110.128906 C 41.566406 111.035156 42.761719 111.386719 43.652344 111.769531 C 44.691406 112.199219 45.859375 112.566406 46.78125 113.003906 C 48.515625 113.824219 49.878906 115.160156 51.230469 116.496094 C 52.59375 117.851562 54.25 119.011719 55.148438 120.667969 C 53.792969 121.636719 53.289062 120.1875 52.316406 119.703125 C 51.871094 119.472656 50.695312 119.058594 49.867188 118.988281 C 48.195312 118.851562 47.898438 119.507812 46.761719 119.980469 C 45.8125 120.375 43.878906 120.652344 43.960938 121.515625 C 44.003906 122 44.972656 122.195312 45.589844 122.457031 C 47.578125 123.3125 48.507812 123.117188 50.816406 122.933594 C 51.121094 122.910156 51.667969 123.046875 51.933594 122.972656 C 52.636719 122.765625 53.152344 121.867188 53.90625 121.753906 C 54.796875 121.625 56.519531 122.039062 57.285156 122.421875 C 57.886719 122.726562 58.523438 123.574219 59.136719 124.183594 C 60.394531 125.4375 61.75 126.523438 62.84375 127.714844 C 63.441406 128.359375 64.269531 128.867188 64.425781 129.679688 C 61.570312 131.097656 60.695312 127.964844 58.648438 127.277344 C 57.84375 127.011719 56.75 126.925781 55.933594 126.949219 C 54.292969 126.992188 52.53125 127.484375 51.4375 128.109375 C 51.832031 128.925781 52.609375 129.609375 53.308594 130.15625 C 54.023438 130.707031 55.054688 131.296875 55.882812 131.511719 C 56.441406 131.65625 57.371094 131.855469 58.039062 131.867188 C 59.300781 131.878906 60.660156 131.039062 62.078125 130.921875 C 63.371094 130.808594 64.730469 130.863281 66.054688 130.625 C 68.253906 132.546875 70.839844 134.027344 73.265625 135.554688 C 74.046875 136.050781 75.21875 136.304688 75.578125 137.300781 C 74.316406 137.902344 71.910156 137.789062 69.957031 138.148438 C 68.605469 138.398438 66.777344 138.730469 65.683594 138.085938 C 65.226562 137.816406 64.941406 137.035156 64.777344 136.828125 C 63.769531 135.492188 62.246094 133.855469 59.992188 134.007812 C 59.007812 134.070312 55.589844 135.015625 55.640625 135.988281 C 55.671875 136.515625 57.710938 137.820312 58.0625 138.007812 C 59.761719 138.925781 62.261719 138.53125 64.496094 138.613281 C 65.085938 138.628906 65.996094 138.59375 66.199219 139.269531 C 65.582031 140.191406 63.742188 140 63.320312 141.089844 C 64.371094 141.597656 65.382812 140.644531 66.355469 140.65625 C 66.707031 140.65625 67.058594 140.921875 67.390625 140.882812 C 67.855469 140.832031 68.289062 140.394531 68.75 140.253906 C 70.445312 139.746094 72.644531 139.953125 74.496094 139.964844 C 76.484375 139.980469 78.550781 140.429688 80.1875 140.699219 C 80.859375 140.808594 81.578125 140.699219 82.238281 140.78125 C 83.824219 140.984375 85.082031 142.03125 86.507812 142.609375 C 87.734375 143.109375 89.117188 143.277344 90.191406 143.820312 C 91.257812 144.351562 92.230469 145.109375 93.253906 145.707031 C 94.316406 146.328125 95.65625 146.792969 96.058594 147.984375 C 94.988281 149.359375 93.011719 149.773438 90.71875 150.667969 C 89.078125 151.316406 87.570312 152.445312 86.167969 152.570312 C 85.558594 152.625 84.925781 152.402344 84.304688 152.386719 C 83.171875 152.363281 82.03125 152.765625 81.15625 152.546875 C 80.414062 152.363281 80.144531 151.535156 79.597656 151.140625 C 77.910156 149.921875 75.515625 150.605469 73.773438 151.617188 C 73.183594 151.960938 71.550781 152.785156 71.640625 153.492188 C 71.726562 154.121094 73.253906 154.433594 73.835938 154.683594 C 74.578125 154.996094 75.648438 155.488281 76.382812 155.480469 C 77.304688 155.476562 78.605469 155.25 79.335938 155.054688 C 80.28125 154.789062 80.546875 153.78125 81.394531 153.554688 C 81.859375 153.429688 82.664062 153.421875 83.234375 153.375 C 83.832031 153.316406 84.675781 153.101562 84.917969 153.566406 C 84.523438 154.289062 83.738281 154.742188 83.058594 155.242188 C 81.25 156.558594 79.277344 157.941406 76.914062 158.71875 C 76.1875 158.957031 75.101562 158.925781 74.730469 159.570312 C 75.042969 160.230469 76.539062 160.015625 77.160156 159.917969 C 79.886719 159.472656 82.46875 157.226562 84.867188 156.175781 C 85.722656 155.808594 86.648438 155.171875 87.613281 155.394531 C 87.851562 156.371094 86.984375 157.261719 86.824219 158.128906 C 86.652344 159.027344 86.898438 159.960938 86.777344 160.824219 C 86.578125 162.28125 86.125 163.9375 85.597656 165.066406 C 85.070312 166.214844 83.976562 167.050781 83.90625 168.316406 C 85.101562 168.164062 85.894531 167.074219 86.488281 166.234375 C 87.078125 165.398438 87.714844 164.207031 88.097656 163.085938 C 88.9375 160.550781 88.550781 156.8125 90.300781 155.253906 C 91.246094 154.414062 94.089844 153.9375 95.429688 153.875 C 97.527344 153.78125 100.078125 154.710938 101.472656 155.894531 C 102.824219 157.050781 103.863281 158.628906 104.304688 160.9375 C 104.75 163.246094 103.425781 168.609375 102.34375 170.5 C 101.515625 171.941406 100.738281 174.289062 100.164062 176 C 100.019531 176.460938 99.875 176.875 99.757812 177.230469 C 99.503906 177.953125 98.941406 179.082031 98.335938 180.28125 C 97.507812 181.949219 96.648438 183.671875 96.394531 184.726562 L 96.195312 185.613281 C 95.800781 187.289062 95.359375 189.1875 94.863281 190.117188 C 94.5625 190.675781 93.921875 191.773438 93.273438 192.863281 C 92.625 193.960938 91.984375 195.066406 91.683594 195.625 C 91.132812 196.648438 89.390625 197.757812 86.773438 198.753906 C 85.734375 199.148438 84.84375 199.414062 83.996094 199.675781 C 82.808594 200.035156 81.773438 200.347656 80.660156 200.90625 C 80.21875 201.125 79.71875 201.402344 79.183594 201.683594 C 77.574219 202.558594 75.753906 203.542969 74.289062 203.796875 C 73.46875 203.9375 72.582031 204.011719 71.640625 204.085938 C 70.363281 204.195312 69.039062 204.300781 67.832031 204.601562 C 65.796875 205.117188 63.097656 206.058594 61.941406 206.589844 C 61.429688 206.828125 61.367188 207.066406 61.40625 207.222656 C 61.5 207.652344 62.519531 207.796875 63.574219 207.507812 C 64.972656 207.125 67.25 206.910156 69.320312 206.992188 L 69.429688 206.992188 C 69.90625 207.011719 70.476562 207.035156 71.128906 207.035156 C 74.578125 207.035156 77.632812 206.339844 80.464844 204.910156 C 82.996094 203.628906 85.925781 203.359375 87.929688 203.359375 L 88.6875 203.359375 C 89.605469 203.359375 89.605469 203.359375 89.804688 203.773438 L 89.867188 203.90625 C 90.007812 204.179688 89.976562 204.476562 89.761719 204.789062 C 89.574219 205.078125 89.242188 205.355469 88.839844 205.554688 C 87.085938 206.433594 86.195312 207.140625 85.332031 207.832031 C 84.710938 208.320312 84.132812 208.785156 83.253906 209.300781 C 82.292969 209.867188 81.707031 210.613281 81.847656 211.113281 C 81.890625 211.265625 82.042969 211.535156 82.589844 211.535156 C 83.171875 211.535156 84.039062 211.234375 85.101562 210.667969 C 86.777344 209.777344 87.828125 209.507812 88.84375 209.246094 C 89.667969 209.039062 90.523438 208.816406 91.679688 208.273438 C 94.164062 207.109375 100.121094 204.757812 103.261719 204.339844 C 105.976562 203.972656 108.195312 203.800781 110.058594 203.800781 C 114.160156 203.800781 116.367188 204.640625 119.511719 206.027344 C 120.675781 206.535156 121.886719 206.761719 123.464844 206.761719 C 124.335938 206.761719 125.222656 206.691406 126.164062 206.621094 C 127.171875 206.546875 128.214844 206.464844 129.3125 206.464844 C 131.167969 206.464844 132.785156 206.695312 134.414062 207.199219 C 135.851562 207.636719 136.925781 207.695312 137.707031 207.695312 C 138.125 207.695312 138.542969 207.675781 138.949219 207.65625 C 139.859375 207.613281 140.800781 207.601562 141.667969 207.714844 C 143.761719 207.984375 145.25 207.699219 145.351562 207.0625 C 145.394531 206.792969 145.167969 206.554688 144.746094 206.421875 C 144.421875 206.320312 143.988281 206.171875 143.492188 205.996094 C 142.253906 205.5625 140.707031 205.023438 139.558594 204.816406 C 133.667969 203.765625 132.429688 202.925781 131.128906 202.042969 C 130.3125 201.488281 129.46875 200.914062 127.503906 200.253906 C 122.957031 198.734375 120.417969 195.625 119.734375 190.730469 C 119.136719 186.464844 121.4375 181.429688 122.886719 179.121094 C 123.566406 178.035156 124.25 176.929688 124.898438 175.871094 C 125.652344 174.660156 126.359375 173.503906 127.007812 172.488281 C 128.175781 170.65625 131.171875 167.519531 131.171875 167.519531 C 132.289062 166.597656 133.226562 165.441406 134.230469 164.421875 C 135.199219 163.417969 136.261719 162.386719 137.316406 161.285156 C 138.277344 160.28125 139.195312 159.09375 139.898438 158.203125 C 140.609375 157.3125 140.074219 157.496094 139.777344 157.375 C 139.484375 157.257812 138.414062 158.617188 137.59375 159.503906 C 137.027344 160.109375 136.183594 160.914062 135.242188 160.738281 C 136.417969 159.28125 137.554688 157.125 137.058594 154.421875 C 136.925781 153.691406 136.539062 152.851562 136.292969 152.136719 C 136.023438 151.347656 135.882812 150.410156 135.261719 150.046875 C 133.898438 151.121094 132.699219 153.285156 132.925781 155.273438 C 133.1875 157.640625 134.941406 159.300781 134.164062 161.441406 C 133.84375 162.324219 132.980469 163.335938 132.347656 163.949219 C 131.34375 164.910156 130.109375 165.78125 128.558594 166.371094 C 128.578125 164.632812 129.445312 163.039062 129.695312 161.203125 C 129.960938 159.289062 130.054688 157.3125 130.335938 155.40625 C 130.386719 155.03125 130.65625 154.683594 130.738281 154.269531 C 130.832031 153.820312 130.738281 153.339844 130.859375 152.964844 C 130.992188 152.5625 131.386719 152.136719 131.632812 151.621094 C 133.503906 147.613281 135.765625 143.917969 141.042969 143.242188 C 143.183594 144.101562 146.261719 143.203125 147.667969 142.070312 C 147.914062 141.710938 147.664062 141.433594 147.800781 141.039062 C 148.203125 140.957031 148.648438 140.652344 148.882812 140.332031 C 149.492188 139.488281 150.003906 137.941406 150.207031 137.199219 C 149.402344 136.875 148.636719 137.453125 147.8125 137.59375 C 145.496094 138.003906 143.980469 138.375 142.613281 139.441406 C 141.285156 140.480469 140.613281 142.621094 138.484375 142.164062 C 139.257812 140.148438 141.285156 139.277344 141.457031 136.710938 C 142.839844 135.988281 142.917969 133.441406 144.226562 132.757812 C 144.585938 132.578125 145.019531 132.621094 145.324219 132.519531 C 148.882812 131.328125 149.328125 128.179688 148.957031 123.503906 C 147.921875 123.871094 147.132812 124.699219 146.355469 125.3125 C 145.601562 125.90625 144.652344 126.761719 144.246094 127.652344 C 143.75 128.769531 143.730469 129.992188 143.316406 131.234375 C 143.164062 131.703125 142.730469 132.28125 142.46875 132.765625 C 142.183594 133.265625 142.007812 133.980469 141.417969 134.121094 C 141.140625 133.121094 141.179688 130.832031 141.355469 129.203125 C 141.429688 128.492188 141.84375 127.652344 141.625 127.238281 C 141.375 126.753906 140.976562 126.875 140.664062 126.542969 C 140.457031 125.863281 140.539062 124.855469 139.828125 124.730469 C 139.433594 125.632812 139.921875 126.691406 140.066406 127.59375 C 140.199219 128.410156 140.476562 129.527344 139.722656 130.03125 C 139.117188 129.390625 138.78125 128.46875 138.652344 127.292969 C 137.757812 125.324219 135.820312 124.378906 134.535156 122.859375 C 134.070312 122.3125 134.003906 121.441406 133.152344 121.253906 C 131.769531 124.742188 133.152344 129.089844 135.914062 130.035156 C 136.5 130.238281 137.292969 130.042969 138.070312 130.394531 C 138.636719 130.652344 139.183594 131.554688 139.269531 132.101562 C 139.941406 136.296875 138.617188 138.648438 136.746094 140.964844 C 135.789062 142.148438 134.773438 143.429688 133.546875 143.824219 C 131.457031 141.160156 134.445312 138.605469 134.566406 136.429688 C 134.582031 136.101562 134.40625 135.632812 134.414062 135.230469 C 134.421875 134.679688 134.609375 134.296875 134.535156 133.824219 C 134.394531 133.039062 133.734375 132.5 133.125 131.761719 C 132.675781 131.214844 132.121094 129.9375 131.457031 129.984375 C 130.941406 130.023438 130.460938 131.226562 130.160156 131.816406 C 129.765625 132.578125 129.355469 133.429688 129.351562 134.183594 C 129.339844 135.621094 130.304688 137.972656 130.882812 138.851562 C 131.210938 139.351562 131.664062 139.558594 131.78125 140.105469 C 131.953125 140.875 131.648438 142 131.367188 142.820312 C 130.894531 144.183594 130.3125 146.878906 128.691406 146.765625 C 127.511719 146.6875 126.707031 143.277344 126.574219 141.667969 C 126.328125 138.675781 126.902344 135.015625 127.421875 132.703125 C 127.636719 131.734375 127.636719 130.707031 127.925781 129.886719 C 128.042969 129.554688 128.371094 129.226562 128.523438 128.835938 C 129.632812 126.007812 130.445312 122.945312 132.542969 120.078125 C 133.847656 118.296875 135.496094 116.511719 137.203125 115.011719 C 137.867188 114.425781 138.347656 113.699219 138.980469 113.4375 C 139.371094 113.273438 140.082031 113.304688 140.722656 113.160156 C 141.136719 113.066406 141.398438 112.828125 141.726562 112.828125 C 142.710938 112.828125 143.75 113.457031 144.734375 113.605469 C 147.78125 114.0625 149.347656 111.792969 150.210938 109.980469 C 150.476562 109.441406 150.867188 108.769531 150.867188 108.089844 C 150.199219 107.683594 149.609375 108.152344 149.019531 108.273438 C 147.6875 108.554688 146.203125 108.5 144.972656 109.132812 C 144.488281 109.382812 143.898438 109.917969 143.269531 110.332031 C 142.636719 110.746094 142.085938 111.429688 141.570312 111.535156 C 141.21875 111.605469 140.808594 111.371094 140.445312 111.402344 C 139.28125 111.515625 138.039062 112.859375 136.945312 112.050781 C 137.554688 109.441406 141.046875 108.6875 142.613281 106.648438 C 142.605469 106.203125 142.164062 106.242188 142.285156 105.644531 C 143.132812 104.222656 144.023438 103.054688 144.773438 101.609375 C 145.539062 100.125 145.652344 98.355469 146.480469 96.875 C 146.839844 96.246094 147.53125 95.839844 147.976562 95.3125 C 148.722656 94.445312 149.164062 93.4375 149.878906 92.609375 C 150.597656 91.792969 151.59375 91.015625 152.570312 90.519531 C 153.914062 89.828125 155.40625 89.605469 156.363281 88.46875 C 157.105469 87.582031 157.230469 86.222656 157.480469 84.878906 C 157.644531 83.984375 158.140625 82.917969 157.625 82.175781 C 156.859375 82.113281 156.167969 82.546875 155.617188 82.828125 C 153.867188 83.75 152.554688 84.90625 151.914062 86.738281 C 151.539062 87.816406 151.527344 89.0625 150.972656 90.035156 C 150.664062 90.558594 150.054688 91.027344 149.652344 91.5 C 149.238281 91.96875 148.882812 92.695312 148.226562 92.683594 C 148.71875 90.382812 149.265625 88.6875 150.050781 86.644531 C 150.382812 85.789062 150.785156 84.929688 151.128906 84.078125 C 151.800781 82.414062 152.34375 80.511719 153.378906 79.03125 C 154.121094 77.972656 155.132812 77.175781 155.941406 76.484375 C 157.058594 75.539062 158.203125 75.59375 159.765625 75.085938 C 161.960938 74.367188 162.589844 71.535156 163.199219 69.523438 C 163.375 68.9375 163.78125 68.332031 163.566406 67.648438 C 162.726562 67.640625 162.003906 68.238281 161.300781 68.59375 C 159.640625 69.441406 158.234375 70.292969 157.476562 71.855469 C 157.097656 72.628906 157.085938 73.550781 156.671875 74.316406 C 156.136719 75.308594 154.785156 76.5 153.835938 76.96875 C 153.800781 75.25 155.394531 74.253906 155.753906 72.597656 C 156.769531 71.511719 157.335938 70.042969 158.160156 68.757812 C 158.96875 67.488281 160.152344 66.421875 160.472656 65.011719 C 159.402344 66.085938 158.285156 67.21875 157.394531 68.332031 C 157.089844 68.707031 156.945312 69.398438 156.332031 69.402344 C 156.167969 67.683594 157.714844 67.207031 158.183594 65.589844 C 158.429688 64.75 158.585938 63.480469 158.480469 62.320312 C 158.367188 61.085938 157.539062 58.460938 156.621094 58.511719 C 155.9375 58.550781 155.558594 59.816406 155.226562 60.445312 C 154.492188 61.855469 154.175781 62.972656 154.332031 64.863281 C 154.472656 66.441406 155.578125 67.421875 155.632812 68.605469 C 155.664062 69.089844 155.371094 69.472656 155.246094 70.023438 C 155.070312 70.796875 155.101562 71.636719 154.894531 72.269531 C 154.339844 73.953125 153.265625 75.539062 152.539062 77.132812 C 152.148438 77.972656 151.707031 78.769531 151.355469 79.515625 C 150.960938 80.355469 150.753906 81.375 150.175781 81.804688 C 149.464844 81.535156 149.277344 80.480469 149.332031 79.804688 C 149.390625 78.988281 150.101562 78.015625 150.402344 77.152344 C 150.722656 76.230469 151.078125 75.117188 150.992188 74.050781 C 150.820312 72.070312 149.421875 70.902344 149.050781 68.757812 C 148.253906 69.007812 147.832031 69.960938 147.378906 70.703125 C 146.972656 71.386719 146.3125 72.296875 146.199219 73.085938 C 145.882812 75.371094 147.128906 76.835938 147.742188 78.03125 C 148.132812 78.761719 148.492188 79.773438 148.625 80.589844 C 148.996094 82.921875 148.351562 84.617188 148.367188 86.546875 C 148.367188 86.929688 148.566406 87.371094 148.523438 87.839844 C 148.378906 89.359375 147.285156 90.707031 146.59375 92.023438 C 146.160156 92.871094 146.210938 93.996094 145.136719 94.332031 C 144.617188 93.648438 144.777344 92.503906 145.011719 91.832031 C 145.34375 90.863281 146.488281 90.082031 146.734375 89.234375 C 146.570312 86.4375 145.847656 83.644531 144.953125 81.699219 C 144.144531 82.351562 143.71875 83.457031 143.246094 84.476562 C 142.8125 85.425781 142.171875 86.675781 142.117188 87.789062 C 142.003906 89.90625 143.625 91.378906 143.785156 93.28125 C 143.90625 94.710938 143.339844 96.339844 142.902344 97.878906 C 141.984375 101.128906 141.136719 103.285156 139.296875 105.40625 C 138.445312 106.378906 137.585938 107.695312 136.167969 107.796875 C 136.511719 106.71875 136.832031 105.71875 137.316406 104.855469 C 138.339844 103.011719 140.59375 102.050781 140.46875 99.214844 C 140.175781 97.535156 139.457031 96.179688 139.042969 94.917969 C 138.804688 94.222656 138.917969 93.367188 138.289062 92.910156 C 136.65625 94.460938 135.003906 97.921875 135.375 101.328125 C 135.5 102.464844 136.367188 103.285156 136.441406 104.0625 C 136.539062 105.160156 135.527344 107.230469 134.972656 108.042969 C 134.539062 108.675781 133.992188 109.1875 133.296875 109.804688 C 132.832031 110.210938 131.820312 111.171875 131.039062 111.121094 C 129.570312 111.039062 129.839844 109.378906 129.765625 107.839844 C 129.671875 106.007812 129.066406 103.363281 129.097656 101.925781 C 129.125 100.558594 129.804688 99.222656 128.390625 98.894531 C 127.878906 95.269531 127.078125 90.417969 127.289062 86.398438 C 127.390625 84.585938 127.660156 83.5625 128.382812 82.34375 C 129.066406 81.210938 129.445312 80.589844 130.386719 79.734375 C 131.335938 78.882812 131.5 78.976562 132.667969 78.964844 C 135.769531 78.953125 137.554688 77 137.933594 74.699219 C 138.101562 73.605469 138.007812 72.539062 138.328125 71.515625 C 138.507812 70.941406 139.101562 70.519531 138.796875 69.816406 C 137.757812 69.816406 137.339844 70.722656 136.542969 71.140625 C 135.996094 71.4375 135.5 71.484375 135.09375 71.679688 C 132.433594 72.933594 131.882812 75.300781 130.75 77.566406 C 130.074219 78.933594 129.722656 80.449219 128.410156 80.847656 C 127.699219 79.980469 128.195312 78.75 128.34375 77.777344 C 128.523438 76.667969 128.597656 75.476562 128.824219 74.410156 C 129.570312 70.914062 130.832031 66.824219 133.566406 65.339844 C 134.34375 64.917969 135.074219 65.070312 136.054688 64.9375 C 137.707031 64.71875 139.050781 63.429688 139.632812 62.339844 C 140.035156 61.59375 140.613281 60.25 140.785156 59.308594 C 140.890625 58.695312 140.785156 58.042969 140.878906 57.445312 C 140.960938 56.925781 141.355469 56.453125 141.078125 55.945312 C 139.949219 56.214844 139.617188 57.390625 138.585938 58.03125 C 137.644531 58.613281 136.511719 58.789062 135.683594 59.382812 C 134.859375 59.972656 133.898438 61.152344 133.507812 62.28125 C 133.113281 63.425781 133.433594 66.066406 131.636719 65.726562 C 131.75 64.214844 132.585938 63.398438 133.042969 62.214844 C 133.433594 61.191406 133.539062 59.886719 134.074219 58.726562 C 135.28125 56.054688 135.828125 52.9375 136.109375 49.511719 C 136.304688 47.164062 136.503906 46.695312 138.628906 46.128906 C 139.546875 45.882812 140.808594 45.882812 141.570312 45.515625 C 142.617188 45 143.253906 43.1875 143.617188 41.875 C 144.0625 40.25 144.734375 38.863281 144.410156 37.464844 C 141.089844 38.1875 139.054688 40.269531 137.917969 43.09375 C 137.5625 43.976562 137.359375 45.289062 136.460938 45.488281 C 135.851562 44.863281 136.222656 43.902344 136.253906 43.085938 C 136.425781 37.710938 137.546875 35.34375 136.988281 35.613281 C 136.296875 35.882812 136.179688 36.824219 135.972656 37.523438 C 135.488281 39.117188 135.066406 41.015625 135.042969 42.960938 C 134.980469 46.730469 134.746094 49.699219 134.148438 52.867188 C 133.929688 54.035156 133.570312 55.21875 133.214844 56.347656 C 132.824219 57.546875 132.640625 58.777344 132.277344 59.835938 C 132.050781 60.484375 131.554688 61.117188 131.261719 61.75 C 130.023438 64.433594 128.949219 67.597656 128.074219 70.371094 C 127.832031 70.417969 127.492188 70.15625 127.429688 70.496094 C 126.8125 71.121094 127.320312 71.867188 127.269531 72.734375 C 127.203125 73.652344 126.644531 74.628906 126.390625 75.664062 C 125.621094 78.820312 125.273438 81.996094 125.140625 85.765625 C 125.058594 88.054688 124.703125 90.394531 124.839844 92.753906 C 124.910156 93.789062 124.722656 94.464844 124.789062 95.355469 C 124.820312 95.800781 125.042969 96.191406 125.136719 96.640625 C 125.285156 97.425781 125.304688 98.386719 125.457031 99.320312 C 126.035156 102.992188 126.191406 106.898438 125.84375 110.644531 C 125.652344 112.738281 125.730469 114.710938 125.28125 116.066406 C 125.136719 116.515625 124.722656 116.96875 124.519531 117.5 C 124.175781 118.425781 123.679688 119.859375 122.792969 119.910156 C 122.082031 119.953125 120.933594 118.632812 120.457031 117.890625 C 119.851562 116.949219 119.21875 115.589844 119.078125 114.425781 C 118.785156 111.980469 118.390625 108.667969 119.0625 106.804688 C 119.511719 105.542969 120.894531 104.992188 121.242188 103.90625 C 121.820312 102.050781 120.875 100.5 120.328125 98.933594 C 120.027344 98.058594 119.726562 96.402344 119.09375 96.390625 C 118.539062 96.386719 118.539062 97.074219 118.136719 97.644531 C 117.421875 98.65625 116.171875 99.578125 116.089844 101.191406 C 115.988281 103.285156 116.824219 104.710938 117.628906 105.859375 C 117.007812 107.238281 117.503906 109.796875 116.289062 110.671875 C 114.269531 109.132812 113.125 105.964844 112.011719 103.261719 C 111.59375 102.230469 111.101562 101.210938 111.027344 100.25 C 110.84375 98.125 111.277344 95.023438 112.289062 93.957031 C 112.761719 93.457031 113.507812 93.367188 113.996094 93.035156 C 115.855469 91.769531 116.742188 89.460938 116.347656 86.222656 C 116.234375 85.351562 116.140625 84.390625 115.667969 83.746094 C 114.75 84.058594 114.414062 85.125 113.640625 85.800781 C 112.753906 86.574219 111.804688 87.042969 111.339844 88.15625 C 111.0625 88.820312 110.757812 90.023438 110.839844 91.058594 C 110.875 91.472656 111.160156 91.917969 111.183594 92.34375 C 111.246094 93.179688 111.03125 94.089844 110.851562 94.875 C 110.695312 95.570312 110.675781 96.554688 110.019531 96.957031 C 109.121094 96.242188 109.265625 94.96875 108.933594 93.761719 C 108.21875 91.160156 107.289062 88.058594 107.296875 85.292969 C 107.300781 83.378906 108.175781 81.742188 108.714844 80.292969 C 110.832031 79.191406 113.453125 78.585938 114.457031 76.285156 C 115.070312 74.878906 115.246094 69.277344 113.714844 68.984375 C 112.796875 68.800781 111.574219 70.507812 111.039062 71.160156 C 110.273438 72.101562 109.5625 72.933594 109.140625 74.046875 C 108.550781 75.621094 109.054688 77.640625 108.65625 79.183594 C 108.550781 79.617188 108.21875 79.847656 107.972656 80.238281 C 107.773438 80.5625 107.710938 81.253906 107.1875 81.210938 C 106.660156 80.703125 106.84375 79.886719 106.804688 79.277344 C 106.453125 72.300781 107.320312 67.019531 111.046875 64.003906 C 111.429688 63.695312 111.914062 63.582031 112.3125 63.285156 C 113.980469 62.074219 114.304688 60.476562 114.167969 57.710938 C 114.105469 56.519531 114.054688 55.125 113.621094 54.203125 C 112.753906 54.453125 112.371094 55.394531 111.855469 56.054688 C 110.296875 58.046875 108.476562 60.199219 108.902344 63.828125 C 109.042969 65.019531 108.851562 66.625 108.113281 66.472656 C 107.363281 66.324219 108.035156 64.554688 108.148438 63.589844 C 108.515625 60.5 108.527344 57.039062 108.210938 53.730469 M 137.472656 99.859375 C 137.945312 100.417969 138.328125 102.527344 137.339844 102.753906 C 136.511719 102.558594 136.058594 99.527344 137.472656 99.859375 Z M 134.144531 76.421875 C 134.570312 76.648438 133.875 77.726562 133.359375 77.390625 C 133.476562 76.9375 133.875 76.738281 134.144531 76.421875 Z M 114.925781 87.339844 C 115.109375 87.332031 115.296875 87.328125 115.488281 87.3125 C 115.410156 89.058594 115.101562 90.570312 113.726562 91.121094 C 113.445312 89.878906 114.769531 88.761719 114.925781 87.339844 Z M 111.492188 59.816406 C 111.523438 59.371094 112.050781 60.042969 112.039062 59.605469 C 112.152344 59.628906 112.277344 59.753906 112.144531 59.785156 C 111.710938 60.519531 111.863281 62.378906 110.710938 62.742188 C 110.386719 61.585938 111.453125 60.261719 111.492188 59.816406 Z M 109.285156 30.929688 C 109.230469 31.667969 109.066406 32.320312 108.242188 32.371094 C 108.519531 31.820312 108.507812 31.023438 109.285156 30.929688 Z M 105.371094 19.691406 C 105.523438 18.894531 105.757812 18.902344 105.933594 19.667969 C 106.101562 20.433594 106.222656 22.269531 105.242188 22.492188 C 105.121094 21.410156 105.226562 20.488281 105.371094 19.691406 Z M 103.144531 32.445312 C 103.003906 32.460938 102.3125 30.746094 102.878906 30.878906 C 103.289062 31.074219 103.464844 32.027344 103.144531 32.445312 Z M 100.367188 43.558594 C 100.980469 43.78125 101.328125 44.308594 101.285156 45.269531 C 100.722656 45.050781 99.851562 44.347656 100.367188 43.558594 Z M 100.574219 86.210938 C 99.726562 86.140625 99.65625 85.207031 99.550781 84.308594 C 99.632812 84.289062 99.644531 84.339844 99.648438 84.398438 C 99.78125 84.351562 99.605469 84.277344 99.636719 84.121094 C 99.964844 84.742188 100.90625 85.46875 100.574219 86.210938 Z M 102.46875 105.355469 C 103.042969 105.957031 103.714844 106.453125 104.222656 107.125 C 103.066406 107.230469 102.628906 106.039062 102.46875 105.355469 Z M 92.933594 87.535156 C 92.746094 88.984375 92.195312 90.105469 91.050781 90.695312 C 90.949219 90.574219 90.800781 90.519531 90.667969 90.433594 C 91.1875 89.253906 92.050781 88.378906 92.933594 87.535156 Z M 80.742188 44.734375 C 81.363281 45.671875 80.875 46.933594 79.835938 47.109375 C 79.90625 46.105469 80.703125 45.757812 80.742188 44.734375 Z M 74.429688 55.660156 C 75.214844 55.898438 75.414062 56.78125 75.730469 57.539062 C 74.929688 57.320312 74.660156 56.511719 74.429688 55.660156 Z M 77.625 56.511719 C 77.769531 56.316406 77.605469 56.390625 77.605469 56.140625 C 77.796875 56.285156 77.726562 56.128906 77.976562 56.121094 C 77.6875 56.554688 77.984375 56.117188 78.003906 56.585938 C 77.8125 56.636719 77.75 56.535156 77.625 56.511719 Z M 82.71875 96.699219 C 82.671875 96.503906 82.777344 96.441406 82.796875 96.316406 C 82.863281 96.316406 82.925781 96.308594 82.984375 96.308594 C 84.417969 97.464844 86.519531 97.867188 86.804688 100.292969 C 84.792969 99.816406 83.921875 98.066406 82.71875 96.699219 Z M 74.515625 125.273438 C 74.234375 125.355469 74.234375 125.128906 73.949219 125.210938 C 74.011719 124.113281 73.484375 122.488281 74.640625 122.386719 C 74.886719 123.285156 74.667969 124.441406 74.515625 125.273438 Z M 50.191406 121.671875 C 50.40625 121.441406 50.046875 121.503906 50.074219 121.214844 C 50.15625 121.140625 50.285156 121.101562 50.445312 121.101562 C 50.40625 121.339844 50.476562 121.660156 50.191406 121.671875 Z M 56.234375 129.175781 C 56.234375 129.082031 56.230469 128.988281 56.222656 128.902344 C 57.441406 128.660156 59.042969 128.832031 59.691406 129.558594 C 59.121094 130.414062 56.933594 129.515625 56.234375 129.175781 Z M 96.777344 192.695312 C 96.507812 193.246094 95.90625 191.628906 95.609375 191.917969 C 95.449219 192.085938 95.464844 192.335938 95.421875 192.480469 C 95.378906 192.625 95.253906 192.351562 95.273438 192.3125 C 95.59375 191.691406 95.492188 191.410156 95.667969 191.039062 C 95.914062 190.230469 95.894531 190.945312 95.945312 191.15625 C 96.058594 191.652344 97.042969 192.136719 96.777344 192.695312 Z M 96.875 188.9375 C 97.230469 189.816406 96.609375 189.148438 96.515625 189.289062 C 96.425781 189.421875 96.476562 189.597656 96.257812 189.550781 C 96.503906 188.578125 96.710938 186.460938 97.300781 186.929688 C 97.898438 187.394531 96.515625 188.058594 96.875 188.9375 Z M 98.273438 187.351562 C 98.363281 188.222656 97.308594 188.609375 97.457031 188.398438 C 98.078125 187.574219 97.886719 186.535156 98.238281 185.59375 C 98.480469 184.910156 98.65625 184.675781 98.765625 184.734375 C 98.910156 184.808594 98.199219 186.464844 98.273438 187.351562 Z M 115.875 185.097656 C 115.761719 184.3125 115.121094 182.199219 116.140625 181.429688 C 115.730469 182.683594 116.246094 184.269531 115.875 185.097656 Z M 103.175781 181.890625 L 102.871094 181.960938 C 104.097656 180.535156 104.078125 179.601562 105.097656 178.78125 C 104.769531 179.671875 104.21875 181.246094 103.175781 181.890625 Z M 105.410156 190.074219 C 106.441406 189.09375 106.011719 185.261719 107.246094 185.359375 C 106.578125 186.566406 106.6875 189.375 105.410156 190.074219 Z M 107.070312 178.386719 C 106.863281 177.957031 107.710938 173.296875 107.96875 172.953125 C 108.675781 173.101562 107.515625 178.328125 107.070312 178.386719 Z M 109.085938 184.394531 C 109.242188 183.6875 108.753906 182.320312 109.34375 182.042969 C 109.273438 183.082031 110.007812 183.878906 109.085938 184.394531 Z M 114.738281 191.320312 C 114.382812 189.1875 113.382812 186.425781 113.664062 186.382812 C 113.941406 186.339844 113.828125 186.496094 113.898438 187.300781 C 113.960938 188.097656 115.203125 189.652344 115.449219 191.546875 C 115.695312 193.433594 116.824219 194.808594 117.0625 195.355469 C 117.195312 195.664062 115.078125 193.390625 114.738281 191.320312 Z M 116.925781 193.742188 C 117.15625 193.78125 117.226562 194.976562 118.230469 196.886719 C 117.957031 197.113281 117.585938 196.027344 117.289062 195.355469 C 116.976562 194.660156 116.8125 193.722656 116.925781 193.742188 Z M 123.984375 202.125 C 124.570312 202.417969 120.027344 201.074219 118.917969 199.929688 C 118.402344 199.40625 117.90625 198.679688 117.710938 198.195312 C 117.515625 197.714844 118.710938 199.179688 119.320312 199.589844 C 120.996094 200.71875 123.40625 201.828125 123.984375 202.125 Z M 120.585938 199.246094 C 120.285156 199.402344 119.921875 198.972656 119.683594 198.800781 C 118.855469 198.183594 118.808594 197.382812 119.105469 197.828125 C 119.796875 198.464844 120.890625 199.082031 120.585938 199.246094 Z M 147.039062 125.871094 C 147.171875 125.957031 147.390625 125.945312 147.519531 126.035156 C 147.648438 126.925781 146.964844 127.671875 146.703125 128.304688 C 146.558594 128.65625 146.605469 129.0625 146.476562 129.339844 C 146.222656 129.855469 145.53125 131.039062 144.796875 131.007812 C 145.011719 129.464844 145.941406 127.1875 147.039062 125.871094 Z M 134.910156 126.304688 C 135.992188 126.640625 136.441406 127.671875 136.792969 128.804688 C 135.675781 128.511719 135.175781 127.539062 134.910156 126.304688 Z M 132.90625 136.347656 C 133.019531 135.25 132.691406 134.648438 132.863281 133.65625 C 132.960938 133.675781 132.9375 133.835938 133.058594 133.832031 C 133.007812 134.710938 133.144531 135.078125 133.074219 136.152344 C 133.027344 137 133.203125 138.492188 132.175781 138.617188 C 131.988281 137.789062 132.015625 136.203125 132.90625 136.347656 Z M 118.671875 99.050781 C 118.859375 99.046875 119.046875 99.03125 119.230469 99.027344 C 119.507812 100.3125 120.058594 101.742188 119.820312 103.273438 C 119.550781 103.316406 119.375 103.457031 119.289062 103.667969 C 118.230469 102.707031 118.632812 100.675781 118.671875 99.050781 Z M 109.605469 156.585938 C 109.699219 156.578125 109.796875 156.578125 109.882812 156.574219 C 109.988281 156.785156 110.070312 157.019531 110.109375 157.304688 C 109.664062 157.394531 109.542969 156.753906 109.605469 156.585938 Z M 108.835938 157.832031 C 109.796875 157.972656 109.582031 159.136719 110.503906 159.609375 C 111.429688 160.078125 109.933594 160.449219 109.445312 160.59375 C 108.882812 160.003906 108.0625 158.753906 108.835938 157.832031 Z M 109.492188 161.609375 C 109.46875 161.265625 109.375 161.351562 109.460938 161.058594 C 109.59375 161.050781 109.714844 161.046875 109.839844 161.039062 C 110.054688 161.265625 109.957031 161.734375 109.492188 161.609375 Z M 105.613281 151.027344 C 105.035156 150.945312 104.65625 150.5 104.523438 149.691406 C 105.152344 149.839844 105.386719 150.429688 105.613281 151.027344 Z M 101.640625 149.464844 C 101.605469 149.300781 101.714844 149.269531 101.730469 149.363281 C 101.679688 149.164062 102.101562 149.039062 102.15625 148.691406 C 102.640625 148.546875 102.582031 149 102.917969 149.027344 C 102.765625 149.515625 102.125 149.746094 101.640625 149.464844 Z M 104.429688 149.601562 C 103.933594 149.390625 103.5625 149.238281 103.199219 149.105469 C 103.222656 148.617188 103.675781 149.027344 103.828125 148.613281 C 104.121094 148.792969 104.605469 149.203125 104.429688 149.601562 Z M 128.617188 113.886719 C 128.609375 113.667969 128.597656 113.457031 128.585938 113.234375 C 128.941406 113.265625 129.164062 113.171875 129.226562 112.929688 C 129.355469 112.941406 129.269531 113.203125 129.417969 113.199219 C 129.03125 113.316406 129.167969 113.914062 128.617188 113.886719 Z M 129.164062 119.25 C 129.632812 117.828125 130.46875 117.144531 131.214844 115.894531 C 131.328125 115.875 131.386719 115.902344 131.40625 115.976562 C 130.769531 117.167969 130.136719 118.359375 129.164062 119.25 Z M 144.289062 89.667969 C 143.101562 89.605469 143.667969 87.382812 143.660156 86.535156 C 143.78125 86.636719 143.992188 86.625 144.21875 86.597656 C 144.371094 87.421875 144.589844 88.976562 144.289062 89.667969 Z M 149.140625 75.570312 C 148.832031 75.703125 148.769531 75.074219 148.660156 75.3125 C 148.597656 74.734375 147.886719 73.140625 149.027344 73.25 C 149.144531 73.9375 149.28125 74.886719 149.140625 75.570312 Z M 149.140625 75.570312 " fill-opacity="1" fill-rule="nonzero"/><path fill="#302f3b" d="M 103.5625 170.71875 C 103.578125 170.6875 103.578125 170.6875 103.5625 170.71875 Z M 103.5625 170.71875 " fill-opacity="1" fill-rule="nonzero"/><path fill="#7cb15a" d="M 86.488281 108.769531 C 83.988281 107.1875 80.617188 108.25 78.554688 109.730469 C 78.59375 110.507812 79.503906 110.933594 80.125 111.417969 C 81.53125 112.507812 83.253906 113.328125 85.859375 112.796875 C 86.519531 112.664062 88.21875 111.847656 88.292969 111.277344 C 88.378906 110.550781 86.808594 108.976562 86.488281 108.769531 Z M 82.996094 111.183594 C 82.984375 111.035156 82.976562 110.875 82.964844 110.71875 C 83.425781 110.539062 84.253906 110.695312 85.007812 110.714844 C 85.019531 110.894531 85.027344 111.082031 85.039062 111.265625 C 84.410156 111.542969 83.605469 111.226562 82.996094 111.183594 Z M 82.996094 111.183594 " fill-opacity="1" fill-rule="nonzero"/><path fill="#7cb15a" d="M 154.308594 96.960938 C 154.171875 96.816406 154.027344 96.6875 153.914062 96.515625 C 153.773438 96.5625 153.578125 96.484375 153.453125 96.542969 C 150.679688 97.726562 148.339844 98.949219 147.179688 100.953125 C 146.757812 101.691406 146.738281 102.664062 146.199219 103.511719 C 145.550781 104.507812 144.050781 104.617188 143.617188 105.78125 C 145.054688 105.796875 146.035156 104.453125 147.710938 104.183594 C 148.386719 104.078125 149.132812 104.234375 149.84375 104.078125 C 150.886719 103.851562 151.800781 102.972656 152.355469 102.371094 C 152.335938 102.03125 152.316406 101.691406 152.304688 101.347656 C 153.9375 100.757812 153.675781 98.457031 154.308594 96.960938 Z M 147.832031 102.964844 C 148.75 101.707031 149.679688 100.449219 151.097656 99.636719 C 150.691406 101.296875 149.390625 102.628906 147.832031 102.964844 Z M 147.832031 102.964844 " fill-opacity="1" fill-rule="nonzero"/><path fill="#7cb15a" d="M 108.210938 53.757812 L 108.175781 52.683594 C 108.175781 53.035156 108.179688 53.394531 108.210938 53.757812 Z M 108.210938 53.757812 " fill-opacity="1" fill-rule="nonzero"/><path fill="#408255" d="M 112.320312 39.511719 C 112.234375 38.875 112.585938 37.878906 111.761719 37.585938 C 110.949219 37.742188 110.460938 38.570312 109.984375 39.160156 C 108.851562 40.558594 108.003906 42.761719 108.433594 45.1875 C 108.691406 46.625 108.796875 49.171875 109.890625 48.367188 C 111.195312 47.410156 112.539062 46.699219 112.988281 45.332031 C 113.664062 43.238281 112.523438 41.015625 112.320312 39.511719 Z M 110.625 44.617188 C 110.550781 44.308594 110.550781 43.386719 111.222656 43.46875 C 111.214844 44.027344 111.285156 44.640625 110.625 44.617188 Z M 110.625 44.617188 " fill-opacity="1" fill-rule="nonzero"/><path fill="#7cb15a" d="M 104.5625 62.394531 C 104.328125 58.738281 102.578125 57.058594 100.679688 55.339844 C 100.253906 54.941406 99.800781 54.160156 99.148438 54.398438 C 98.582031 55.890625 99.054688 57.195312 99.246094 58.199219 C 99.425781 59.101562 99.273438 59.847656 99.566406 60.695312 C 99.933594 61.757812 100.667969 62.441406 101.265625 63.023438 C 101.859375 63.613281 102.886719 64.039062 103.40625 64.960938 C 103.746094 65.578125 104.613281 63.117188 104.5625 62.394531 Z M 100.472656 56.75 C 100.523438 56.460938 100.625 56.6875 100.9375 56.820312 C 101.257812 56.949219 102.570312 59.925781 102.3125 60 C 102.050781 60.082031 100.429688 57.039062 100.472656 56.75 Z M 100.472656 56.75 " fill-opacity="1" fill-rule="nonzero"/><path fill="#7cb15a" d="M 132.371094 52.433594 C 132.84375 51.988281 133.070312 51.375 133.121094 50.722656 C 133.414062 47.316406 130.21875 44.9375 129.722656 44.015625 C 129.546875 43.75 129.300781 42.277344 128.929688 43.03125 C 126.894531 47.183594 128.378906 51.964844 132.371094 52.433594 Z M 132.371094 52.433594 " fill-opacity="1" fill-rule="nonzero"/><path fill="#7cb15a" d="M 146.015625 150.066406 C 145.996094 149.488281 146.179688 148.53125 145.558594 148.234375 C 144.929688 148.230469 144.472656 148.855469 143.9375 149.246094 C 143.390625 149.640625 142.738281 150.023438 142.328125 150.539062 C 142.109375 150.8125 142.050781 151.453125 141.746094 151.867188 C 141.425781 152.289062 140.933594 152.34375 140.765625 152.757812 C 140.292969 153.925781 140.652344 155.191406 140.207031 156.316406 C 140.03125 156.753906 140.261719 157.179688 140.964844 156.742188 C 142.75 155.648438 145.003906 155.09375 145.796875 153.058594 C 146.136719 152.179688 146.054688 151.101562 146.015625 150.066406 Z M 142.160156 154.535156 C 142.554688 153.152344 143.257812 152.050781 143.925781 150.914062 C 144.070312 150.882812 144.089844 150.996094 144.207031 150.996094 C 144 152.550781 143.65625 154.441406 142.160156 154.535156 Z M 142.160156 154.535156 " fill-opacity="1" fill-rule="nonzero"/><path fill="#387238" d="M 54.476562 114.578125 C 54.816406 114.175781 55.5 114.089844 55.921875 113.761719 C 55.921875 110.476562 53.796875 107.550781 51.386719 106.648438 C 50.726562 106.402344 48.960938 105.972656 48.78125 106.59375 C 49.339844 110.738281 50.800781 113.886719 54.476562 114.578125 Z M 53.558594 111.089844 C 54.214844 111.203125 54.742188 111.910156 54.558594 112.621094 C 53.929688 112.5 53.382812 111.800781 53.558594 111.089844 Z M 53.558594 111.089844 " fill-opacity="1" fill-rule="nonzero"/><path fill="#387238" d="M 165.089844 54.957031 C 164.925781 54.972656 164.792969 54.957031 164.707031 54.886719 C 163.90625 55.683594 162.558594 56.246094 161.949219 57.164062 C 160.703125 59.027344 161.167969 61.472656 160.929688 64.558594 C 165.652344 64.382812 166.753906 59.046875 165.089844 54.957031 Z M 165.089844 54.957031 " fill-opacity="1" fill-rule="nonzero"/><path fill="#387238" d="M 125.476562 66.449219 C 126.046875 67.101562 126.441406 67.890625 127.152344 68.316406 C 128.0625 66.976562 129.097656 63.902344 128.746094 61.261719 C 128.621094 60.394531 127.929688 58.921875 127.65625 58.0625 C 127.460938 57.445312 127.667969 56.84375 127.039062 56.976562 C 126.117188 59.128906 123.382812 61.085938 124.066406 64.285156 C 124.230469 65.070312 124.953125 65.851562 125.476562 66.449219 Z M 126.996094 61.636719 C 126.773438 62.507812 127.710938 63.882812 126.742188 64.066406 C 126.429688 63.78125 125.828125 61.410156 126.996094 61.636719 Z M 126.996094 61.636719 " fill-opacity="1" fill-rule="nonzero"/><path fill="#387238" d="M 95.320312 167.71875 C 95.800781 167.941406 96.011719 168.636719 96.652344 168.304688 C 98.324219 162.550781 94.070312 160.199219 90.957031 158.460938 C 90.925781 158.578125 90.84375 158.65625 90.6875 158.660156 C 90.527344 160.820312 90.589844 164.484375 91.601562 165.769531 C 92.5 166.917969 94.046875 167.136719 95.320312 167.71875 Z M 92.3125 161.554688 C 92.40625 161.546875 92.496094 161.542969 92.59375 161.542969 C 93.117188 162.105469 93.519531 162.953125 93.910156 163.707031 C 94.304688 164.488281 94.730469 165.332031 94.773438 166.171875 C 93.996094 166.101562 93.570312 165.054688 93.203125 164.390625 C 92.789062 163.636719 92.445312 162.769531 92.332031 161.828125 C 92.195312 161.796875 92.363281 161.710938 92.3125 161.554688 Z M 92.3125 161.554688 " fill-opacity="1" fill-rule="nonzero"/><path fill="#387238" d="M 89.886719 129.980469 C 90.132812 131.109375 90.730469 132.25 91.433594 133.066406 C 91.960938 133.675781 93.136719 134.761719 94.039062 134.980469 C 95.253906 135.273438 96.753906 134.96875 98.140625 135.324219 C 99.078125 135.574219 99.480469 136.816406 100.367188 137.074219 C 100.429688 136.253906 99.75 136.082031 99.355469 135.449219 C 98.386719 133.925781 98.324219 131.792969 96.972656 130.644531 C 95.503906 129.390625 92.257812 129.03125 89.886719 129.980469 Z M 95.914062 133.675781 C 94.882812 133.710938 94.472656 133.054688 93.910156 132.570312 C 94.769531 132.339844 95.628906 132.953125 95.914062 133.675781 Z M 95.914062 133.675781 " fill-opacity="1" fill-rule="nonzero"/></svg>