<?xml version="1.0" encoding="utf-8"?>
<!-- Generator: Adobe Illustrator 16.0.0, SVG Export Plug-In . SVG Version: 6.00 Build 0)  -->
<!DOCTYPE svg PUBLIC "-//W3C//DTD SVG 1.1//EN" "http://www.w3.org/Graphics/SVG/1.1/DTD/svg11.dtd">
<svg version="1.1" id="Layer_1" xmlns="http://www.w3.org/2000/svg" xmlns:xlink="http://www.w3.org/1999/xlink" x="0px" y="0px"
	 width="10px" height="10px" viewBox="0 0 10 10" enable-background="new 0 0 10 10" xml:space="preserve">
<g>
	<path fill="#7CB15A" d="M8.512,0.034c0.176-0.021,0.299,0.021,0.366,0.119c0.008,0.139-0.033,0.289-0.122,0.459
		C8.707,0.707,8.63,0.845,8.52,1.033C8.374,1.334,8.247,1.64,8.145,1.941c-0.041,0.134-0.108,0.5-0.196,1.092
		C7.877,3.49,7.782,3.799,7.655,3.962C7.57,4.068,7.448,4.166,7.293,4.251C7.204,4.305,7.055,4.382,6.837,4.484
		C6.784,4.513,6.666,4.573,6.483,4.667C6.332,4.757,6.259,4.842,6.263,4.92c0.004,0.057,0.065,0.11,0.175,0.155
		c0.132,0.044,0.221,0.077,0.27,0.102c0.215,0.089,0.362,0.188,0.444,0.285c0.11,0.139,0.142,0.326,0.101,0.563
		C7.348,6.139,7.415,6.236,7.46,6.333C7.314,6.195,7.099,6.139,6.81,6.139C6.643,6.146,6.385,6.162,6.034,6.195
		c-0.314,0-0.602-0.049-0.859-0.155C4.971,5.959,4.759,5.829,4.531,5.649c-0.122-0.099-0.31-0.261-0.554-0.51
		C3.748,4.944,3.533,4.834,3.325,4.802C3.08,4.777,2.722,4.807,2.253,4.896C1.781,4.98,1.409,5.01,1.141,4.98
		c0.033-0.163,0.155-0.269,0.363-0.325C1.768,4.623,1.959,4.59,2.086,4.562C1.715,4.509,1.52,4.48,1.487,4.476
		C1.222,4.414,1.1,4.321,1.124,4.195c0.021-0.127,0.172-0.168,0.461-0.122C1.979,4.129,2.18,4.158,2.188,4.158
		C2.029,4.117,1.842,4.04,1.625,3.926C1.483,3.844,1.397,3.791,1.361,3.767c-0.098-0.082-0.13-0.171-0.106-0.273
		C1.3,3.358,1.479,3.347,1.796,3.466C2.013,3.542,2.18,3.62,2.302,3.697C2.212,3.612,2.066,3.493,1.857,3.347
		C1.72,3.225,1.622,3.106,1.561,2.992c-0.09-0.167-0.029-0.256,0.18-0.26c0.138-0.01,0.297,0.085,0.472,0.276
		c0.195,0.22,0.322,0.338,0.379,0.354C2.408,3.16,2.285,3.001,2.22,2.887c-0.061-0.109-0.102-0.221-0.126-0.33
		c-0.037-0.176,0-0.27,0.105-0.285c0.058-0.017,0.119,0.016,0.184,0.094C2.392,2.377,2.44,2.441,2.531,2.557
		c0.085,0.118,0.208,0.318,0.375,0.607c0.15,0.265,0.269,0.456,0.358,0.574c0.158,0.195,0.408,0.358,0.733,0.488
		C4.44,4.398,4.702,4.509,4.779,4.562C5.321,3.971,6.08,3.526,7.055,3.229C6.768,3.27,6.418,3.367,5.999,3.518
		C5.832,3.245,5.696,3.029,5.603,2.869C5.437,2.576,5.374,2.309,5.415,2.071c0.018-0.065,0.052-0.122,0.106-0.167
		C5.584,1.856,5.647,1.836,5.708,1.84C5.797,1.856,5.875,1.962,5.94,2.152C5.978,2.264,6.022,2.41,6.076,2.598
		c0.132,0.391,0.256,0.631,0.361,0.726C6.308,2.98,6.204,2.712,6.141,2.52C6.015,2.148,5.97,1.84,5.999,1.595
		c0.012-0.098,0.042-0.184,0.089-0.253c0.061-0.082,0.13-0.117,0.22-0.113C6.445,1.236,6.54,1.351,6.585,1.566
		C6.593,1.603,6.608,1.803,6.633,2.17c0.029,0.513,0.092,0.855,0.188,1.034V3.176C6.719,2.549,6.678,2.039,6.707,1.647
		c0.018-0.248,0.061-0.463,0.138-0.639C6.951,0.775,7.085,0.67,7.252,0.69C7.384,0.707,7.46,0.849,7.485,1.118
		C7.493,1.277,7.46,1.571,7.384,1.999c-0.069,0.382-0.081,0.68-0.04,0.888c0.13-0.986,0.203-1.508,0.211-1.569
		c0.13-0.583,0.338-0.97,0.615-1.149C8.267,0.103,8.381,0.059,8.512,0.034z M5.793,3.62C5.708,3.669,5.638,3.701,5.596,3.71
		c-0.018,0-0.021-0.005-0.021-0.013C5.518,3.6,5.383,3.437,5.166,3.204C4.987,2.984,4.914,2.781,4.95,2.598
		C4.967,2.549,4.996,2.5,5.04,2.459c0.053-0.045,0.103-0.065,0.143-0.058c0.069,0.005,0.146,0.077,0.241,0.229
		C5.51,2.805,5.566,2.916,5.596,2.964c0.142,0.244,0.275,0.436,0.403,0.574C5.937,3.551,5.871,3.575,5.793,3.62z M6.507,5.601
		C6.491,5.747,6.544,5.82,6.666,5.829c0.102,0,0.163-0.041,0.19-0.14c0.031-0.105-0.008-0.17-0.104-0.211
		C6.604,5.429,6.522,5.47,6.507,5.601z M4.111,3.791c0.131,0.012,0.277,0.065,0.44,0.167c0.179,0.099,0.321,0.159,0.424,0.18
		C4.914,4.093,4.763,4.012,4.531,3.894c-0.196-0.122-0.277-0.254-0.249-0.4c0.036-0.146,0.123-0.175,0.261-0.081
		c0.155,0.13,0.244,0.212,0.277,0.236C4.914,3.73,5.048,3.819,5.224,3.926C5.19,3.991,5.109,4.061,4.976,4.138
		C4.95,4.187,4.905,4.243,4.841,4.305C4.763,4.373,4.711,4.427,4.69,4.46C4.393,4.313,4.237,4.235,4.229,4.227
		C4.07,4.108,4.029,3.962,4.111,3.791z M4.841,3.583c-0.155-0.138-0.237-0.31-0.249-0.51c0.143-0.146,0.313-0.097,0.51,0.155
		c0.257,0.322,0.416,0.489,0.473,0.51c-0.068,0.041-0.171,0.105-0.31,0.188C5.179,3.844,5.036,3.73,4.841,3.583z M4.021,5.52
		c0.171,0.228,0.289,0.366,0.354,0.407c-0.118,0.294-0.159,0.65-0.122,1.068c0.044,0.438,0.155,0.724,0.338,0.855
		C4.47,7.621,4.405,7.32,4.396,6.944C4.38,6.555,4.44,6.252,4.571,6.04c0.322,0.236,0.64,0.334,0.958,0.285
		c-0.016,0.049-0.063,0.13-0.135,0.252C5.342,6.669,5.309,6.75,5.302,6.832C5.289,6.929,5.305,7.076,5.35,7.263
		c0.045,0.195,0.065,0.343,0.065,0.433c-0.004,0.203-0.09,0.366-0.257,0.488C5.061,8.248,4.897,8.339,4.661,8.444
		C4.425,8.6,4.233,8.747,4.087,8.893C3.988,8.999,3.883,9.154,3.769,9.365c-0.13,0.237-0.231,0.391-0.297,0.472
		C3.346,10,3.234,10.01,3.143,9.888C3.061,9.773,3.035,9.61,3.064,9.398c0.045-0.295,0.225-0.555,0.533-0.791
		C3.973,8.37,4.242,8.199,4.4,8.103C4.1,8.199,3.846,8.322,3.643,8.444C3.57,8.492,3.472,8.584,3.337,8.696
		C3.219,8.795,3.102,8.844,2.995,8.844c-0.106-0.155-0.065-0.352,0.111-0.57C3.333,7.98,3.744,7.792,4.344,7.695
		c-0.244,0-0.498,0.048-0.759,0.155c-0.081,0.04-0.19,0.104-0.329,0.179C3.137,8.085,3.023,8.095,2.918,8.044
		C2.84,7.825,2.954,7.637,3.264,7.474C3.545,7.32,3.842,7.263,4.147,7.28C4.009,7.239,3.785,7.247,3.479,7.288
		C3.198,7.336,3.003,7.32,2.893,7.247C2.885,6.814,3.289,6.669,4.111,6.791C4.05,6.732,3.842,6.7,3.496,6.692
		C3.19,6.685,3.031,6.628,3.011,6.506c-0.044-0.214,0.103-0.303,0.444-0.27c0.269,0.04,0.489,0.097,0.656,0.188
		c-0.037-0.081-0.18-0.147-0.424-0.195c-0.27-0.066-0.424-0.122-0.465-0.171C3.149,5.976,3.153,5.894,3.23,5.813
		c0.074-0.082,0.15-0.123,0.241-0.123C3.585,5.697,3.724,5.771,3.883,5.91c0.176,0.155,0.281,0.236,0.322,0.244
		C4.14,6.089,4.009,5.982,3.818,5.829c-0.204-0.163-0.31-0.245-0.314-0.245c-0.123-0.131-0.105-0.22,0.049-0.277
		C3.695,5.266,3.854,5.34,4.021,5.52z"/>
</g>
</svg>
