<svg version="1.1" id="Layer_1" xmlns="http://www.w3.org/2000/svg" xmlns:xlink="http://www.w3.org/1999/xlink" x="0px" y="0px"
	 width="157.512px" height="34.873px" viewBox="0 0 157.512 34.873" enable-background="new 0 0 157.512 34.873"
	 xml:space="preserve">
<g>
	<g>
		<g>
			<path fill="#313131" d="M62.928,23.852v-0.476c1.372,0,1.643-0.385,1.643-2.65v-1.132c0-2.266-0.271-2.627-1.643-2.627V16.49
				l3.118-0.566v4.802c0,2.265,0.249,2.65,1.642,2.65v0.476H62.928z M65.298,13.705c-0.499,0-0.915-0.453-0.915-1.02
				c0-0.543,0.416-0.996,0.915-0.996c0.498,0,0.915,0.453,0.915,0.996C66.213,13.251,65.796,13.705,65.298,13.705z"/>
			<path fill="#313131" d="M74.196,15.924c1.871,0,2.702,1.449,2.702,3.375v1.426c0,2.265,0.249,2.65,1.642,2.65v0.476h-4.76v-0.476
				c1.351,0,1.643-0.385,1.643-2.65v-1.313c0-1.473-0.478-2.423-1.726-2.423c-1.143,0-2.39,1.019-2.39,2.265v1.472
				c0,2.333,0.165,2.65,1.454,2.65v0.476h-4.572v-0.476c1.371,0,1.642-0.385,1.642-2.65v-1.132c0-2.266-0.271-2.627-1.642-2.627
				V16.49l2.765-0.566c0.104,0.227,0.291,1.155,0.354,1.631C71.868,16.785,72.824,15.924,74.196,15.924z"/>
			<path fill="#313131" d="M91.32,20.726c0,2.401,0.146,2.65,1.311,2.65v0.476h-4.074v-0.476c1.143,0,1.31-0.249,1.31-2.65v-1.313
				c0-1.473-0.416-2.423-1.497-2.423c-0.728,0-2.141,0.861-2.141,2.265v1.472c0,2.356,0.146,2.65,1.288,2.65v0.476H83.11v-0.476
				c1.372,0,1.643-0.385,1.643-2.65v-1.132c0-2.266-0.271-2.627-1.643-2.627V16.49l2.766-0.566c0.104,0.227,0.291,1.155,0.353,1.631
				c0.562-0.771,1.497-1.631,2.703-1.631c1.268,0,1.911,0.657,2.203,1.699c0.478-0.747,1.683-1.699,2.909-1.699
				c1.85,0,2.39,1.449,2.39,3.375v1.426c0,2.265,0.27,2.65,1.643,2.65v0.476h-4.407v-0.476c1.144,0,1.289-0.249,1.289-2.65v-1.313
				c0-1.473-0.395-2.423-1.476-2.423c-0.707,0-2.162,0.861-2.162,2.265V20.726z"/>
			<path fill="#313131" d="M100.839,26.625l1.039-2.888l-2.391-5.753c-0.415-1.017-0.727-1.364-1.393-1.364v-0.462h3.68v0.462
				c-0.915,0-1.144,0.231-0.665,1.364l1.516,3.696l1.331-3.696c0.396-1.04,0.25-1.364-0.603-1.364v-0.462h2.91v0.462
				c-0.645,0-1.102,0.347-1.477,1.364l-4.053,11.252c-0.166,0.462-0.437,0.855-0.769,0.855c-0.291,0-0.686-0.185-0.686-0.762
				C99.28,28.427,100.216,28.427,100.839,26.625z"/>
			<path fill="#313131" d="M116.218,23.852v-0.476c1.31,0,1.476-0.317,1.476-2.65v-1.313c0-1.473-0.498-2.423-1.579-2.423
				c-1.04,0-2.245,0.973-2.245,2.265v1.472c0,2.356,0.166,2.65,1.31,2.65v0.476h-4.428v-0.476c1.394,0,1.643-0.385,1.643-2.65
				v-7.158c0-2.265-0.249-2.65-1.643-2.65v-0.476l3.118-0.566v7.679c0.582-0.771,1.517-1.631,2.723-1.631
				c1.913,0,2.557,1.449,2.557,3.375v1.426c0,2.265,0.27,2.65,1.663,2.65v0.476H116.218z"/>
			<path fill="#313131" d="M127.8,24.102c-0.811,0-1.31-0.499-1.414-1.314c-1.018,0.997-1.767,1.359-2.598,1.359
				c-1.019,0-1.87-0.703-1.87-1.903c0-1.925,2.058-2.763,4.427-3.216c0-1.699-0.208-2.378-1.393-2.378
				c-0.478,0-1.186,0.363-1.186,1.087c0,0.453-0.311,0.793-0.706,0.793c-0.416,0-0.728-0.34-0.728-0.793
				c0-1.087,1.31-1.812,2.64-1.812c2.017,0,2.848,0.929,2.848,3.081v3.42c0,0.566,0.166,0.883,0.478,0.883
				c0.209,0,0.438-0.181,0.583-0.34l0.29,0.431C128.777,23.852,128.257,24.102,127.8,24.102z M126.345,19.73
				c-1.976,0.498-2.868,1.245-2.868,2.242c0,0.725,0.457,1.155,0.977,1.155c0.437,0,0.936-0.159,1.892-1.087V19.73z"/>
			<path fill="#313131" d="M135.635,15.924c1.871,0,2.702,1.449,2.702,3.375v1.426c0,2.265,0.249,2.65,1.642,2.65v0.476h-4.761
				v-0.476c1.353,0,1.644-0.385,1.644-2.65v-1.313c0-1.473-0.479-2.423-1.726-2.423c-1.144,0-2.391,1.019-2.391,2.265v1.472
				c0,2.333,0.167,2.65,1.456,2.65v0.476h-4.573v-0.476c1.372,0,1.643-0.385,1.643-2.65v-1.132c0-2.266-0.271-2.627-1.643-2.627
				V16.49l2.765-0.566c0.104,0.227,0.291,1.155,0.353,1.631C133.308,16.785,134.263,15.924,135.635,15.924z"/>
			<path fill="#313131" d="M146.486,13.568c0-2.265-0.249-2.65-1.641-2.65v-0.476l3.117-0.566v10.669c0,2.265,0.271,2.65,1.643,2.65
				v0.476l-2.765,0.566c-0.104-0.227-0.271-1.02-0.333-1.382c-0.581,0.793-1.414,1.382-2.556,1.382c-1.976,0-3.617-1.88-3.617-4.168
				s1.642-4.145,3.617-4.145c1.038,0,1.911,0.499,2.534,1.337V13.568z M146.486,18.62c-0.374-1.065-1.163-1.789-2.099-1.789
				c-1.621,0-2.369,1.427-2.369,3.238c0,1.812,0.748,3.262,2.369,3.262c0.936,0,1.725-0.725,2.099-1.789V18.62z"/>
			<path fill="#313131" d="M153.457,24.237c-1.434,0-2.224-1.608-2.224,0h-0.416V20.93h0.416c0,1.02,0.79,2.537,2.286,2.537
				c0.665,0,1.164-0.521,1.164-1.156c0-0.566-0.437-0.974-1.164-1.381l-1.144-0.68c-1.019-0.589-1.393-1.54-1.393-2.265
				c0-1.224,1.04-2.062,2.12-2.062c1.559,0,1.871,1.178,1.871,0h0.436v2.627h-0.436c0-0.951-0.623-1.902-1.684-1.902
				c-0.707,0-1.061,0.407-1.061,0.974c0,0.544,0.354,0.838,1.269,1.382l0.997,0.589c0.914,0.566,1.435,1.358,1.435,2.174
				C155.931,23.263,154.808,24.237,153.457,24.237z"/>
		</g>
	</g>
	<g>
		<path fill="#313131" d="M32.926,23.867v-0.472c1.43,0,1.686-0.382,1.686-2.627v-7.096c0-2.245-0.256-2.627-1.686-2.627v-0.472
			l3.2-0.561v10.755c0,2.245,0.277,2.627,1.685,2.627v0.472H32.926z"/>
		<path fill="#313131" d="M38.43,23.867v-0.472c1.408,0,1.686-0.382,1.686-2.627v-1.123c0-2.245-0.277-2.604-1.686-2.604v-0.472
			l3.2-0.561v4.76c0,2.245,0.256,2.627,1.685,2.627v0.472H38.43z M40.861,13.807c-0.512,0-0.938-0.449-0.938-1.01
			c0-0.54,0.426-0.988,0.938-0.988c0.513,0,0.939,0.449,0.939,0.988C41.801,13.358,41.374,13.807,40.861,13.807z"/>
		<path fill="#313131" d="M47.135,20.768c0,2.245,0.256,2.627,1.685,2.627v0.472h-4.886v-0.472c1.408,0,1.687-0.382,1.687-2.627
			v-3.593h-1.75V16.39h1.75v-2.156c0-3.054,1.748-4.221,3.498-4.221c1.407,0,2.133,0.943,2.133,1.661
			c0,0.45-0.234,0.809-0.703,0.809c-1.046,0-0.47-1.73-1.813-1.73c-1.089,0-1.6,0.899-1.6,3.481v2.156h2.132v0.786h-2.132V20.768z"
			/>
		<path fill="#313131" d="M54.408,23.305c0.704,0,1.729-0.427,2.347-1.033l0.385,0.494c-0.747,0.831-2.049,1.482-3.265,1.482
			c-2.347,0-3.946-1.864-3.946-4.131c0-2.38,1.963-4.109,3.946-4.109c1.899,0,3.413,1.617,2.901,3.547h-5.141
			C51.38,21.666,52.212,23.305,54.408,23.305z M55.305,18.724c0.234-0.718-0.128-1.818-1.536-1.818
			c-0.918,0-1.707,0.719-2.005,1.818H55.305z"/>
	</g>
</g>
<g>
	<g>
		<g>
			<path fill="#7CB15A" d="M25.759,4.523c0.062,0.035,0.118,0.07,0.168,0.105c0.22-0.157,0.554-0.437,0.315-0.535
				C26.124,4.045,26.074,4.283,25.759,4.523z"/>
			<path fill="#7CB15A" d="M26.266,4.944c0.345-0.132,0.408-0.268,0.359-0.343c-0.074-0.115-0.137,0.044-0.52,0.171
				C26.21,4.87,26.248,4.917,26.266,4.944z"/>
			<path fill="#7CB15A" d="M25.955,4.649c0.05,0.037,0.094,0.073,0.132,0.107c0.12-0.054,0.276-0.132,0.347-0.201
				c0.151-0.147,0.005-0.326-0.13-0.177C26.191,4.502,26.061,4.591,25.955,4.649z"/>
			<path fill="#7CB15A" d="M25.735,4.51c0.321-0.36,0.464-0.602,0.308-0.73c-0.157-0.129-0.214,0.303-0.53,0.624
				C25.594,4.437,25.669,4.473,25.735,4.51z"/>
			<path fill="#7CB15A" d="M27.654,5.018c0.319-0.021,0.744-0.078,0.691-0.228c-0.052-0.145-0.634,0.005-0.938,0.094
				c0.343-0.11,0.982-0.312,0.849-0.51C28.152,4.22,27.7,4.486,27.431,4.655c0.576-0.4,0.798-0.586,0.64-0.683
				c-0.166-0.102-0.354,0.172-0.647,0.433c0.162-0.196,0.278-0.363,0.334-0.49c0.076-0.175,0-0.33-0.144-0.172
				C27.471,3.9,27.262,4.31,27.105,4.525c-0.082,0.111-0.188,0.184-0.274,0.228c-0.26,0.103-0.625,0.267-0.625,0.267
				c-0.624-0.687-1.579-0.833-1.579-0.833c0.034,0.003,0.065,0.009,0.099,0.013c-0.006-0.094-0.087-1.342-0.397-1.657
				c-0.244-0.247-0.567-0.226-0.51-0.005c0.021,0.08,0.437,0.721,0.523,1.363c0.086,0.643,0.115,0.778,0.531,0.991
				s0.519,0.265,0.472,0.358c-0.046,0.094-0.321,0.104-0.48,0.261S24.773,5.87,24.773,5.87l-0.119,0.17c0,0,0.164-0.105,0.281-0.117
				s0.776,0.146,1.196-0.116c0.421-0.262,0.535-0.519,0.831-0.628c0.311-0.115,1.166,0.128,1.322,0.097
				C28.437,5.246,28.289,5.026,27.654,5.018z M25.199,5.705c-0.033,0.053-0.103,0.069-0.154,0.036
				c-0.053-0.033-0.068-0.102-0.036-0.155c0.033-0.052,0.103-0.068,0.155-0.035C25.217,5.583,25.232,5.653,25.199,5.705z"/>
			<path fill="#7CB15A" d="M24.727,4.201c0.1,0.012,0.193,0.028,0.281,0.047c0.043-0.252,0.155-1.023-0.031-1.336
				c-0.173-0.292-0.396-0.172-0.319,0.292C24.731,3.658,24.74,4.088,24.727,4.201z"/>
			<path fill="#7CB15A" d="M25.236,4.304c0.057-0.139,0.203-0.521,0.252-0.863c0.06-0.428-0.27-0.487-0.321-0.19
				c-0.049,0.279,0.002,0.602-0.145,0.999C25.097,4.267,25.169,4.284,25.236,4.304z"/>
			<path fill="#7CB15A" d="M25.49,4.394c0.339-0.48,0.347-0.697,0.347-0.768c0-0.208-0.202-0.271-0.261-0.1
				c-0.055,0.159-0.156,0.558-0.324,0.783C25.338,4.334,25.416,4.363,25.49,4.394z"/>
		</g>
		<g>
			<path fill="#7CB15A" d="M26.528,6.147c0.006-0.005,0.166-0.157,0.494-0.22c0.209-0.04,0.111-0.263-0.061-0.238
				c-0.122,0.018-0.451,0.318-0.451,0.318s0.045-0.128,0.462-0.406c0.078-0.051-0.037-0.269-0.269-0.054
				c-0.058,0.054-0.142,0.152-0.25,0.249C26.479,5.873,26.512,5.999,26.528,6.147z"/>
			<path fill="#7CB15A" d="M26.528,6.148c0.016,0.145,0.015,0.311-0.028,0.476c0.011-0.004,0.231-0.092,0.63,0.001
				c0.272,0.063,0.252-0.233-0.083-0.311c-0.214-0.049-0.33,0.013-0.499,0.038c0,0,0.12-0.112,0.483-0.104
				c0.313,0.007,0.262-0.269,0.021-0.252C26.813,6.012,26.534,6.145,26.528,6.148z"/>
			<path fill="#7CB15A" d="M26.973,7.023c-0.323-0.181-0.564-0.164-0.564-0.164s0.249-0.099,0.721,0.187
				c0.168,0.101,0.312-0.08,0.031-0.286c-0.174-0.127-0.389-0.165-0.66-0.136c-0.037,0.141-0.104,0.281-0.219,0.403
				c0,0,0.457,0.104,0.851,0.451C27.354,7.674,27.37,7.246,26.973,7.023z"/>
			<path fill="#7CB15A" d="M26.343,5.888c-0.151,0.111-0.34,0.196-0.566,0.17c-0.027-0.003,0.17,0.144,0.137,0.407
				c-0.031,0.251-0.189,0.53,0.164,0.709c0.365,0.185,0.641,0.4,0.821,0.766c0.27,0.543,0.376,0.032,0.285-0.182
				c-0.036-0.084-0.182-0.424-0.902-0.731C26.281,7.027,26.587,6.454,26.343,5.888z"/>
		</g>
	</g>
	<path fill="#7CB15A" d="M18.598,14.402c0.213-0.187,0.237-0.708,0.304-1.023c0.02-0.096,0.118-0.264,0.086-0.36
		c-0.078-0.226-0.363,0.118-0.407,0.139c-0.055,0.026-0.139,0.027-0.16,0.038c-0.088,0.042-0.226,0.181-0.283,0.266
		c-0.146,0.218-0.292,0.572-0.249,0.917c0.01,0.079,0.066,0.161,0.057,0.25c-0.007,0.066-0.069,0.089-0.095,0.153
		c-0.047,0.112-0.04,0.228-0.04,0.401c0.093-0.061,0.136-0.173,0.194-0.261c0.062-0.092,0.141-0.182,0.178-0.291
		c-0.16-0.138,0.043-0.604,0.174-0.646c0.021,0.269-0.07,0.435-0.146,0.615C18.35,14.516,18.491,14.496,18.598,14.402z"/>
	<g>
		<g>
			<path fill="#51954D" d="M7.13,23.445c0.032,0.438,0.243,0.239,0.417,0.083c0.079-0.071,0.209-0.185,0.254-0.25
				c0.196-0.29,0.066-0.738-0.067-1.034C7.337,22.318,7.1,23.042,7.13,23.445z M9.465,9.99C9.327,9.903,8.99,9.819,8.871,9.931
				c0.127,0.687,0.539,1.057,1.126,1.232C10.004,10.654,9.785,10.195,9.465,9.99z M9.284,10.207
				c0.011-0.013,0.039-0.011,0.042-0.032c0.023-0.005,0.026,0.013,0.045,0.013c0.068,0.257,0.333,0.297,0.355,0.604
				C9.511,10.679,9.338,10.45,9.284,10.207z M12.71,15.723c0.055-0.001,0.224-0.225,0.251-0.294c0.044-0.108,0.022-0.421,0-0.578
				c-0.034-0.243-0.182-0.431-0.281-0.594c-0.035-0.058-0.038-0.134-0.111-0.157c-0.005,0-0.01,0-0.015,0
				c-0.112,0.078-0.1,0.209-0.113,0.376c-0.006,0.072-0.053,0.14-0.063,0.21c-0.062,0.374-0.042,0.613,0.146,0.837
				C12.557,15.566,12.651,15.724,12.71,15.723z M12.705,14.76c0.028,0.115,0.051,0.236,0.05,0.383
				c-0.021,0.001-0.04,0.002-0.06,0.003C12.641,15.086,12.524,14.75,12.705,14.76z M3.956,17.664
				c-0.363,0.049-0.587,0.188-0.73,0.453c-0.024,0.042-0.02,0.116-0.051,0.165C3.138,18.339,3,18.388,3.006,18.453
				c0.007,0.079,0.206,0.136,0.377,0.145c0.418,0.02,0.561-0.118,0.779-0.366c0.103-0.117,0.304-0.304,0.273-0.444
				C4.405,17.652,4.138,17.64,3.956,17.664z M3.638,18.095c0.037-0.137,0.296-0.266,0.536-0.22c0.001,0.02,0.002,0.039,0.003,0.059
				C4.051,18.018,3.782,18.167,3.638,18.095z M20.032,18.211c0.019-0.104-0.057-0.202-0.127-0.157
				c-0.269,0.174-0.41,0.646-0.345,1.055c0.033,0.215,0.158,0.401,0.193,0.612C20.061,19.405,20.448,18.676,20.032,18.211z
				 M19.924,19.002c-0.011,0.081,0.035,0.234-0.077,0.226c-0.097-0.185-0.018-0.471-0.02-0.695c0.029-0.001,0.059-0.003,0.088-0.005
				C20.008,18.676,19.947,18.846,19.924,19.002z M10.935,9.249c0.104-0.406-0.102-0.691-0.112-1.046
				c-0.002-0.089,0.072-0.214-0.042-0.25c-0.004-0.011-0.014-0.017-0.03-0.013c-0.137,0.095-0.161,0.246-0.288,0.43
				c-0.106,0.152-0.194,0.282-0.214,0.44c-0.046,0.361,0.038,0.76,0.224,0.922C10.705,9.612,10.874,9.485,10.935,9.249z
				 M12.627,22.573c0.059,0.003,0.046,0.009,0.104,0.025c0.004-0.021,0.02-0.029,0.013-0.06c-0.045,0.013-0.045-0.024-0.09-0.01
				C12.66,22.556,12.636,22.558,12.627,22.573z M9.527,5.972c0.076-0.109,0.197-0.423,0.16-0.631
				C9.638,5.062,9.48,4.707,9.344,4.677c-0.201,0.25-0.698,0.891-0.381,1.234C8.982,6.353,9.379,6.185,9.527,5.972z M9.222,5.172
				C9.251,5.171,9.28,5.169,9.31,5.167c0.037,0.093,0.073,0.25,0.063,0.382C9.365,5.668,9.335,5.847,9.21,5.839
				C9.153,5.618,9.196,5.366,9.222,5.172z M14.09,20.513c-0.043,0.117-0.101,0.219-0.131,0.348
				C14.062,20.811,14.143,20.612,14.09,20.513z M10.766,22.579c-0.12-0.041-0.297-0.03-0.429-0.008
				c-0.123,0.02-0.267,0.054-0.349,0.122c0.085,0.385,0.37,0.761,0.736,0.837c0.305,0.063,0.63-0.053,0.573-0.355
				C11.258,22.958,10.979,22.65,10.766,22.579z M10.484,22.875c0-0.015-0.001-0.03-0.002-0.044c0.308-0.049,0.527,0.132,0.639,0.353
				C10.88,23.174,10.662,23.006,10.484,22.875z M12.905,18.721c-0.076-0.084-0.135-0.211-0.229-0.167
				c-0.154,0.073-0.093,0.372-0.091,0.553c0.002,0.139-0.045,0.253-0.027,0.328c0.06,0.253,0.301,0.321,0.508,0.403
				c0.083,0.034,0.125,0.102,0.196,0.079c0.091-0.029,0.118-0.321,0.093-0.494C13.322,19.194,13.052,18.882,12.905,18.721z
				 M12.907,19.343c-0.048-0.109-0.066-0.228-0.092-0.365c-0.001-0.015-0.002-0.03-0.003-0.045c0.027-0.015,0.052,0.042,0.06-0.003
				c0.111,0.208,0.281,0.436,0.272,0.727C13.034,19.628,12.96,19.464,12.907,19.343z M8.297,25.193
				c0.043-0.03,0.257-0.005,0.229-0.145C8.425,25.065,8.243,25.084,8.297,25.193z M11.524,18.288c-0.005,0.001-0.011,0-0.015,0
				c-0.651,0.227-1.117,0.565-1.33,1.179c0.291,0.167,0.828,0.115,1.045-0.083c0.13-0.118,0.294-0.528,0.304-0.727
				c0.003-0.064-0.025-0.122-0.024-0.176C11.506,18.408,11.582,18.346,11.524,18.288z M10.943,19.087
				c-0.069,0.098-0.159,0.224-0.298,0.238c-0.001-0.274,0.245-0.446,0.459-0.572C11.123,18.874,11.011,18.994,10.943,19.087z
				 M18.335,4.074c-0.047,0.073-0.211,0.363-0.227,0.618c-0.015,0.213,0.075,0.331,0.126,0.453c0.068,0.165,0.111,0.371,0.195,0.517
				c0.077,0.147,0.1,0.023,0.101-0.025c0.006-0.269,0.205-0.408,0.245-0.594c0.086-0.388-0.24-0.738-0.318-1.051
				C18.427,3.875,18.381,4.001,18.335,4.074z M9.504,25.399c-0.031-0.003-0.073-0.021-0.089-0.01
				c-0.369,0.249-0.656,0.784-0.674,1.293c0.103,0.032,0.251,0.026,0.354-0.003c0.201-0.057,0.545-0.358,0.564-0.533
				c0.006-0.051-0.031-0.127-0.04-0.205C9.594,25.702,9.563,25.579,9.504,25.399z M9.293,26.195
				c-0.024,0.129-0.045,0.26-0.177,0.291c-0.057-0.116,0.071-0.361,0.188-0.365c-0.007-0.083,0.049-0.142-0.009-0.193
				c0.065,0.035,0.053-0.056,0.084-0.093c0.015,0,0.028-0.001,0.044-0.002C9.478,25.994,9.424,26.157,9.293,26.195z M16.771,12.731
				c-0.048-0.102-0.067-0.25-0.159-0.229c-0.196,0.302-0.569,1.062-0.247,1.554c0.102,0.155,0.272,0.334,0.448,0.392
				c0.107-0.339,0.215-1.036,0.073-1.485C16.865,12.9,16.811,12.817,16.771,12.731z"/>
		</g>
	</g>
	<path fill="#7CB15A" d="M14.119,21.104c0.12-0.141,0.203-0.318,0.21-0.529c0.005-0.155-0.063-0.663-0.222-0.582
		c-0.232,0.12-0.537,0.424-0.537,0.769c0,0.104,0.039,0.226,0.061,0.337c0.023,0.113,0.011,0.242,0.091,0.322
		C13.872,21.394,14.006,21.238,14.119,21.104z"/>
	<path fill="#7CB15A" d="M3.499,17.109c0.002-0.199-0.225-0.248-0.47-0.243c0.007,0.076-0.015,0.088-0.099,0.109
		c0.015-0.047,0-0.034-0.004-0.088c-0.312,0.079-0.563,0.237-0.747,0.423C2.111,17.378,2.012,17.459,2,17.556
		c0.054,0.07,0.163,0.078,0.257,0.105c0.089,0.027,0.187,0.068,0.284,0.075C2.989,17.769,3.498,17.434,3.499,17.109z"/>
	<path fill="#7CB15A" d="M19.101,4.745c0.054,0.044,0.122-0.238,0.251-0.294c0.113-0.065-0.123,0.263-0.095,0.464
		c0.003,0.146,0.089,0.047,0.175,0.007c0.539-0.209,0.708-0.753,0.55-1.466c-0.021-0.057,0.005-0.203-0.091-0.025
		c-0.115,0.149-0.34,0.198-0.5,0.336c-0.191,0.167-0.323,0.401-0.349,0.7C19.035,4.546,18.987,4.695,19.101,4.745z"/>
	<path fill="#7CB15A" d="M8.642,24.716c-0.415-0.165-0.68,0.112-0.915,0.313c-0.145,0.125-0.324,0.225-0.349,0.403
		c0.441,0.228,1.169,0.195,1.484-0.165C9.06,25.044,8.895,24.817,8.642,24.716z"/>
	<path fill="#7CB15A" d="M11.005,12.401c0.289-0.286,0.694-0.628,0.529-1.227c-0.018-0.063-0.252-0.552-0.334-0.472
		C10.835,11.059,10.587,11.845,11.005,12.401z M11.242,11.545c0.004,0.129,0.043,0.402-0.11,0.435
		C11.104,11.832,11.063,11.552,11.242,11.545z"/>
	<path fill="#7CB15A" d="M10.445,13.022c-0.088-0.262-0.266-0.458-0.458-0.584c-0.089-0.058-0.2-0.059-0.286-0.104
		c-0.105-0.056-0.162-0.216-0.276-0.208c-0.077,0.19-0.096,0.5,0.005,0.682c0.034,0.062,0.138,0.117,0.201,0.182
		c0.105,0.107,0.188,0.28,0.299,0.355c0.146,0.099,0.367,0.1,0.524,0.136C10.555,13.339,10.488,13.151,10.445,13.022z
		 M10.002,13.016c-0.076-0.094-0.171-0.184-0.235-0.27c-0.053-0.07-0.104-0.177-0.074-0.293c0.111,0.038,0.227,0.155,0.276,0.208
		c0.05-0.005,0.026,0.038,0.049,0.086c0.061,0.127,0.261,0.332,0.246,0.476C10.158,13.252,10.079,13.112,10.002,13.016z"/>
	<path fill="#302F3B" d="M13.956,25.807c0.032,0.151-0.182,0.848-0.248,0.923c-0.026,0.03-0.047,0.069-0.067,0.107
		c0,0,0.012-0.028,0.016-0.038c-0.002,0.005-0.007,0.016-0.016,0.038c-0.038,0.095-0.215,0.124-0.107,0.036s0.078-0.131,0.134-0.183
		c0.103-0.137,0.234-0.797,0.245-0.876"/>
	<path fill="#30303C" d="M14.372,7.4c-0.093-0.129-0.05-0.268-0.064-0.411c-0.02-0.195-0.055-0.429-0.105-0.632
		c-0.054-0.211-0.163-0.422-0.147-0.585c0.02-0.215,0.033-0.446,0.223-0.545c0.187-0.082,0.339-0.232,0.47-0.365
		c0.129-0.13,0.138-0.151,0.174-0.364c0.039-0.227-0.004-0.329-0.043-0.546c-0.02-0.111-0.007-0.231-0.075-0.323
		c-0.233,0.091-0.381,0.309-0.521,0.501c-0.081,0.112-0.189,0.216-0.235,0.308c-0.037,0.076-0.139,0.31-0.128,0.392
		c0.01,0.073,0.105,0.123,0.114,0.216c0.007,0.064,0.006,0.154-0.093,0.197c-0.127-0.055-0.035-0.234-0.063-0.352
		c-0.013-0.053-0.059-0.082-0.081-0.129c-0.104-0.232-0.092-0.622-0.027-0.843c0.138-0.477,0.767-0.609,0.651-1.145
		c-0.026-0.125-0.158-0.293-0.228-0.418C14.127,2.239,14.048,1.99,13.908,2c-0.104,0.007-0.19,0.224-0.25,0.324
		c-0.085,0.144-0.165,0.27-0.187,0.395C13.4,3.131,13.699,3.345,13.67,3.731c-0.033,0.083-0.095,0.076-0.108,0.184
		c-0.019,0.14,0.089,0.347-0.037,0.432C13.413,4.326,13.453,3.97,13.5,3.874c-0.04-0.183-0.18-0.334-0.275-0.475
		c-0.094-0.141-0.203-0.33-0.43-0.319c-0.11,0.083-0.078,0.252-0.083,0.404c-0.017,0.5,0.033,0.716,0.326,0.902
		c0.172,0.108,0.285,0.148,0.388,0.351c0.08,0.158,0.196,0.349,0.23,0.463c0.023,0.082,0.011,0.178,0.027,0.25
		c0.028,0.129,0.093,0.236,0.122,0.379c0.026,0.13,0.063,0.272,0.081,0.426c0.056,0.473,0.148,0.98,0.144,1.385
		c-0.001,0.122-0.017,0.277-0.13,0.348c-0.113-0.095-0.308-0.271-0.334-0.457c-0.012-0.087,0.036-0.157,0.047-0.24
		c0.062-0.464-0.2-0.666-0.37-0.899c-0.073-0.101-0.185-0.345-0.265-0.268s-0.23,0.299-0.241,0.501
		c-0.006,0.119,0.058,0.286,0.095,0.41c0.037,0.123,0.08,0.3,0.138,0.378c0.119,0.164,0.283,0.155,0.426,0.245
		c0.168,0.106,0.26,0.405,0.372,0.634c0.08,0.164,0.2,0.315,0.23,0.462c0.049,0.236,0.04,0.606,0.042,0.827
		c0.001,0.2-0.026,0.661-0.11,0.631c-0.081-0.029-0.086-0.132-0.134-0.134c-0.063-0.003-0.106,0.012-0.086,0.06
		c0.019,0.042,0.036,0.117,0.057,0.183c0.041,0.129,0.116,0.284,0.124,0.408c0.009,0.131-0.046,0.292-0.066,0.448
		c-0.099,0.785-0.12,1.795,0.016,2.637c0.025,0.158,0.13,0.33,0.04,0.502c-0.123-0.059-0.233-0.218-0.255-0.358
		c-0.009-0.063,0.021-0.13,0.02-0.193c-0.003-0.334-0.184-0.603-0.281-0.904c-0.104-0.097-0.185-0.179-0.297-0.311
		c-0.064-0.076-0.193-0.317-0.31-0.295c-0.097,0.018-0.124,0.25-0.129,0.392c-0.012,0.338,0.181,0.937,0.29,1.052
		c0.075,0.08,0.249,0.128,0.361,0.145c0.065,0.08,0.153,0.132,0.218,0.211c0.149,0.291,0.438,0.45,0.599,0.726
		c0.2,0.341,0.157,0.899,0.333,1.331c0.046,0.111,0.123,0.205,0.164,0.318c0.138,0.382,0.272,0.733,0.394,1.062
		c-0.109,0.065-0.211-0.034-0.302-0.103c-0.088-0.068-0.2-0.154-0.232-0.24c-0.031-0.081-0.012-0.156-0.026-0.221
		c-0.081-0.346-0.444-0.717-0.708-0.853c-0.067-0.034-0.156-0.038-0.226-0.077c-0.126-0.069-0.182-0.194-0.296-0.296
		c-0.131,0.078-0.143,0.215-0.114,0.376c0.048,0.266,0.284,0.662,0.454,0.792c0.136,0.104,0.333,0.115,0.483,0.212
		c0.085,0.055,0.136,0.18,0.237,0.299c0.246,0.29,0.643,0.462,0.893,0.71c0.199,0.198,0.371,0.481,0.479,0.717
		c0.144,0.313,0.252,0.714-0.044,0.891c-0.197-0.134-0.267-0.38-0.384-0.573c-0.243-0.401-0.525-0.75-0.809-1.1
		c-0.145-0.178-0.289-0.385-0.44-0.526c-0.058-0.054-0.135-0.076-0.199-0.124c-0.125-0.093-0.251-0.242-0.402-0.379
		c-0.139-0.125-0.337-0.265-0.404-0.395c-0.082-0.157-0.09-0.356-0.132-0.556c-0.011-0.053-0.021-0.155-0.083-0.174
		c-0.148,0.024,0.058,0.285-0.087,0.316c-0.259-0.264-0.694-0.544-0.904-0.932c-0.132-0.244-0.279-0.647-0.138-0.971
		c0.201-0.034,0.248-0.163,0.354-0.3c0.073-0.094,0.152-0.158,0.181-0.232c0.137-0.367,0.015-0.836-0.188-1.102
		c-0.304,0.178-0.425,0.476-0.504,0.855c-0.022,0.105-0.065,0.488-0.184,0.469c-0.03-0.005-0.16-0.238-0.18-0.347
		c-0.015-0.08,0.02-0.17,0.003-0.237c-0.029-0.114-0.175-0.227-0.197-0.375c-0.009-0.062,0.031-0.137,0.02-0.208
		c-0.019-0.119-0.123-0.237-0.166-0.362c-0.047-0.138-0.06-0.289-0.096-0.44c-0.037-0.157-0.119-0.292-0.142-0.452
		c-0.008-0.055,0.014-0.131,0.006-0.193c-0.028-0.198-0.142-0.383-0.133-0.571c0.003-0.069,0.059-0.14,0.063-0.21
		c0.014-0.213-0.021-0.422-0.06-0.604c-0.05-0.008-0.038,0.054-0.146,0.052C10.1,9.701,10.09,9.375,9.979,9.061
		C9.91,8.864,9.782,8.683,9.714,8.481C9.606,8.168,9.525,7.855,9.486,7.5c0.067-0.05,0.119,0.007,0.178-0.009
		C9.704,7.48,9.741,7.426,9.792,7.41c0.055-0.015,0.11,0,0.162-0.023c0.232-0.102,0.433-0.623,0.442-0.896
		c0.005-0.171-0.02-0.423-0.111-0.454c-0.067-0.022-0.113,0.082-0.243,0.16C9.986,6.231,9.919,6.24,9.882,6.265
		c-0.137,0.092-0.31,0.456-0.34,0.565c-0.027,0.097,0.027,0.266-0.12,0.257C9.296,7.021,9.399,6.662,9.279,6.606
		C9.181,6.655,9.248,6.782,9.247,6.86c0,0.071-0.021,0.145-0.019,0.208c0.015,0.507,0.293,1.108,0.324,1.45
		c0-0.008-0.013-0.016-0.015,0.001c-0.01,0-0.02,0.001-0.029,0.001C9.371,8.326,9.042,7.965,8.84,7.858
		C8.733,7.803,8.582,7.763,8.451,7.76C8.51,8.428,8.787,8.989,9.446,9.043c0.068,0.033,0.136,0.068,0.197,0.109
		C9.632,9.076,9.572,8.857,9.657,8.825c0.173,0.104,0.038,0.305,0.05,0.398c0.011,0.09,0.101,0.171,0.146,0.259
		c0.229,0.445,0.265,1.059,0.351,1.671c-0.012,0.072-0.115,0.062-0.128,0.096c0.055,0.125,0.169,0.184,0.222,0.3
		c0.072,0.159,0.099,0.393,0.149,0.615c0.117,0.512,0.289,1.012,0.399,1.476c0.017,0.068,0.008,0.143,0.025,0.206
		c0.018,0.061,0.066,0.115,0.083,0.174c0.056,0.197,0.056,0.372,0.13,0.526c0.032,0.068,0.085,0.136,0.129,0.201
		c0.184,0.278,0.34,0.554,0.472,0.865c0.073,0.085,0.147,0.169,0.178,0.302c-0.262,0.155-0.497-0.163-0.521-0.374
		c-0.223-0.123-0.293-0.401-0.485-0.553c-0.191-0.151-0.449-0.226-0.738-0.274c0.051,0.597,0.436,1.011,0.987,1.121
		c0.147,0.029,0.291,0.021,0.418,0.083c0.068,0.033,0.143,0.083,0.213,0.122c0.237,0.131,0.32,0.262,0.497,0.464
		c0.213,0.245,0.384,0.458,0.595,0.667c0.104,0.103,0.259,0.175,0.298,0.34c-0.366-0.003-0.789-0.083-1.16-0.148
		c-0.108-0.02-0.302-0.102-0.352,0.047c0.076,0.146,0.475,0.068,0.484,0.242c0.004,0.068-0.084,0.084-0.142,0.125
		c-0.158,0.116-0.325,0.282-0.347,0.448c0.224-0.106,0.359-0.266,0.604-0.328c0.195-0.049,0.456-0.054,0.619-0.017
		c0.584,0.134,1.032,0.772,1.32,1.252c0.108,0.182,0.272,0.409,0.34,0.59c0.285,0.772,0.52,1.41,0.521,2.418
		c0,0.323-0.246,0.99-0.571,0.992c-0.168,0.001-0.457-0.237-0.536-0.373c-0.026-0.047-0.035-0.119-0.068-0.175
		c-0.044-0.078-0.112-0.134-0.143-0.215c-0.035-0.093-0.021-0.183-0.045-0.294c-0.038-0.178-0.133-0.359-0.161-0.54
		c-0.03-0.2,0-0.446-0.017-0.636c-0.006-0.069-0.005-0.266-0.132-0.26c-0.058,0.238-0.03,0.461-0.004,0.785
		c-0.135,0.09-0.061,0.19-0.042,0.343c0.025,0.209,0.022,0.44-0.106,0.524c-0.416-0.243-0.955-0.377-1.491-0.562
		c-0.521-0.18-1.088-0.316-1.534-0.53c-0.085-0.041-0.188-0.114-0.304-0.162c-0.115-0.048-0.244-0.082-0.318-0.147
		c-0.225-0.201-0.316-0.571-0.344-0.96c0.304-0.299,0.342-1.218-0.003-1.526c-0.104,0.062-0.152,0.172-0.192,0.292
		c-0.241,0.227-0.406,0.513-0.354,0.877c0.039,0.274,0.24,0.335,0.321,0.517c0.059,0.128,0.057,0.279,0.109,0.394
		c0.045,0.099,0.141,0.142,0.115,0.247c-0.424-0.113-0.834-0.375-1.113-0.7c-0.108-0.25-0.342-0.48-0.382-0.825
		c-0.04-0.341,0.1-0.568,0.001-0.859c-0.013-0.035-0.057-0.097-0.081-0.145c-0.124-0.234-0.275-0.346-0.454-0.495
		c-0.057-0.048-0.133-0.135-0.229-0.137c-0.107,0.166-0.098,0.414-0.087,0.612c0.016,0.307,0.107,0.633,0.292,0.8
		c0.093,0.085,0.268,0.069,0.361,0.145c0.089,0.071,0.079,0.222,0.121,0.35c0.039,0.12,0.157,0.241,0.091,0.351
		c-0.162-0.012-0.288-0.157-0.412-0.261c-0.133-0.111-0.261-0.23-0.386-0.335c-0.38-0.308-0.696-0.732-1.103-1.056
		c-0.284-0.226-0.639-0.47-0.949-0.663c-0.113-0.069-0.221-0.174-0.322-0.22c-0.118-0.054-0.284-0.062-0.419-0.098
		c-0.133-0.036-0.271-0.112-0.401-0.053c0.065,0.144,0.255,0.2,0.397,0.261c0.165,0.069,0.351,0.127,0.498,0.197
		c0.276,0.131,0.493,0.344,0.708,0.557c0.217,0.216,0.481,0.401,0.624,0.665c-0.216,0.154-0.296-0.077-0.451-0.154
		c-0.071-0.037-0.258-0.103-0.39-0.114c-0.266-0.022-0.313,0.083-0.494,0.158c-0.151,0.063-0.459,0.107-0.446,0.245
		c0.007,0.077,0.161,0.108,0.259,0.15c0.317,0.136,0.465,0.105,0.832,0.076c0.049-0.004,0.136,0.018,0.178,0.006
		c0.112-0.033,0.194-0.176,0.314-0.194c0.142-0.021,0.416,0.045,0.538,0.106c0.096,0.049,0.197,0.184,0.295,0.281
		c0.2,0.2,0.416,0.373,0.59,0.563c0.095,0.103,0.227,0.184,0.252,0.313c-0.455,0.226-0.594-0.273-0.92-0.383
		c-0.128-0.042-0.302-0.056-0.432-0.052c-0.261,0.007-0.542,0.085-0.716,0.185c0.063,0.13,0.187,0.239,0.298,0.326
		c0.114,0.088,0.278,0.182,0.41,0.216c0.089,0.023,0.237,0.055,0.343,0.057c0.201,0.002,0.417-0.132,0.643-0.151
		c0.206-0.018,0.422-0.009,0.633-0.047c0.35,0.306,0.762,0.542,1.148,0.786c0.124,0.079,0.311,0.119,0.368,0.278
		c-0.201,0.096-0.584,0.078-0.895,0.135c-0.215,0.04-0.506,0.093-0.68-0.01c-0.073-0.043-0.118-0.167-0.144-0.2
		c-0.161-0.213-0.403-0.474-0.762-0.45c-0.157,0.01-0.701,0.161-0.693,0.316c0.005,0.084,0.33,0.292,0.386,0.322
		c0.27,0.146,0.668,0.083,1.024,0.096c0.094,0.003,0.239-0.003,0.271,0.105c-0.098,0.147-0.391,0.116-0.458,0.29
		c0.167,0.081,0.328-0.071,0.483-0.069c0.056,0,0.112,0.042,0.165,0.036c0.074-0.008,0.143-0.078,0.216-0.1
		c0.27-0.081,0.62-0.048,0.915-0.046c0.316,0.002,0.645,0.074,0.906,0.117c0.107,0.017,0.221,0,0.326,0.013
		c0.253,0.032,0.453,0.199,0.68,0.291c0.195,0.08,0.415,0.107,0.586,0.193c0.17,0.085,0.325,0.206,0.488,0.301
		c0.169,0.099,0.382,0.173,0.446,0.363c-0.17,0.219-0.485,0.285-0.85,0.428c-0.261,0.103-0.501,0.283-0.724,0.303
		c-0.097,0.009-0.198-0.027-0.297-0.029c-0.18-0.004-0.362,0.06-0.501,0.025c-0.118-0.029-0.161-0.161-0.248-0.224
		c-0.269-0.194-0.65-0.085-0.927,0.076c-0.094,0.055-0.354,0.186-0.34,0.299c0.014,0.1,0.257,0.15,0.35,0.19
		c0.118,0.05,0.288,0.128,0.405,0.127c0.147-0.001,0.354-0.037,0.47-0.068c0.151-0.042,0.193-0.203,0.328-0.239
		c0.074-0.02,0.202-0.021,0.293-0.029c0.095-0.009,0.229-0.043,0.268,0.031c-0.063,0.115-0.188,0.187-0.296,0.267
		c-0.288,0.21-0.602,0.43-0.978,0.554c-0.116,0.038-0.289,0.033-0.348,0.136c0.05,0.105,0.288,0.071,0.387,0.055
		c0.434-0.071,0.845-0.429,1.227-0.596c0.136-0.059,0.283-0.16,0.437-0.125c0.038,0.156-0.1,0.298-0.126,0.436
		c-0.027,0.143,0.012,0.292-0.007,0.43c-0.032,0.232-0.104,0.496-0.188,0.676c-0.084,0.183-0.258,0.316-0.269,0.518
		c0.19-0.024,0.316-0.198,0.411-0.332c0.094-0.133,0.195-0.323,0.256-0.502c0.134-0.404,0.072-1,0.351-1.248
		c0.15-0.134,0.603-0.21,0.816-0.22c0.334-0.015,0.74,0.133,0.962,0.322c0.215,0.184,0.381,0.436,0.451,0.804
		c0.071,0.368-0.14,1.223-0.312,1.524c-0.132,0.23-0.256,0.604-0.347,0.877c-0.023,0.073-0.046,0.139-0.065,0.196
		c-0.04,0.115-0.13,0.295-0.226,0.486c-0.132,0.266-0.269,0.541-0.309,0.709l-0.032,0.141c-0.063,0.267-0.133,0.57-0.212,0.718
		c-0.048,0.089-0.15,0.264-0.253,0.438c-0.103,0.175-0.205,0.351-0.253,0.44c-0.088,0.163-0.365,0.34-0.782,0.499
		c-0.165,0.063-0.307,0.105-0.442,0.147c-0.189,0.057-0.354,0.107-0.531,0.196C9.94,31.646,9.86,31.69,9.775,31.735
		c-0.256,0.139-0.546,0.296-0.779,0.337c-0.131,0.022-0.272,0.034-0.422,0.046c-0.203,0.017-0.414,0.034-0.606,0.082
		c-0.324,0.082-0.754,0.232-0.938,0.317c-0.081,0.038-0.091,0.076-0.085,0.101c0.015,0.068,0.177,0.091,0.345,0.045
		c0.223-0.061,0.585-0.095,0.915-0.082l0.017,0c0.076,0.003,0.167,0.007,0.271,0.007c0.549,0,1.035-0.111,1.486-0.339
		c0.403-0.204,0.869-0.247,1.188-0.247h0.121c0.146,0,0.146,0,0.178,0.066l0.01,0.021c0.022,0.044,0.017,0.091-0.017,0.141
		c-0.03,0.046-0.083,0.09-0.147,0.122c-0.279,0.14-0.421,0.253-0.558,0.363c-0.099,0.078-0.191,0.152-0.331,0.234
		c-0.153,0.09-0.246,0.209-0.224,0.289c0.007,0.024,0.031,0.067,0.118,0.067c0.093,0,0.231-0.048,0.4-0.138
		c0.267-0.142,0.434-0.185,0.596-0.227c0.131-0.033,0.267-0.068,0.451-0.155c0.396-0.185,1.344-0.56,1.844-0.627
		c0.432-0.058,0.785-0.086,1.082-0.086c0.653,0,1.004,0.134,1.505,0.355c0.185,0.081,0.378,0.117,0.629,0.117
		c0.139,0,0.28-0.011,0.43-0.022c0.16-0.012,0.326-0.025,0.501-0.025c0.295,0,0.553,0.037,0.812,0.117
		c0.229,0.07,0.4,0.079,0.524,0.079c0.067,0,0.133-0.003,0.198-0.006c0.145-0.007,0.295-0.009,0.433,0.009
		c0.333,0.043,0.57-0.002,0.586-0.104c0.007-0.043-0.029-0.081-0.096-0.102c-0.052-0.016-0.121-0.04-0.2-0.068
		c-0.197-0.069-0.443-0.155-0.626-0.188c-0.938-0.167-1.135-0.301-1.342-0.442c-0.13-0.088-0.264-0.18-0.577-0.285
		c-0.724-0.242-1.128-0.738-1.237-1.518c-0.095-0.68,0.271-1.483,0.502-1.851c0.108-0.173,0.217-0.349,0.32-0.518
		c0.12-0.193,0.233-0.377,0.336-0.539c0.186-0.292,0.663-0.792,0.663-0.792c0.178-0.147,0.327-0.331,0.487-0.494
		c0.154-0.16,0.323-0.324,0.491-0.5c0.153-0.16,0.299-0.349,0.411-0.491c0.113-0.142,0.028-0.113-0.019-0.132
		c-0.047-0.019-0.217,0.198-0.348,0.339c-0.09,0.097-0.224,0.225-0.374,0.197c0.187-0.232,0.368-0.576,0.289-1.007
		c-0.021-0.116-0.083-0.25-0.122-0.364c-0.043-0.126-0.065-0.275-0.164-0.333c-0.217,0.171-0.408,0.516-0.372,0.833
		c0.042,0.377,0.321,0.642,0.197,0.983c-0.051,0.141-0.188,0.302-0.289,0.4c-0.16,0.153-0.356,0.292-0.603,0.386
		c0.003-0.277,0.141-0.531,0.181-0.824c0.042-0.305,0.057-0.62,0.102-0.924c0.008-0.06,0.051-0.115,0.064-0.181
		c0.015-0.072,0-0.148,0.019-0.208c0.021-0.064,0.084-0.132,0.123-0.214c0.298-0.639,0.658-1.228,1.498-1.336
		c0.341,0.137,0.831-0.006,1.055-0.187c0.039-0.057-0.001-0.101,0.021-0.164c0.064-0.013,0.135-0.062,0.172-0.113
		c0.097-0.134,0.179-0.381,0.211-0.499c-0.128-0.052-0.25,0.04-0.381,0.063c-0.369,0.065-0.61,0.124-0.828,0.294
		c-0.211,0.166-0.318,0.507-0.657,0.434c0.123-0.321,0.446-0.46,0.473-0.869c0.22-0.115,0.233-0.521,0.441-0.63
		c0.057-0.029,0.126-0.022,0.175-0.038c0.566-0.19,0.637-0.692,0.578-1.437c-0.165,0.058-0.29,0.19-0.414,0.288
		c-0.12,0.095-0.271,0.231-0.336,0.373c-0.079,0.178-0.082,0.373-0.148,0.571c-0.024,0.075-0.093,0.167-0.135,0.244
		c-0.045,0.08-0.073,0.194-0.167,0.216c-0.044-0.159-0.038-0.524-0.01-0.784c0.012-0.113,0.078-0.247,0.043-0.313
		c-0.04-0.077-0.103-0.058-0.153-0.111c-0.033-0.108-0.02-0.269-0.133-0.289c-0.063,0.144,0.015,0.313,0.038,0.457
		c0.021,0.13,0.065,0.308-0.055,0.388c-0.096-0.102-0.15-0.249-0.17-0.436c-0.143-0.314-0.451-0.465-0.656-0.707
		c-0.074-0.087-0.084-0.226-0.22-0.256c-0.22,0.556,0,1.249,0.44,1.4c0.093,0.032,0.219,0.001,0.343,0.057
		c0.09,0.041,0.177,0.185,0.191,0.272c0.107,0.669-0.104,1.044-0.402,1.413c-0.152,0.189-0.314,0.393-0.509,0.456
		c-0.333-0.425,0.143-0.832,0.162-1.179c0.003-0.052-0.025-0.127-0.024-0.191c0.001-0.088,0.031-0.149,0.019-0.224
		c-0.022-0.125-0.127-0.211-0.224-0.329c-0.072-0.087-0.16-0.291-0.266-0.283c-0.082,0.006-0.158,0.198-0.206,0.292
		c-0.063,0.121-0.128,0.257-0.129,0.377c-0.002,0.229,0.152,0.604,0.244,0.744c0.052,0.08,0.124,0.113,0.143,0.2
		c0.027,0.123-0.021,0.302-0.066,0.433c-0.075,0.217-0.168,0.647-0.426,0.629c-0.188-0.013-0.316-0.556-0.337-0.813
		c-0.039-0.477,0.052-1.06,0.135-1.429c0.034-0.154,0.034-0.318,0.08-0.449c0.019-0.053,0.071-0.105,0.095-0.167
		c0.177-0.451,0.306-0.939,0.64-1.396c0.208-0.284,0.47-0.569,0.742-0.808c0.106-0.093,0.182-0.209,0.283-0.251
		c0.062-0.026,0.175-0.021,0.277-0.044c0.066-0.015,0.108-0.053,0.16-0.053c0.157,0,0.322,0.1,0.479,0.124
		c0.485,0.073,0.734-0.289,0.872-0.578c0.042-0.086,0.104-0.193,0.104-0.301c-0.106-0.065-0.2,0.01-0.294,0.029
		c-0.212,0.045-0.448,0.036-0.644,0.137c-0.077,0.04-0.171,0.125-0.271,0.191c-0.101,0.066-0.189,0.175-0.271,0.192
		c-0.056,0.011-0.121-0.026-0.179-0.021c-0.185,0.018-0.383,0.232-0.557,0.103c0.097-0.416,0.653-0.536,0.902-0.861
		c-0.001-0.071-0.071-0.065-0.052-0.16c0.135-0.227,0.277-0.413,0.396-0.643c0.122-0.237,0.14-0.519,0.272-0.755
		c0.057-0.1,0.167-0.165,0.238-0.249c0.119-0.138,0.189-0.299,0.303-0.431c0.114-0.13,0.273-0.254,0.428-0.333
		c0.214-0.11,0.452-0.146,0.604-0.327c0.118-0.141,0.138-0.358,0.178-0.572c0.026-0.143,0.105-0.313,0.023-0.431
		c-0.122-0.01-0.232,0.059-0.32,0.104c-0.278,0.147-0.487,0.331-0.589,0.623c-0.06,0.172-0.062,0.371-0.15,0.526
		c-0.049,0.083-0.146,0.158-0.21,0.233c-0.066,0.075-0.123,0.191-0.227,0.189c0.078-0.367,0.165-0.637,0.29-0.963
		c0.053-0.136,0.117-0.273,0.172-0.409c0.107-0.265,0.193-0.568,0.358-0.804c0.118-0.169,0.279-0.296,0.408-0.406
		c0.178-0.151,0.36-0.142,0.609-0.223c0.349-0.115,0.449-0.566,0.546-0.887c0.028-0.093,0.093-0.19,0.059-0.299
		c-0.134-0.001-0.249,0.094-0.361,0.151c-0.264,0.135-0.488,0.271-0.609,0.52c-0.06,0.123-0.062,0.27-0.128,0.392
		c-0.085,0.158-0.3,0.348-0.451,0.423c-0.006-0.274,0.248-0.433,0.305-0.697c0.162-0.173,0.252-0.407,0.383-0.612
		c0.129-0.202,0.317-0.372,0.368-0.597c-0.17,0.171-0.348,0.352-0.49,0.529c-0.048,0.06-0.071,0.17-0.169,0.171
		c-0.026-0.274,0.22-0.35,0.295-0.608c0.039-0.134,0.064-0.336,0.047-0.521c-0.018-0.197-0.15-0.615-0.296-0.607
		c-0.109,0.006-0.169,0.208-0.222,0.308c-0.117,0.225-0.167,0.403-0.142,0.704c0.022,0.252,0.198,0.408,0.207,0.597
		c0.005,0.077-0.042,0.138-0.062,0.226c-0.028,0.123-0.023,0.257-0.056,0.358c-0.088,0.268-0.259,0.521-0.375,0.775
		c-0.062,0.134-0.132,0.261-0.188,0.38c-0.063,0.134-0.096,0.296-0.188,0.365c-0.113-0.043-0.143-0.211-0.134-0.319
		c0.009-0.13,0.122-0.285,0.17-0.423c0.051-0.147,0.108-0.324,0.094-0.494c-0.027-0.316-0.25-0.502-0.309-0.844
		c-0.127,0.04-0.194,0.192-0.266,0.31c-0.065,0.109-0.17,0.254-0.188,0.38c-0.05,0.364,0.148,0.598,0.246,0.788
		c0.062,0.117,0.119,0.278,0.14,0.408c0.059,0.372-0.043,0.642-0.041,0.95c0,0.061,0.032,0.131,0.025,0.206
		c-0.023,0.242-0.197,0.457-0.307,0.667c-0.069,0.135-0.061,0.314-0.232,0.368c-0.083-0.109-0.057-0.292-0.02-0.399
		c0.053-0.154,0.235-0.279,0.274-0.414c-0.026-0.446-0.141-0.891-0.283-1.201c-0.129,0.104-0.197,0.28-0.272,0.443
		c-0.069,0.151-0.171,0.35-0.18,0.528c-0.018,0.337,0.24,0.572,0.266,0.875c0.019,0.228-0.071,0.488-0.141,0.733
		c-0.146,0.518-0.281,0.862-0.574,1.2c-0.135,0.155-0.272,0.365-0.498,0.381c0.055-0.172,0.106-0.331,0.183-0.469
		c0.163-0.294,0.522-0.447,0.502-0.899c-0.047-0.268-0.161-0.484-0.227-0.685c-0.038-0.111-0.02-0.247-0.12-0.32
		c-0.26,0.247-0.523,0.799-0.464,1.342c0.02,0.181,0.158,0.312,0.17,0.436c0.015,0.175-0.146,0.505-0.234,0.634
		c-0.069,0.101-0.156,0.183-0.267,0.281c-0.074,0.065-0.235,0.218-0.359,0.21c-0.234-0.013-0.191-0.278-0.203-0.523
		c-0.015-0.292-0.111-0.714-0.106-0.943c0.004-0.218,0.112-0.431-0.113-0.483c-0.081-0.578-0.209-1.351-0.175-1.992
		c0.016-0.289,0.059-0.452,0.174-0.646c0.109-0.181,0.169-0.28,0.319-0.416c0.151-0.136,0.177-0.121,0.363-0.123
		c0.494-0.002,0.778-0.313,0.838-0.68c0.027-0.174,0.012-0.344,0.063-0.507c0.029-0.092,0.123-0.159,0.075-0.271
		c-0.166,0-0.232,0.144-0.359,0.211c-0.087,0.047-0.166,0.055-0.231,0.086c-0.423,0.2-0.511,0.577-0.691,0.938
		c-0.108,0.218-0.164,0.46-0.373,0.523c-0.113-0.138-0.034-0.334-0.01-0.489c0.028-0.177,0.04-0.367,0.076-0.537
		c0.119-0.557,0.32-1.209,0.755-1.446c0.124-0.067,0.24-0.043,0.396-0.064c0.263-0.035,0.477-0.24,0.57-0.414
		c0.064-0.119,0.156-0.333,0.183-0.483c0.017-0.098,0-0.202,0.015-0.297c0.013-0.083,0.076-0.158,0.032-0.239
		c-0.18,0.043-0.233,0.23-0.397,0.332c-0.15,0.093-0.33,0.121-0.462,0.216c-0.131,0.094-0.284,0.282-0.346,0.462
		c-0.063,0.182-0.012,0.603-0.298,0.549c0.018-0.241,0.151-0.371,0.224-0.56c0.062-0.163,0.079-0.371,0.164-0.556
		c0.192-0.426,0.279-0.923,0.324-1.469c0.031-0.374,0.063-0.449,0.401-0.539c0.146-0.039,0.347-0.039,0.468-0.098
		c0.167-0.082,0.268-0.371,0.326-0.58c0.071-0.259,0.178-0.48,0.126-0.703c-0.528,0.115-0.852,0.447-1.033,0.897
		c-0.057,0.141-0.089,0.35-0.232,0.382c-0.097-0.1-0.038-0.253-0.033-0.383c0.027-0.857,0.206-1.234,0.117-1.191
		c-0.11,0.043-0.129,0.193-0.162,0.304c-0.077,0.254-0.144,0.557-0.148,0.867c-0.01,0.601-0.047,1.074-0.142,1.579
		c-0.035,0.186-0.092,0.375-0.149,0.555c-0.062,0.191-0.091,0.387-0.149,0.556c-0.036,0.103-0.115,0.204-0.162,0.305
		c-0.197,0.428-0.368,0.932-0.507,1.374c-0.039,0.008-0.093-0.034-0.103,0.02c-0.098,0.1-0.017,0.219-0.025,0.357
		c-0.011,0.146-0.1,0.302-0.14,0.467c-0.123,0.503-0.178,1.009-0.199,1.61c-0.013,0.365-0.07,0.738-0.048,1.114
		c0.011,0.165-0.019,0.273-0.008,0.415c0.005,0.071,0.04,0.133,0.055,0.205c0.024,0.125,0.027,0.278,0.051,0.427
		c0.092,0.585,0.117,1.208,0.062,1.805c-0.031,0.334-0.018,0.648-0.09,0.864c-0.023,0.072-0.089,0.144-0.121,0.229
		c-0.055,0.147-0.134,0.376-0.275,0.384c-0.113,0.007-0.296-0.204-0.372-0.322c-0.096-0.15-0.197-0.367-0.219-0.552
		c-0.047-0.39-0.11-0.918-0.003-1.215c0.072-0.201,0.292-0.289,0.347-0.462c0.092-0.296-0.058-0.543-0.145-0.793
		c-0.048-0.139-0.096-0.403-0.197-0.405c-0.088-0.001-0.088,0.109-0.152,0.2c-0.114,0.161-0.313,0.308-0.326,0.565
		c-0.016,0.334,0.117,0.561,0.245,0.744c-0.099,0.22-0.02,0.628-0.213,0.767c-0.322-0.245-0.504-0.75-0.681-1.181
		c-0.067-0.164-0.145-0.327-0.157-0.48c-0.029-0.339,0.04-0.833,0.201-1.003c0.075-0.08,0.194-0.094,0.272-0.147
		c0.296-0.202,0.437-0.57,0.374-1.086c-0.018-0.139-0.033-0.292-0.108-0.395c-0.146,0.05-0.2,0.22-0.323,0.328
		c-0.141,0.123-0.292,0.198-0.366,0.375c-0.044,0.106-0.093,0.298-0.08,0.463c0.006,0.066,0.051,0.137,0.055,0.205
		c0.01,0.133-0.024,0.278-0.053,0.403c-0.025,0.111-0.028,0.268-0.132,0.332c-0.143-0.114-0.12-0.317-0.173-0.509
		c-0.114-0.415-0.262-0.909-0.261-1.35c0.001-0.305,0.14-0.566,0.226-0.797c0.337-0.176,0.754-0.272,0.914-0.639
		c0.098-0.224,0.126-1.117-0.118-1.164c-0.146-0.029-0.341,0.243-0.426,0.347c-0.122,0.15-0.235,0.283-0.302,0.46
		c-0.094,0.251-0.014,0.573-0.077,0.819c-0.017,0.069-0.07,0.106-0.109,0.168c-0.032,0.052-0.042,0.162-0.125,0.155
		c-0.084-0.081-0.055-0.211-0.061-0.308c-0.056-1.112,0.082-1.954,0.675-2.435c0.061-0.049,0.138-0.067,0.202-0.114
		c0.265-0.193,0.317-0.448,0.295-0.889c-0.01-0.19-0.018-0.412-0.087-0.559c-0.138,0.04-0.199,0.19-0.281,0.295
		c-0.248,0.318-0.538,0.661-0.47,1.239c0.022,0.19-0.008,0.446-0.126,0.422c-0.119-0.024-0.012-0.306,0.006-0.46
		c0.058-0.492,0.06-1.044,0.01-1.571 M19.054,15.504c0.075,0.089,0.136,0.425-0.021,0.461
		C18.901,15.934,18.829,15.451,19.054,15.504z M18.524,11.768c0.068,0.036-0.043,0.208-0.125,0.154
		C18.418,11.85,18.481,11.818,18.524,11.768z M15.465,13.508c0.029-0.001,0.059-0.002,0.089-0.004
		c-0.012,0.278-0.061,0.519-0.28,0.607C15.229,13.913,15.44,13.735,15.465,13.508z M14.918,9.121
		c0.005-0.071,0.089,0.036,0.087-0.034c0.018,0.004,0.038,0.024,0.017,0.029c-0.069,0.117-0.045,0.413-0.228,0.471
		C14.742,9.403,14.912,9.192,14.918,9.121z M14.567,4.516c-0.009,0.118-0.035,0.222-0.166,0.23
		C14.445,4.658,14.443,4.531,14.567,4.516z M13.944,2.725c0.024-0.127,0.061-0.126,0.089-0.004c0.027,0.122,0.046,0.415-0.11,0.45
		C13.904,2.999,13.921,2.852,13.944,2.725z M13.589,4.758c-0.022,0.002-0.132-0.271-0.042-0.25
		C13.612,4.539,13.64,4.691,13.589,4.758z M13.147,6.529c0.098,0.036,0.153,0.12,0.146,0.273
		C13.204,6.767,13.065,6.655,13.147,6.529z M13.18,13.328c-0.135-0.011-0.146-0.16-0.163-0.303c0.013-0.003,0.015,0.005,0.016,0.014
		c0.021-0.007-0.007-0.019-0.002-0.044C13.083,13.094,13.233,13.21,13.18,13.328z M13.482,16.38
		c0.091,0.096,0.198,0.175,0.279,0.282C13.577,16.679,13.507,16.489,13.482,16.38z M11.964,13.539c-0.03,0.231-0.118,0.41-0.3,0.504
		c-0.016-0.019-0.04-0.028-0.061-0.042C11.686,13.813,11.823,13.674,11.964,13.539z M10.023,6.717
		c0.099,0.149,0.021,0.35-0.144,0.378C9.89,6.935,10.017,6.88,10.023,6.717z M9.018,8.458c0.125,0.038,0.157,0.179,0.207,0.3
		C9.098,8.723,9.055,8.594,9.018,8.458z M9.527,8.594c0.023-0.031-0.003-0.019-0.003-0.059c0.03,0.023,0.019-0.002,0.059-0.003
		C9.537,8.601,9.584,8.531,9.587,8.606C9.557,8.614,9.547,8.598,9.527,8.594z M10.338,15c-0.008-0.031,0.009-0.041,0.012-0.061
		c0.011,0,0.021-0.001,0.03-0.001c0.228,0.184,0.563,0.248,0.608,0.635C10.668,15.497,10.529,15.218,10.338,15z M9.032,19.555
		c-0.045,0.013-0.045-0.023-0.09-0.01c0.01-0.175-0.074-0.434,0.11-0.45C9.091,19.238,9.056,19.422,9.032,19.555z M5.16,18.981
		c0.034-0.037-0.023-0.027-0.019-0.073C5.154,18.896,5.175,18.89,5.2,18.89C5.194,18.928,5.205,18.979,5.16,18.981z M6.122,20.177
		c0-0.015-0.001-0.03-0.002-0.044c0.194-0.038,0.449-0.011,0.552,0.105C6.581,20.374,6.233,20.231,6.122,20.177z M12.576,30.302
		c-0.043,0.088-0.139-0.17-0.186-0.124c-0.026,0.027-0.023,0.067-0.03,0.09s-0.027-0.021-0.024-0.027
		c0.051-0.099,0.035-0.144,0.063-0.203c0.039-0.129,0.036-0.015,0.044,0.019C12.461,30.136,12.618,30.213,12.576,30.302z
		 M12.591,29.703c0.057,0.14-0.042,0.034-0.057,0.056c-0.014,0.021-0.006,0.049-0.041,0.042c0.039-0.155,0.072-0.493,0.166-0.418
		C12.754,29.457,12.534,29.563,12.591,29.703z M12.814,29.45c0.014,0.139-0.154,0.201-0.13,0.167
		c0.099-0.131,0.068-0.297,0.124-0.447c0.039-0.109,0.067-0.146,0.084-0.137C12.915,29.045,12.802,29.309,12.814,29.45z
		 M15.616,29.091c-0.018-0.125-0.12-0.462,0.042-0.585C15.593,28.706,15.675,28.959,15.616,29.091z M13.594,28.58l-0.048,0.011
		c0.195-0.227,0.192-0.376,0.354-0.507C13.848,28.226,13.76,28.477,13.594,28.58z M13.95,29.884
		c0.164-0.156,0.096-0.767,0.292-0.751C14.136,29.325,14.153,29.773,13.95,29.884z M14.214,28.021
		c-0.033-0.068,0.102-0.811,0.143-0.866C14.47,27.179,14.285,28.012,14.214,28.021z M14.535,28.979
		c0.025-0.113-0.053-0.331,0.041-0.375C14.565,28.77,14.682,28.897,14.535,28.979z M15.435,30.083
		c-0.057-0.34-0.216-0.78-0.171-0.787c0.044-0.007,0.026,0.018,0.037,0.146c0.01,0.127,0.208,0.375,0.247,0.677
		c0.039,0.301,0.219,0.52,0.257,0.607C15.826,30.775,15.489,30.413,15.435,30.083z M15.783,30.469
		c0.037,0.006,0.048,0.197,0.208,0.501c-0.044,0.036-0.103-0.137-0.15-0.244C15.791,30.615,15.765,30.466,15.783,30.469z
		 M16.907,31.805c0.093,0.047-0.63-0.167-0.807-0.35c-0.082-0.083-0.161-0.199-0.192-0.276s0.159,0.157,0.256,0.222
		C16.431,31.581,16.815,31.758,16.907,31.805z M16.366,31.346c-0.048,0.025-0.106-0.043-0.144-0.071
		c-0.132-0.098-0.139-0.226-0.092-0.155C16.24,31.222,16.414,31.32,16.366,31.346z M20.577,19.65
		c0.021,0.014,0.056,0.012,0.076,0.026c0.021,0.142-0.088,0.261-0.13,0.362c-0.023,0.056-0.015,0.121-0.036,0.165
		c-0.04,0.082-0.15,0.271-0.267,0.266C20.254,20.223,20.402,19.86,20.577,19.65z M18.646,19.719c0.172,0.054,0.244,0.218,0.3,0.399
		C18.768,20.071,18.688,19.916,18.646,19.719z M18.327,21.32c0.018-0.175-0.034-0.271-0.007-0.429
		c0.016,0.003,0.012,0.029,0.031,0.028c-0.008,0.14,0.014,0.199,0.003,0.37c-0.008,0.135,0.02,0.373-0.143,0.393
		C18.181,21.55,18.185,21.297,18.327,21.32z M16.061,15.375c0.03-0.001,0.06-0.003,0.089-0.004c0.044,0.205,0.132,0.433,0.094,0.677
		c-0.043,0.007-0.071,0.029-0.085,0.063C15.991,15.958,16.055,15.634,16.061,15.375z M14.618,24.546
		c0.015-0.001,0.03-0.001,0.044-0.002c0.017,0.034,0.03,0.071,0.036,0.117C14.627,24.675,14.608,24.573,14.618,24.546z
		 M14.495,24.745c0.153,0.022,0.119,0.208,0.266,0.283s-0.091,0.134-0.169,0.157C14.503,25.091,14.372,24.892,14.495,24.745z
		 M14.6,25.347c-0.004-0.055-0.019-0.041-0.005-0.088c0.021-0.001,0.04-0.002,0.06-0.003C14.689,25.292,14.674,25.367,14.6,25.347z
		 M13.982,23.66c-0.092-0.013-0.152-0.084-0.173-0.213C13.909,23.471,13.946,23.565,13.982,23.66z M13.35,23.411
		c-0.006-0.026,0.012-0.031,0.014-0.016c-0.008-0.032,0.059-0.052,0.068-0.107c0.077-0.023,0.068,0.049,0.121,0.053
		C13.529,23.419,13.427,23.456,13.35,23.411z M13.794,23.433c-0.079-0.034-0.138-0.058-0.196-0.079
		c0.004-0.078,0.076-0.013,0.1-0.079C13.745,23.304,13.822,23.369,13.794,23.433z M17.644,17.74
		c-0.001-0.035-0.003-0.069-0.005-0.104c0.057,0.005,0.092-0.01,0.102-0.049c0.021,0.002,0.007,0.044,0.031,0.043
		C17.71,17.649,17.732,17.744,17.644,17.74z M17.731,18.595c0.075-0.227,0.208-0.336,0.327-0.535
		c0.018-0.003,0.027,0.001,0.03,0.013C17.987,18.263,17.886,18.453,17.731,18.595z M20.139,13.879
		c-0.189-0.01-0.099-0.364-0.1-0.499c0.019,0.016,0.053,0.014,0.089,0.01C20.152,13.521,20.187,13.769,20.139,13.879z
		 M20.911,11.632c-0.049,0.021-0.059-0.079-0.076-0.041c-0.01-0.092-0.123-0.346,0.058-0.329
		C20.912,11.372,20.934,11.523,20.911,11.632z"/>
	<path fill="#302F3B" d="M13.656,26.799C13.658,26.794,13.658,26.794,13.656,26.799L13.656,26.799z"/>
	<path fill="#7CB15A" d="M10.938,16.924c-0.398-0.252-0.935-0.083-1.263,0.153c0.006,0.124,0.151,0.192,0.25,0.269
		c0.224,0.174,0.498,0.305,0.913,0.22c0.105-0.021,0.375-0.151,0.387-0.242C11.239,17.208,10.989,16.957,10.938,16.924z
		 M10.382,17.309c-0.002-0.024-0.003-0.049-0.005-0.074c0.073-0.029,0.205-0.004,0.325-0.001c0.002,0.029,0.003,0.059,0.005,0.088
		C10.607,17.366,10.479,17.316,10.382,17.309z"/>
	<path fill="#7CB15A" d="M21.734,15.042c-0.022-0.023-0.045-0.044-0.063-0.071c-0.022,0.007-0.053-0.005-0.073,0.004
		c-0.442,0.189-0.814,0.384-0.999,0.703c-0.067,0.118-0.07,0.273-0.156,0.408c-0.103,0.159-0.342,0.176-0.411,0.362
		c0.229,0.002,0.385-0.212,0.652-0.255c0.107-0.017,0.226,0.008,0.339-0.017c0.166-0.036,0.312-0.176,0.4-0.272
		c-0.003-0.054-0.006-0.108-0.008-0.163C21.675,15.647,21.633,15.28,21.734,15.042z M20.703,15.999
		c0.146-0.201,0.294-0.401,0.52-0.531C21.158,15.733,20.951,15.945,20.703,15.999z"/>
	<g>
		<path fill="#7CB15A" d="M14.396,8.155l-0.006-0.171C14.39,8.04,14.391,8.097,14.396,8.155z"/>
		<path fill="#408255" d="M15.05,5.884c-0.014-0.101,0.042-0.26-0.089-0.307c-0.129,0.025-0.207,0.157-0.283,0.251
			c-0.18,0.223-0.315,0.574-0.247,0.961c0.041,0.229,0.058,0.635,0.232,0.507c0.208-0.153,0.422-0.266,0.493-0.484
			C15.264,6.478,15.082,6.124,15.05,5.884z M14.78,6.698c-0.012-0.049-0.012-0.196,0.095-0.183
			C14.874,6.604,14.885,6.702,14.78,6.698z"/>
	</g>
	<path fill="#7CB15A" d="M13.815,9.532c-0.037-0.583-0.316-0.851-0.618-1.125c-0.068-0.063-0.14-0.188-0.244-0.15
		c-0.09,0.238-0.015,0.446,0.016,0.606c0.028,0.144,0.004,0.263,0.051,0.398c0.058,0.169,0.175,0.278,0.27,0.371
		c0.095,0.094,0.258,0.162,0.341,0.309C13.685,10.039,13.823,9.647,13.815,9.532z M13.164,8.632c0.008-0.046,0.024-0.01,0.074,0.011
		c0.051,0.021,0.26,0.495,0.219,0.507C13.415,9.163,13.157,8.678,13.164,8.632z"/>
	<path fill="#7CB15A" d="M18.242,7.944c0.075-0.071,0.111-0.169,0.119-0.273c0.047-0.543-0.462-0.922-0.541-1.069
		c-0.028-0.042-0.067-0.277-0.126-0.157C17.37,7.107,17.606,7.869,18.242,7.944z"/>
	<path fill="#7CB15A" d="M20.414,23.507c-0.003-0.092,0.026-0.245-0.073-0.292c-0.1-0.001-0.173,0.099-0.258,0.161
		c-0.087,0.063-0.191,0.124-0.256,0.206c-0.035,0.044-0.044,0.146-0.093,0.212c-0.051,0.067-0.129,0.076-0.156,0.142
		c-0.075,0.186-0.018,0.388-0.089,0.567c-0.028,0.07,0.009,0.138,0.121,0.068c0.284-0.174,0.643-0.263,0.769-0.587
		C20.433,23.844,20.42,23.672,20.414,23.507z M19.8,24.219c0.063-0.22,0.175-0.396,0.281-0.577c0.023-0.005,0.026,0.013,0.045,0.013
		C20.093,23.903,20.038,24.204,19.8,24.219z"/>
	<path fill="#387238" d="M5.842,17.85c0.054-0.064,0.163-0.078,0.23-0.13c0-0.524-0.338-0.99-0.722-1.134
		c-0.105-0.039-0.386-0.108-0.415-0.009C5.024,17.238,5.257,17.74,5.842,17.85z M5.696,17.294c0.104,0.018,0.188,0.131,0.159,0.244
		C5.755,17.519,5.668,17.407,5.696,17.294z"/>
	<path fill="#387238" d="M23.45,8.346c-0.026,0.003-0.047,0-0.061-0.011c-0.127,0.127-0.342,0.217-0.439,0.363
		c-0.198,0.297-0.124,0.687-0.162,1.179C23.54,9.849,23.715,8.998,23.45,8.346z"/>
	<path fill="#387238" d="M17.144,10.178c0.091,0.104,0.154,0.23,0.267,0.298c0.145-0.214,0.31-0.704,0.254-1.125
		c-0.02-0.138-0.13-0.373-0.174-0.51c-0.031-0.098,0.002-0.194-0.098-0.173c-0.147,0.343-0.582,0.655-0.473,1.165
		C16.946,9.958,17.061,10.083,17.144,10.178z M17.386,9.411c-0.035,0.139,0.114,0.358-0.04,0.387
		C17.296,9.753,17.2,9.375,17.386,9.411z"/>
	<path fill="#387238" d="M12.344,26.321c0.076,0.035,0.11,0.146,0.212,0.093c0.266-0.917-0.411-1.292-0.907-1.569
		c-0.005,0.019-0.018,0.031-0.043,0.032c-0.025,0.344-0.015,0.928,0.146,1.133C11.895,26.193,12.141,26.228,12.344,26.321z
		 M11.865,25.338c0.015-0.001,0.029-0.002,0.045-0.002c0.083,0.09,0.147,0.225,0.209,0.345c0.063,0.125,0.131,0.259,0.138,0.393
		c-0.124-0.011-0.192-0.178-0.25-0.284c-0.066-0.12-0.121-0.258-0.139-0.408C11.846,25.377,11.873,25.363,11.865,25.338z"/>
	<path fill="#387238" d="M11.479,20.305c0.039,0.18,0.134,0.362,0.246,0.492c0.084,0.097,0.271,0.27,0.415,0.305
		c0.193,0.047,0.432-0.002,0.653,0.055c0.149,0.04,0.213,0.238,0.354,0.279c0.01-0.131-0.098-0.158-0.161-0.259
		c-0.154-0.243-0.164-0.583-0.379-0.766C12.373,20.211,11.856,20.154,11.479,20.305z M12.438,20.894
		c-0.164,0.006-0.229-0.099-0.319-0.176C12.256,20.681,12.393,20.779,12.438,20.894z"/>
</g>
</svg>
